<?xml version="1.0" encoding="utf-8" standalone="no"?>
<!DOCTYPE svg PUBLIC "-//W3C//DTD SVG 1.1//EN"
  "http://www.w3.org/Graphics/SVG/1.1/DTD/svg11.dtd">
<!-- Created with matplotlib (https://matplotlib.org/) -->
<svg height="368.39952pt" version="1.1" viewBox="0 0 584.39952 368.39952" width="584.39952pt" xmlns="http://www.w3.org/2000/svg" xmlns:xlink="http://www.w3.org/1999/xlink">
 <defs>
  <style type="text/css">
*{stroke-linecap:butt;stroke-linejoin:round;}
  </style>
 </defs>
 <g id="figure_1">
  <g id="patch_1">
   <path d="M 0 368.39952 
L 584.39952 368.39952 
L 584.39952 0 
L 0 0 
z
" style="fill:#ffffff;"/>
  </g>
  <g id="axes_1">
   <g id="patch_2">
    <path clip-path="url(#pa28cd09636)" d="M 185.033222 101.320185 
C 191.880281 101.320185 198.608163 99.517209 204.53789 96.093213 
C 210.467617 92.669217 215.392768 87.743395 218.816298 81.81286 
" style="fill:none;opacity:0.8;stroke:#ff7f0e;stroke-linejoin:miter;stroke-width:2;"/>
   </g>
   <g id="patch_3">
    <path clip-path="url(#pa28cd09636)" d="M 320.165525 199.447937 
C 325.330768 199.447937 330.473798 198.770753 335.463039 197.433707 
C 340.452281 196.096662 345.244821 194.111256 349.718053 191.528283 
" style="fill:none;opacity:0.8;stroke:#2ca02c;stroke-linejoin:miter;stroke-width:2;"/>
   </g>
   <g id="patch_4">
    <path clip-path="url(#pa28cd09636)" d="M 196.854233 298.757952 
L 185.033222 302.89587 
L 185.033222 299.940214 
L 137.749178 299.940214 
L 137.749178 297.57569 
L 185.033222 297.57569 
L 185.033222 294.620035 
z
" style="stroke:#000000;stroke-linejoin:miter;"/>
   </g>
   <g id="patch_5">
    <path clip-path="url(#pa28cd09636)" d="M 137.749178 239.644848 
L 141.886532 251.467469 
L 138.931279 251.467469 
L 138.931279 298.757952 
L 136.567077 298.757952 
L 136.567077 251.467469 
L 133.611824 251.467469 
z
" style="stroke:#000000;stroke-linejoin:miter;"/>
   </g>
   <g id="line2d_1">
    <path clip-path="url(#pa28cd09636)" d="M 185.033222 62.305536 
L 320.165525 140.334833 
" style="fill:none;stroke:#ff7f0e;stroke-linecap:square;stroke-opacity:0.8;stroke-width:2;"/>
   </g>
   <g id="line2d_2">
    <path clip-path="url(#pa28cd09636)" d="M 320.165525 140.334833 
L 438.375634 345.108633 
" style="fill:none;stroke:#2ca02c;stroke-linecap:square;stroke-opacity:0.8;stroke-width:2;"/>
   </g>
   <g id="line2d_3">
    <path clip-path="url(#pa28cd09636)" d="M 185.033222 62.305536 
L 185.033222 140.334833 
" style="fill:none;stroke:#808080;stroke-dasharray:2,3.3;stroke-dashoffset:0;stroke-opacity:0.8;stroke-width:2;"/>
   </g>
   <g id="line2d_4">
    <path clip-path="url(#pa28cd09636)" d="M 320.165525 140.334833 
L 320.165525 218.364131 
" style="fill:none;stroke:#808080;stroke-dasharray:2,3.3;stroke-dashoffset:0;stroke-opacity:0.8;stroke-width:2;"/>
   </g>
   <g id="line2d_5">
    <defs>
     <path d="M 0 7.5 
C 1.989023 7.5 3.896849 6.709753 5.303301 5.303301 
C 6.709753 3.896849 7.5 1.989023 7.5 0 
C 7.5 -1.989023 6.709753 -3.896849 5.303301 -5.303301 
C 3.896849 -6.709753 1.989023 -7.5 0 -7.5 
C -1.989023 -7.5 -3.896849 -6.709753 -5.303301 -5.303301 
C -6.709753 -3.896849 -7.5 -1.989023 -7.5 0 
C -7.5 1.989023 -6.709753 3.896849 -5.303301 5.303301 
C -3.896849 6.709753 -1.989023 7.5 0 7.5 
z
" id="m033c02f82a" style="stroke:#808080;"/>
    </defs>
    <g clip-path="url(#pa28cd09636)">
     <use style="fill:#808080;stroke:#808080;" x="185.033222" xlink:href="#m033c02f82a" y="62.305536"/>
    </g>
   </g>
   <g id="line2d_6">
    <defs>
     <path d="M 0 7.5 
C 1.989023 7.5 3.896849 6.709753 5.303301 5.303301 
C 6.709753 3.896849 7.5 1.989023 7.5 0 
C 7.5 -1.989023 6.709753 -3.896849 5.303301 -5.303301 
C 3.896849 -6.709753 1.989023 -7.5 0 -7.5 
C -1.989023 -7.5 -3.896849 -6.709753 -5.303301 -5.303301 
C -6.709753 -3.896849 -7.5 -1.989023 -7.5 0 
C -7.5 1.989023 -6.709753 3.896849 -5.303301 5.303301 
C -3.896849 6.709753 -1.989023 7.5 0 7.5 
z
" id="m6afcdf74f4" style="stroke:#ff7f0e;"/>
    </defs>
    <g clip-path="url(#pa28cd09636)">
     <use style="fill:#ff7f0e;stroke:#ff7f0e;" x="320.165525" xlink:href="#m6afcdf74f4" y="140.334833"/>
    </g>
   </g>
   <g id="line2d_7">
    <defs>
     <path d="M 0 7.5 
C 1.989023 7.5 3.896849 6.709753 5.303301 5.303301 
C 6.709753 3.896849 7.5 1.989023 7.5 0 
C 7.5 -1.989023 6.709753 -3.896849 5.303301 -5.303301 
C 3.896849 -6.709753 1.989023 -7.5 0 -7.5 
C -1.989023 -7.5 -3.896849 -6.709753 -5.303301 -5.303301 
C -6.709753 -3.896849 -7.5 -1.989023 -7.5 0 
C -7.5 1.989023 -6.709753 3.896849 -5.303301 5.303301 
C -3.896849 6.709753 -1.989023 7.5 0 7.5 
z
" id="m0b79146c98" style="stroke:#2ca02c;"/>
    </defs>
    <g clip-path="url(#pa28cd09636)">
     <use style="fill:#2ca02c;stroke:#2ca02c;" x="438.375634" xlink:href="#m0b79146c98" y="345.108633"/>
    </g>
   </g>
   <g id="text_1">
    <!-- $x$ -->
    <defs>
     <path d="M 47.40625 41 
C 44.203125 40.390625 43 37.984375 43 36.09375 
C 43 33.6875 44.90625 32.890625 46.296875 32.890625 
C 49.296875 32.890625 51.40625 35.484375 51.40625 38.1875 
C 51.40625 42.09375 46.59375 44 42.40625 44 
C 36.296875 44 32.90625 38.296875 32 36.390625 
C 29.703125 43.59375 23.5 44 21.703125 44 
C 11.5 44 6.09375 31.140625 6.09375 28.890625 
C 6.09375 28.484375 6.5 27.96875 7.203125 27.96875 
C 8 27.96875 8.203125 28.578125 8.40625 28.984375 
C 11.796875 40.1875 18.5 41.984375 21.40625 41.984375 
C 25.90625 41.984375 26.796875 38.09375 26.796875 35.6875 
C 26.796875 33.484375 26.203125 31.140625 25 26.21875 
L 21.59375 12.15625 
C 20.09375 6.09375 17.203125 1 11.90625 1 
C 11.40625 1 8.90625 1 6.796875 1.96875 
C 10.40625 2.59375 11.203125 5.59375 11.203125 6.796875 
C 11.203125 8.796875 9.703125 10 7.796875 10 
C 5.40625 10 2.796875 7.890625 2.796875 4.6875 
C 2.796875 0.890625 7.5 -1 11.796875 -1 
C 16.59375 -1 20 2.390625 22.09375 6.484375 
C 23.703125 1 28.703125 -1 32.40625 -1 
C 42.59375 -1 48 11.734375 48 14 
C 48 14.515625 47.59375 14.921875 47 14.921875 
C 46.09375 14.921875 46 14.40625 45.703125 13.59375 
C 43 4.6875 37.203125 1 32.703125 1 
C 29.203125 1 27.296875 3.1875 27.296875 7.296875 
C 27.296875 9.484375 27.703125 11.125 29.296875 17.90625 
L 32.796875 31.859375 
C 34.296875 37.890625 37.703125 41.984375 42.296875 41.984375 
C 42.5 41.984375 45.296875 41.984375 47.40625 41 
z
" id="CMMI12-120"/>
    </defs>
    <g transform="translate(185.033222 290.777683)scale(0.19 -0.19)">
     <use transform="scale(0.996264)" xlink:href="#CMMI12-120"/>
    </g>
   </g>
   <g id="text_2">
    <!-- $y$ -->
    <defs>
     <path d="M 26.296875 -10.515625 
C 23.59375 -14.390625 19.703125 -18 14.796875 -18 
C 13.59375 -18 8.796875 -17.796875 7.296875 -12.90625 
C 7.59375 -13.015625 8.09375 -13.015625 8.296875 -13.015625 
C 11.296875 -13.015625 13.296875 -10.40625 13.296875 -8.109375 
C 13.296875 -5.8125 11.40625 -5 9.90625 -5 
C 8.296875 -5 4.796875 -6.203125 4.796875 -11.109375 
C 4.796875 -16.40625 9.09375 -20 14.796875 -20 
C 24.796875 -20 34.90625 -10.515625 37.703125 -0.109375 
L 47.5 38.796875 
C 47.59375 39.296875 47.796875 39.890625 47.796875 40.484375 
C 47.796875 41.984375 46.59375 43 45.09375 43 
C 44.203125 43 42.09375 42.59375 41.296875 39.59375 
L 33.90625 10.265625 
C 33.40625 8.46875 33.40625 8.28125 32.59375 7.171875 
C 30.59375 4.390625 27.296875 1 22.5 1 
C 16.90625 1 16.40625 6.484375 16.40625 9.171875 
C 16.40625 14.859375 19.09375 22.546875 21.796875 29.71875 
C 22.90625 32.609375 23.5 34.015625 23.5 36.015625 
C 23.5 40.203125 20.5 44 15.59375 44 
C 6.40625 44 2.703125 29.53125 2.703125 28.71875 
C 2.703125 28.328125 3.09375 27.828125 3.796875 27.828125 
C 4.703125 27.828125 4.796875 28.234375 5.203125 29.625 
C 7.59375 38 11.40625 41.984375 15.296875 41.984375 
C 16.203125 41.984375 17.90625 41.984375 17.90625 38.703125 
C 17.90625 36.109375 16.796875 33.21875 15.296875 29.421875 
C 10.40625 16.359375 10.40625 13.0625 10.40625 10.671875 
C 10.40625 1.1875 17.203125 -1 22.203125 -1 
C 25.09375 -1 28.703125 -0.109375 32.203125 3.59375 
L 32.296875 3.484375 
C 30.796875 -2.203125 29.796875 -5.609375 26.296875 -10.515625 
z
" id="CMMI12-121"/>
    </defs>
    <g transform="translate(143.659684 251.467469)scale(0.19 -0.19)">
     <use transform="scale(0.996264)" xlink:href="#CMMI12-121"/>
    </g>
   </g>
   <g id="text_3">
    <!-- $O$ -->
    <defs>
     <path d="M 72.59375 43.5625 
C 72.59375 59.953125 61.796875 70 47.796875 70 
C 26.40625 70 4.796875 47.140625 4.796875 24.21875 
C 4.796875 8.625 15.203125 -2 29.703125 -2 
C 50.703125 -2 72.59375 19.75 72.59375 43.5625 
z
M 30.296875 0.296875 
C 22.09375 0.296875 13.40625 6.25 13.40625 21.734375 
C 13.40625 30.765625 16.703125 45.546875 24.90625 55.484375 
C 32.203125 64.21875 40.59375 67.796875 47.296875 67.796875 
C 56.09375 67.796875 64.59375 61.4375 64.59375 47.140625 
C 64.59375 38.3125 60.796875 24.515625 54.09375 15.078125 
C 46.796875 4.953125 37.703125 0.296875 30.296875 0.296875 
z
" id="CMMI12-79"/>
    </defs>
    <g style="fill:#808080;" transform="translate(190.943727 56.394226)scale(0.22 -0.22)">
     <use transform="scale(0.996264)" xlink:href="#CMMI12-79"/>
    </g>
   </g>
   <g id="text_4">
    <!-- $P_1$ -->
    <defs>
     <path d="M 29.59375 31.59375 
L 46.40625 31.59375 
C 60.203125 31.59375 74 41.765625 74 53.125 
C 74 60.90625 67.40625 68 54.796875 68 
L 23.90625 68 
C 22 68 21.09375 68 21.09375 66.09375 
C 21.09375 65.09375 22 65.09375 23.5 65.09375 
C 29.59375 65.09375 29.59375 64.296875 29.59375 63.203125 
C 29.59375 63 29.59375 62.40625 29.203125 60.90625 
L 15.703125 7.359375 
C 14.796875 3.890625 14.59375 2.890625 7.59375 2.890625 
C 5.703125 2.890625 4.703125 2.890625 4.703125 1.09375 
C 4.703125 0 5.59375 0 6.203125 0 
C 8.09375 0 10.09375 0.1875 12 0.1875 
L 23.703125 0.1875 
C 25.59375 0.1875 27.703125 0 29.59375 0 
C 30.40625 0 31.5 0 31.5 1.890625 
C 31.5 2.890625 30.59375 2.890625 29.09375 2.890625 
C 23.09375 2.890625 23 3.59375 23 4.578125 
C 23 5.078125 23.09375 5.765625 23.203125 6.265625 
z
M 36.796875 61.203125 
C 37.703125 64.890625 38.09375 65.09375 42 65.09375 
L 51.90625 65.09375 
C 59.40625 65.09375 65.59375 62.703125 65.59375 55.21875 
C 65.59375 52.640625 64.296875 44.15625 59.703125 39.578125 
C 58 37.78125 53.203125 34 44.09375 34 
L 30 34 
z
" id="CMMI12-80"/>
     <path d="M 26.59375 63.796875 
C 26.59375 65.890625 26.5 66 25.09375 66 
C 21.203125 61.359375 15.296875 59.890625 9.703125 59.6875 
C 9.40625 59.6875 8.90625 59.6875 8.796875 59.5 
C 8.703125 59.296875 8.703125 59.09375 8.703125 57 
C 11.796875 57 17 57.59375 21 59.984375 
L 21 7.296875 
C 21 3.796875 20.796875 2.59375 12.203125 2.59375 
L 9.203125 2.59375 
L 9.203125 0 
C 14 0.09375 19 0.1875 23.796875 0.1875 
C 28.59375 0.1875 33.59375 0.09375 38.40625 0 
L 38.40625 2.59375 
L 35.40625 2.59375 
C 26.796875 2.59375 26.59375 3.6875 26.59375 7.296875 
z
" id="CMR17-49"/>
    </defs>
    <g style="fill:#ff7f0e;" transform="translate(331.986536 128.512213)scale(0.22 -0.22)">
     <use transform="scale(0.996264)" xlink:href="#CMMI12-80"/>
     <use transform="translate(62.877232 -14.943915)scale(0.697382)" xlink:href="#CMR17-49"/>
    </g>
   </g>
   <g id="text_5">
    <!-- $P_2$ -->
    <defs>
     <path d="M 41.703125 15.46875 
L 39.90625 15.46875 
C 38.90625 8.390625 38.09375 7.1875 37.703125 6.59375 
C 37.203125 5.796875 30 5.796875 28.59375 5.796875 
L 9.40625 5.796875 
C 13 9.6875 20 16.765625 28.5 24.9375 
C 34.59375 30.71875 41.703125 37.5 41.703125 47.390625 
C 41.703125 59.1875 32.296875 66 21.796875 66 
C 10.796875 66 4.09375 56.296875 4.09375 47.296875 
C 4.09375 43.390625 7 42.890625 8.203125 42.890625 
C 9.203125 42.890625 12.203125 43.484375 12.203125 46.984375 
C 12.203125 50.09375 9.59375 51 8.203125 51 
C 7.59375 51 7 50.890625 6.59375 50.6875 
C 8.5 59.1875 14.296875 63.390625 20.40625 63.390625 
C 29.09375 63.390625 34.796875 56.5 34.796875 47.390625 
C 34.796875 38.703125 29.703125 31.21875 24 24.734375 
L 4.09375 2.296875 
L 4.09375 0 
L 39.296875 0 
z
" id="CMR17-50"/>
    </defs>
    <g style="fill:#2ca02c;" transform="translate(450.196645 333.286012)scale(0.22 -0.22)">
     <use transform="scale(0.996264)" xlink:href="#CMMI12-80"/>
     <use transform="translate(62.877232 -14.943915)scale(0.697382)" xlink:href="#CMR17-50"/>
    </g>
   </g>
   <g id="text_6">
    <!-- $m_1$ -->
    <defs>
     <path d="M 20.59375 29.21875 
C 20.796875 29.828125 23.296875 34.8125 27 38 
C 29.59375 40.390625 33 41.984375 36.90625 41.984375 
C 40.90625 41.984375 42.296875 39 42.296875 35.015625 
C 42.296875 34.40625 42.296875 32.421875 41.09375 27.734375 
L 38.59375 17.453125 
C 37.796875 14.453125 35.90625 7.078125 35.703125 5.984375 
C 35.296875 4.484375 34.703125 1.890625 34.703125 1.484375 
C 34.703125 0.09375 35.796875 -1 37.296875 -1 
C 40.296875 -1 40.796875 1.296875 41.703125 4.890625 
L 47.703125 28.71875 
C 47.90625 29.53125 53.09375 41.984375 64.09375 41.984375 
C 68.09375 41.984375 69.5 39 69.5 35.015625 
C 69.5 29.421875 65.59375 18.546875 63.40625 12.5625 
C 62.5 10.171875 62 8.875 62 7.078125 
C 62 2.59375 65.09375 -1 69.90625 -1 
C 79.203125 -1 82.703125 13.65625 82.703125 14.265625 
C 82.703125 14.765625 82.296875 15.15625 81.703125 15.15625 
C 80.796875 15.15625 80.703125 14.859375 80.203125 13.15625 
C 77.90625 5.1875 74.203125 1 70.203125 1 
C 69.203125 1 67.59375 1.09375 67.59375 4.28125 
C 67.59375 6.875 68.796875 10.078125 69.203125 11.171875 
C 71 15.953125 75.5 27.734375 75.5 33.515625 
C 75.5 39.5 72 44 64.40625 44 
C 57.703125 44 52.296875 40.203125 48.296875 34.3125 
C 48 39.703125 44.703125 44 37.203125 44 
C 28.296875 44 23.59375 37.703125 21.796875 35.203125 
C 21.5 40.890625 17.40625 44 13 44 
C 10.09375 44 7.796875 42.59375 5.90625 38.796875 
C 4.09375 35.203125 2.703125 29.125 2.703125 28.71875 
C 2.703125 28.328125 3.09375 27.828125 3.796875 27.828125 
C 4.59375 27.828125 4.703125 27.921875 5.296875 30.21875 
C 6.796875 36.109375 8.703125 41.984375 12.703125 41.984375 
C 15 41.984375 15.796875 40.390625 15.796875 37.40625 
C 15.796875 35.203125 14.796875 31.3125 14.09375 28.234375 
L 11.296875 17.453125 
C 10.90625 15.5625 9.796875 11.0625 9.296875 9.265625 
C 8.59375 6.671875 7.5 1.984375 7.5 1.484375 
C 7.5 0.09375 8.59375 -1 10.09375 -1 
C 11.296875 -1 12.703125 -0.40625 13.5 1.09375 
C 13.703125 1.59375 14.59375 5.078125 15.09375 7.078125 
L 17.296875 16.0625 
z
" id="CMMI12-109"/>
    </defs>
    <g style="fill:#ff7f0e;" transform="translate(290.612998 158.068765)scale(0.19 -0.19)">
     <use transform="scale(0.996264)" xlink:href="#CMMI12-109"/>
     <use transform="translate(85.327224 -14.943915)scale(0.697382)" xlink:href="#CMR17-49"/>
    </g>
   </g>
   <g id="text_7">
    <!-- $m_2$ -->
    <g style="fill:#2ca02c;" transform="translate(402.912602 351.019943)scale(0.19 -0.19)">
     <use transform="scale(0.996264)" xlink:href="#CMMI12-109"/>
     <use transform="translate(85.327224 -14.943915)scale(0.697382)" xlink:href="#CMR17-50"/>
    </g>
   </g>
   <g id="text_8">
    <!-- $\ell_1$ -->
    <defs>
     <path d="M 9.203125 17.046875 
C 2.90625 10.90625 1.296875 9.421875 1.296875 9.015625 
C 1.296875 8.625 1.703125 7.9375 2.40625 7.9375 
C 2.90625 7.9375 8.59375 13.375 9.40625 14.265625 
C 10 7.625 12.5 -1 20.296875 -1 
C 24.296875 -1 27.90625 1.484375 29.5 2.671875 
C 30.796875 3.671875 35.59375 7.734375 35.59375 8.625 
C 35.59375 9.125 35.09375 9.71875 34.59375 9.71875 
C 34.203125 9.71875 32.703125 8.234375 32.296875 7.828125 
C 28.796875 4.46875 24.40625 1 20.40625 1 
C 15 1 14.296875 8.71875 14.296875 14.078125 
C 14.296875 15.0625 14.296875 19.234375 15 20.015625 
C 20.90625 26.0625 39.40625 45 39.40625 62.53125 
C 39.40625 66.5 37.90625 70 33.59375 70 
C 24.296875 70 16.203125 49.546875 14.796875 45.78125 
C 14.40625 44.796875 8.59375 29.53125 9.203125 17.046875 
z
M 15.203125 23.1875 
C 15.296875 23.78125 19.796875 49.75 28.203125 63.625 
C 29.90625 66.296875 31.59375 67.984375 33.59375 67.984375 
C 37 67.984375 37.203125 64.8125 37.203125 62.640625 
C 37.203125 59.171875 36.203125 50.25 27.5 37.765625 
C 24.90625 34.09375 20.90625 29.140625 15.203125 23.1875 
z
" id="CMMI12-96"/>
    </defs>
    <g style="fill:#ff7f0e;" transform="translate(258.509879 95.408874)scale(0.19 -0.19)">
     <use transform="scale(0.996264)" xlink:href="#CMMI12-96"/>
     <use transform="translate(40.934219 -14.943915)scale(0.697382)" xlink:href="#CMR17-49"/>
    </g>
   </g>
   <g id="text_9">
    <!-- $\ell_2$ -->
    <g style="fill:#2ca02c;" transform="translate(391.091591 247.049113)scale(0.19 -0.19)">
     <use transform="scale(0.996264)" xlink:href="#CMMI12-96"/>
     <use transform="translate(40.934219 -14.943915)scale(0.697382)" xlink:href="#CMR17-50"/>
    </g>
   </g>
   <g id="text_10">
    <!-- $\varphi_1$ -->
    <defs>
     <path d="M 30.09375 4.390625 
C 28.40625 4.390625 26.90625 4.390625 26.90625 4.890625 
C 26.90625 5.09375 28.59375 14.46875 29.203125 16.65625 
C 32.40625 29.421875 40 38.59375 48.703125 38.59375 
C 55.203125 38.59375 58.203125 33.703125 58.203125 28.21875 
C 58.203125 16.859375 45.40625 4.390625 30.09375 4.390625 
z
M 25.796875 -0.8125 
C 26.40625 -0.90625 27.40625 -1 29.203125 -1 
C 45.59375 -1 60.703125 14.765625 60.703125 30.515625 
C 60.703125 36.59375 58 44 49.59375 44 
C 35.203125 44 29.09375 23.734375 23.5 4.984375 
C 12 7.1875 7.203125 13.265625 7.203125 19.953125 
C 7.203125 22.640625 9.296875 33.3125 15.09375 40.5 
C 16.203125 41.796875 16.203125 41.984375 16.203125 42.1875 
C 16.203125 43 15.40625 43 15.203125 43 
C 12.5 43 4.90625 28.421875 4.90625 18.953125 
C 4.90625 7.78125 13.703125 1.6875 21.796875 -0.109375 
L 16.59375 -17.359375 
C 16.09375 -18.890625 16.09375 -19.09375 16.09375 -19.5 
C 16.09375 -21.90625 18.5 -22 18.703125 -22 
C 19.703125 -22 21.5 -21.609375 22.296875 -19.59375 
C 22.59375 -18.6875 25.40625 -2.84375 25.796875 -0.8125 
z
" id="CMMI12-39"/>
    </defs>
    <g style="fill:#ff7f0e;" transform="translate(204.604796 113.298173)scale(0.19 -0.19)">
     <use transform="scale(0.996264)" xlink:href="#CMMI12-39"/>
     <use transform="translate(63.903064 -14.943915)scale(0.697382)" xlink:href="#CMR17-49"/>
    </g>
   </g>
   <g id="text_11">
    <!-- $\varphi_2$ -->
    <g style="fill:#2ca02c;" transform="translate(332.253469 222.205375)scale(0.19 -0.19)">
     <use transform="scale(0.996264)" xlink:href="#CMMI12-39"/>
     <use transform="translate(63.903064 -14.943915)scale(0.697382)" xlink:href="#CMR17-50"/>
    </g>
   </g>
  </g>
 </g>
 <defs>
  <clipPath id="pa28cd09636">
   <rect height="353.99952" width="569.99952" x="7.2" y="7.2"/>
  </clipPath>
 </defs>
</svg>
