<?xml version="1.0" encoding="utf-8" standalone="no"?>
<!DOCTYPE svg PUBLIC "-//W3C//DTD SVG 1.1//EN"
  "http://www.w3.org/Graphics/SVG/1.1/DTD/svg11.dtd">
<svg xmlns:xlink="http://www.w3.org/1999/xlink" width="1000.8pt" height="496.8pt" viewBox="0 0 1000.8 496.8" xmlns="http://www.w3.org/2000/svg" version="1.1">
 <metadata>
  <rdf:RDF xmlns:dc="http://purl.org/dc/elements/1.1/" xmlns:cc="http://creativecommons.org/ns#" xmlns:rdf="http://www.w3.org/1999/02/22-rdf-syntax-ns#">
   <cc:Work>
    <dc:type rdf:resource="http://purl.org/dc/dcmitype/StillImage"/>
    <dc:date>2022-05-20T14:53:52.539925</dc:date>
    <dc:format>image/svg+xml</dc:format>
    <dc:creator>
     <cc:Agent>
      <dc:title>Matplotlib v3.5.0, https://matplotlib.org/</dc:title>
     </cc:Agent>
    </dc:creator>
   </cc:Work>
  </rdf:RDF>
 </metadata>
 <defs>
  <style type="text/css">*{stroke-linejoin: round; stroke-linecap: butt}</style>
 </defs>
 <g id="figure_1">
  <g id="patch_1">
   <path d="M 0 496.8 
L 1000.8 496.8 
L 1000.8 0 
L 0 0 
z
" style="fill: #ffffff"/>
  </g>
  <g id="axes_1">
   <g id="patch_2">
    <path d="M 36.892749 464.486285 
L 462.948445 464.486285 
L 462.948445 7.2 
L 36.892749 7.2 
z
" style="fill: #ffffff"/>
   </g>
   <g id="matplotlib.axis_1">
    <g id="xtick_1">
     <g id="line2d_1">
      <path d="M 88.731669 464.486285 
L 88.731669 7.2 
" clip-path="url(#p672d35665b)" style="fill: none; stroke-dasharray: 0.8,1.32; stroke-dashoffset: 0; stroke: #b0b0b0; stroke-width: 0.8"/>
     </g>
     <g id="line2d_2">
      <defs>
       <path id="m668f230cfb" d="M 0 0 
L 0 3.5 
" style="stroke: #000000; stroke-width: 0.8"/>
      </defs>
      <g>
       <use xlink:href="#m668f230cfb" x="88.731669" y="464.486285" style="stroke: #000000; stroke-width: 0.8"/>
      </g>
     </g>
     <g id="text_1">
      <!-- $\mathdefault{−75}$ -->
      <g transform="translate(79.875962 477.574569)scale(0.1 -0.1)">
       <defs>
        <path id="CMSY10-0" d="M 4218 1472 
C 4326 1472 4442 1472 4442 1600 
C 4442 1728 4326 1728 4218 1728 
L 755 1728 
C 646 1728 531 1728 531 1600 
C 531 1472 646 1472 755 1472 
L 4218 1472 
z
" transform="scale(0.015625)"/>
        <path id="CMR17-37" d="M 2886 3955 
L 2886 4096 
L 1382 4096 
C 634 4096 621 4166 595 4288 
L 480 4288 
L 294 3104 
L 410 3104 
C 429 3226 474 3552 550 3673 
C 589 3724 1062 3724 1171 3724 
L 2579 3724 
L 1869 2670 
C 1395 1961 1069 1003 1069 166 
C 1069 89 1069 -128 1299 -128 
C 1530 -128 1530 89 1530 172 
L 1530 466 
C 1530 1514 1709 2204 2003 2644 
L 2886 3955 
z
" transform="scale(0.015625)"/>
        <path id="CMR17-35" d="M 730 3750 
C 794 3724 1056 3641 1325 3641 
C 1920 3641 2246 3961 2432 4140 
C 2432 4191 2432 4224 2394 4224 
C 2387 4224 2374 4224 2323 4198 
C 2099 4102 1837 4032 1517 4032 
C 1325 4032 1037 4055 723 4191 
C 653 4224 640 4224 634 4224 
C 602 4224 595 4217 595 4090 
L 595 2231 
C 595 2113 595 2080 659 2080 
C 691 2080 704 2093 736 2139 
C 941 2435 1222 2560 1542 2560 
C 1766 2560 2246 2415 2246 1293 
C 2246 1087 2246 716 2054 422 
C 1894 159 1645 25 1370 25 
C 947 25 518 319 403 812 
C 429 806 480 793 506 793 
C 589 793 749 838 749 1036 
C 749 1209 627 1280 506 1280 
C 358 1280 262 1190 262 1011 
C 262 454 704 -128 1382 -128 
C 2042 -128 2669 441 2669 1267 
C 2669 2054 2170 2662 1549 2662 
C 1222 2662 947 2540 730 2304 
L 730 3750 
z
" transform="scale(0.015625)"/>
       </defs>
       <use xlink:href="#CMSY10-0" transform="scale(0.996264)"/>
       <use xlink:href="#CMR17-37" transform="translate(77.487468 0)scale(0.996264)"/>
       <use xlink:href="#CMR17-35" transform="translate(123.177945 0)scale(0.996264)"/>
      </g>
     </g>
    </g>
    <g id="xtick_2">
     <g id="line2d_3">
      <path d="M 142.461312 464.486285 
L 142.461312 7.2 
" clip-path="url(#p672d35665b)" style="fill: none; stroke-dasharray: 0.8,1.32; stroke-dashoffset: 0; stroke: #b0b0b0; stroke-width: 0.8"/>
     </g>
     <g id="line2d_4">
      <g>
       <use xlink:href="#m668f230cfb" x="142.461312" y="464.486285" style="stroke: #000000; stroke-width: 0.8"/>
      </g>
     </g>
     <g id="text_2">
      <!-- $\mathdefault{−50}$ -->
      <g transform="translate(133.605605 477.574569)scale(0.1 -0.1)">
       <defs>
        <path id="CMR17-30" d="M 2688 2038 
C 2688 2430 2682 3099 2413 3613 
C 2176 4063 1798 4224 1466 4224 
C 1158 4224 768 4082 525 3620 
C 269 3137 243 2539 243 2038 
C 243 1671 250 1112 448 623 
C 723 -39 1216 -128 1466 -128 
C 1760 -128 2208 -7 2470 604 
C 2662 1048 2688 1568 2688 2038 
z
M 1466 -26 
C 1056 -26 813 328 723 816 
C 653 1196 653 1749 653 2109 
C 653 2604 653 3015 736 3407 
C 858 3954 1216 4121 1466 4121 
C 1728 4121 2067 3947 2189 3420 
C 2272 3054 2278 2623 2278 2109 
C 2278 1691 2278 1176 2202 797 
C 2067 96 1690 -26 1466 -26 
z
" transform="scale(0.015625)"/>
       </defs>
       <use xlink:href="#CMSY10-0" transform="scale(0.996264)"/>
       <use xlink:href="#CMR17-35" transform="translate(77.487468 0)scale(0.996264)"/>
       <use xlink:href="#CMR17-30" transform="translate(123.177945 0)scale(0.996264)"/>
      </g>
     </g>
    </g>
    <g id="xtick_3">
     <g id="line2d_5">
      <path d="M 196.190955 464.486285 
L 196.190955 7.2 
" clip-path="url(#p672d35665b)" style="fill: none; stroke-dasharray: 0.8,1.32; stroke-dashoffset: 0; stroke: #b0b0b0; stroke-width: 0.8"/>
     </g>
     <g id="line2d_6">
      <g>
       <use xlink:href="#m668f230cfb" x="196.190955" y="464.486285" style="stroke: #000000; stroke-width: 0.8"/>
      </g>
     </g>
     <g id="text_3">
      <!-- $\mathdefault{−25}$ -->
      <g transform="translate(187.335248 477.574569)scale(0.1 -0.1)">
       <defs>
        <path id="CMR17-32" d="M 2669 990 
L 2554 990 
C 2490 537 2438 460 2413 422 
C 2381 371 1920 371 1830 371 
L 602 371 
C 832 620 1280 1073 1824 1596 
C 2214 1966 2669 2400 2669 3033 
C 2669 3788 2067 4224 1395 4224 
C 691 4224 262 3603 262 3027 
C 262 2777 448 2745 525 2745 
C 589 2745 781 2783 781 3007 
C 781 3206 614 3264 525 3264 
C 486 3264 448 3257 422 3244 
C 544 3788 915 4057 1306 4057 
C 1862 4057 2227 3616 2227 3033 
C 2227 2477 1901 1998 1536 1583 
L 262 147 
L 262 0 
L 2515 0 
L 2669 990 
z
" transform="scale(0.015625)"/>
       </defs>
       <use xlink:href="#CMSY10-0" transform="scale(0.996264)"/>
       <use xlink:href="#CMR17-32" transform="translate(77.487468 0)scale(0.996264)"/>
       <use xlink:href="#CMR17-35" transform="translate(123.177945 0)scale(0.996264)"/>
      </g>
     </g>
    </g>
    <g id="xtick_4">
     <g id="line2d_7">
      <path d="M 249.920597 464.486285 
L 249.920597 7.2 
" clip-path="url(#p672d35665b)" style="fill: none; stroke-dasharray: 0.8,1.32; stroke-dashoffset: 0; stroke: #b0b0b0; stroke-width: 0.8"/>
     </g>
     <g id="line2d_8">
      <g>
       <use xlink:href="#m668f230cfb" x="249.920597" y="464.486285" style="stroke: #000000; stroke-width: 0.8"/>
      </g>
     </g>
     <g id="text_4">
      <!-- $\mathdefault{0}$ -->
      <g transform="translate(247.42993 477.574569)scale(0.1 -0.1)">
       <use xlink:href="#CMR17-30" transform="scale(0.996264)"/>
      </g>
     </g>
    </g>
    <g id="xtick_5">
     <g id="line2d_9">
      <path d="M 303.65024 464.486285 
L 303.65024 7.2 
" clip-path="url(#p672d35665b)" style="fill: none; stroke-dasharray: 0.8,1.32; stroke-dashoffset: 0; stroke: #b0b0b0; stroke-width: 0.8"/>
     </g>
     <g id="line2d_10">
      <g>
       <use xlink:href="#m668f230cfb" x="303.65024" y="464.486285" style="stroke: #000000; stroke-width: 0.8"/>
      </g>
     </g>
     <g id="text_5">
      <!-- $\mathdefault{25}$ -->
      <g transform="translate(298.668905 477.574569)scale(0.1 -0.1)">
       <use xlink:href="#CMR17-32" transform="scale(0.996264)"/>
       <use xlink:href="#CMR17-35" transform="translate(45.690477 0)scale(0.996264)"/>
      </g>
     </g>
    </g>
    <g id="xtick_6">
     <g id="line2d_11">
      <path d="M 357.379883 464.486285 
L 357.379883 7.2 
" clip-path="url(#p672d35665b)" style="fill: none; stroke-dasharray: 0.8,1.32; stroke-dashoffset: 0; stroke: #b0b0b0; stroke-width: 0.8"/>
     </g>
     <g id="line2d_12">
      <g>
       <use xlink:href="#m668f230cfb" x="357.379883" y="464.486285" style="stroke: #000000; stroke-width: 0.8"/>
      </g>
     </g>
     <g id="text_6">
      <!-- $\mathdefault{50}$ -->
      <g transform="translate(352.398548 477.574569)scale(0.1 -0.1)">
       <use xlink:href="#CMR17-35" transform="scale(0.996264)"/>
       <use xlink:href="#CMR17-30" transform="translate(45.690477 0)scale(0.996264)"/>
      </g>
     </g>
    </g>
    <g id="xtick_7">
     <g id="line2d_13">
      <path d="M 411.109525 464.486285 
L 411.109525 7.2 
" clip-path="url(#p672d35665b)" style="fill: none; stroke-dasharray: 0.8,1.32; stroke-dashoffset: 0; stroke: #b0b0b0; stroke-width: 0.8"/>
     </g>
     <g id="line2d_14">
      <g>
       <use xlink:href="#m668f230cfb" x="411.109525" y="464.486285" style="stroke: #000000; stroke-width: 0.8"/>
      </g>
     </g>
     <g id="text_7">
      <!-- $\mathdefault{75}$ -->
      <g transform="translate(406.12819 477.574569)scale(0.1 -0.1)">
       <use xlink:href="#CMR17-37" transform="scale(0.996264)"/>
       <use xlink:href="#CMR17-35" transform="translate(45.690477 0)scale(0.996264)"/>
      </g>
     </g>
    </g>
   </g>
   <g id="matplotlib.axis_2">
    <g id="ytick_1">
     <g id="line2d_15">
      <path d="M 36.892749 450.761713 
L 462.948445 450.761713 
" clip-path="url(#p672d35665b)" style="fill: none; stroke-dasharray: 0.8,1.32; stroke-dashoffset: 0; stroke: #b0b0b0; stroke-width: 0.8"/>
     </g>
     <g id="line2d_16">
      <defs>
       <path id="m90c67d28d8" d="M 0 0 
L -3.5 0 
" style="stroke: #000000; stroke-width: 0.8"/>
      </defs>
      <g>
       <use xlink:href="#m90c67d28d8" x="36.892749" y="450.761713" style="stroke: #000000; stroke-width: 0.8"/>
      </g>
     </g>
     <g id="text_8">
      <!-- $\mathdefault{−100}$ -->
      <g transform="translate(7.2 453.805855)scale(0.1 -0.1)">
       <defs>
        <path id="CMR17-31" d="M 1702 4083 
C 1702 4217 1696 4224 1606 4224 
C 1357 3927 979 3833 621 3820 
C 602 3820 570 3820 563 3808 
C 557 3795 557 3782 557 3648 
C 755 3648 1088 3686 1344 3839 
L 1344 467 
C 1344 243 1331 166 781 166 
L 589 166 
L 589 0 
C 896 6 1216 12 1523 12 
C 1830 12 2150 6 2458 0 
L 2458 166 
L 2266 166 
C 1715 166 1702 236 1702 467 
L 1702 4083 
z
" transform="scale(0.015625)"/>
       </defs>
       <use xlink:href="#CMSY10-0" transform="scale(0.996264)"/>
       <use xlink:href="#CMR17-31" transform="translate(77.487468 0)scale(0.996264)"/>
       <use xlink:href="#CMR17-30" transform="translate(123.177945 0)scale(0.996264)"/>
       <use xlink:href="#CMR17-30" transform="translate(168.868422 0)scale(0.996264)"/>
      </g>
     </g>
    </g>
    <g id="ytick_2">
     <g id="line2d_17">
      <path d="M 36.892749 397.032071 
L 462.948445 397.032071 
" clip-path="url(#p672d35665b)" style="fill: none; stroke-dasharray: 0.8,1.32; stroke-dashoffset: 0; stroke: #b0b0b0; stroke-width: 0.8"/>
     </g>
     <g id="line2d_18">
      <g>
       <use xlink:href="#m90c67d28d8" x="36.892749" y="397.032071" style="stroke: #000000; stroke-width: 0.8"/>
      </g>
     </g>
     <g id="text_9">
      <!-- $\mathdefault{−75}$ -->
      <g transform="translate(12.181335 400.076212)scale(0.1 -0.1)">
       <use xlink:href="#CMSY10-0" transform="scale(0.996264)"/>
       <use xlink:href="#CMR17-37" transform="translate(77.487468 0)scale(0.996264)"/>
       <use xlink:href="#CMR17-35" transform="translate(123.177945 0)scale(0.996264)"/>
      </g>
     </g>
    </g>
    <g id="ytick_3">
     <g id="line2d_19">
      <path d="M 36.892749 343.302428 
L 462.948445 343.302428 
" clip-path="url(#p672d35665b)" style="fill: none; stroke-dasharray: 0.8,1.32; stroke-dashoffset: 0; stroke: #b0b0b0; stroke-width: 0.8"/>
     </g>
     <g id="line2d_20">
      <g>
       <use xlink:href="#m90c67d28d8" x="36.892749" y="343.302428" style="stroke: #000000; stroke-width: 0.8"/>
      </g>
     </g>
     <g id="text_10">
      <!-- $\mathdefault{−50}$ -->
      <g transform="translate(12.181335 346.34657)scale(0.1 -0.1)">
       <use xlink:href="#CMSY10-0" transform="scale(0.996264)"/>
       <use xlink:href="#CMR17-35" transform="translate(77.487468 0)scale(0.996264)"/>
       <use xlink:href="#CMR17-30" transform="translate(123.177945 0)scale(0.996264)"/>
      </g>
     </g>
    </g>
    <g id="ytick_4">
     <g id="line2d_21">
      <path d="M 36.892749 289.572785 
L 462.948445 289.572785 
" clip-path="url(#p672d35665b)" style="fill: none; stroke-dasharray: 0.8,1.32; stroke-dashoffset: 0; stroke: #b0b0b0; stroke-width: 0.8"/>
     </g>
     <g id="line2d_22">
      <g>
       <use xlink:href="#m90c67d28d8" x="36.892749" y="289.572785" style="stroke: #000000; stroke-width: 0.8"/>
      </g>
     </g>
     <g id="text_11">
      <!-- $\mathdefault{−25}$ -->
      <g transform="translate(12.181335 292.616927)scale(0.1 -0.1)">
       <use xlink:href="#CMSY10-0" transform="scale(0.996264)"/>
       <use xlink:href="#CMR17-32" transform="translate(77.487468 0)scale(0.996264)"/>
       <use xlink:href="#CMR17-35" transform="translate(123.177945 0)scale(0.996264)"/>
      </g>
     </g>
    </g>
    <g id="ytick_5">
     <g id="line2d_23">
      <path d="M 36.892749 235.843143 
L 462.948445 235.843143 
" clip-path="url(#p672d35665b)" style="fill: none; stroke-dasharray: 0.8,1.32; stroke-dashoffset: 0; stroke: #b0b0b0; stroke-width: 0.8"/>
     </g>
     <g id="line2d_24">
      <g>
       <use xlink:href="#m90c67d28d8" x="36.892749" y="235.843143" style="stroke: #000000; stroke-width: 0.8"/>
      </g>
     </g>
     <g id="text_12">
      <!-- $\mathdefault{0}$ -->
      <g transform="translate(24.911414 238.887284)scale(0.1 -0.1)">
       <use xlink:href="#CMR17-30" transform="scale(0.996264)"/>
      </g>
     </g>
    </g>
    <g id="ytick_6">
     <g id="line2d_25">
      <path d="M 36.892749 182.1135 
L 462.948445 182.1135 
" clip-path="url(#p672d35665b)" style="fill: none; stroke-dasharray: 0.8,1.32; stroke-dashoffset: 0; stroke: #b0b0b0; stroke-width: 0.8"/>
     </g>
     <g id="line2d_26">
      <g>
       <use xlink:href="#m90c67d28d8" x="36.892749" y="182.1135" style="stroke: #000000; stroke-width: 0.8"/>
      </g>
     </g>
     <g id="text_13">
      <!-- $\mathdefault{25}$ -->
      <g transform="translate(19.930079 185.157642)scale(0.1 -0.1)">
       <use xlink:href="#CMR17-32" transform="scale(0.996264)"/>
       <use xlink:href="#CMR17-35" transform="translate(45.690477 0)scale(0.996264)"/>
      </g>
     </g>
    </g>
    <g id="ytick_7">
     <g id="line2d_27">
      <path d="M 36.892749 128.383857 
L 462.948445 128.383857 
" clip-path="url(#p672d35665b)" style="fill: none; stroke-dasharray: 0.8,1.32; stroke-dashoffset: 0; stroke: #b0b0b0; stroke-width: 0.8"/>
     </g>
     <g id="line2d_28">
      <g>
       <use xlink:href="#m90c67d28d8" x="36.892749" y="128.383857" style="stroke: #000000; stroke-width: 0.8"/>
      </g>
     </g>
     <g id="text_14">
      <!-- $\mathdefault{50}$ -->
      <g transform="translate(19.930079 131.427999)scale(0.1 -0.1)">
       <use xlink:href="#CMR17-35" transform="scale(0.996264)"/>
       <use xlink:href="#CMR17-30" transform="translate(45.690477 0)scale(0.996264)"/>
      </g>
     </g>
    </g>
    <g id="ytick_8">
     <g id="line2d_29">
      <path d="M 36.892749 74.654215 
L 462.948445 74.654215 
" clip-path="url(#p672d35665b)" style="fill: none; stroke-dasharray: 0.8,1.32; stroke-dashoffset: 0; stroke: #b0b0b0; stroke-width: 0.8"/>
     </g>
     <g id="line2d_30">
      <g>
       <use xlink:href="#m90c67d28d8" x="36.892749" y="74.654215" style="stroke: #000000; stroke-width: 0.8"/>
      </g>
     </g>
     <g id="text_15">
      <!-- $\mathdefault{75}$ -->
      <g transform="translate(19.930079 77.698356)scale(0.1 -0.1)">
       <use xlink:href="#CMR17-37" transform="scale(0.996264)"/>
       <use xlink:href="#CMR17-35" transform="translate(45.690477 0)scale(0.996264)"/>
      </g>
     </g>
    </g>
    <g id="ytick_9">
     <g id="line2d_31">
      <path d="M 36.892749 20.924572 
L 462.948445 20.924572 
" clip-path="url(#p672d35665b)" style="fill: none; stroke-dasharray: 0.8,1.32; stroke-dashoffset: 0; stroke: #b0b0b0; stroke-width: 0.8"/>
     </g>
     <g id="line2d_32">
      <g>
       <use xlink:href="#m90c67d28d8" x="36.892749" y="20.924572" style="stroke: #000000; stroke-width: 0.8"/>
      </g>
     </g>
     <g id="text_16">
      <!-- $\mathdefault{100}$ -->
      <g transform="translate(14.948744 23.968714)scale(0.1 -0.1)">
       <use xlink:href="#CMR17-31" transform="scale(0.996264)"/>
       <use xlink:href="#CMR17-30" transform="translate(45.690477 0)scale(0.996264)"/>
       <use xlink:href="#CMR17-30" transform="translate(91.380954 0)scale(0.996264)"/>
      </g>
     </g>
    </g>
   </g>
   <g id="line2d_33">
    <path d="M 249.920597 235.843143 
L 312.155992 59.38787 
" clip-path="url(#p672d35665b)" style="fill: none; stroke: #ff7f0e; stroke-width: 2; stroke-linecap: square"/>
    <defs>
     <path id="m919eafb45c" d="M 0 3 
C 0.795609 3 1.55874 2.683901 2.12132 2.12132 
C 2.683901 1.55874 3 0.795609 3 0 
C 3 -0.795609 2.683901 -1.55874 2.12132 -2.12132 
C 1.55874 -2.683901 0.795609 -3 0 -3 
C -0.795609 -3 -1.55874 -2.683901 -2.12132 -2.12132 
C -2.683901 -1.55874 -3 -0.795609 -3 0 
C -3 0.795609 -2.683901 1.55874 -2.12132 2.12132 
C -1.55874 2.683901 -0.795609 3 0 3 
z
" style="stroke: #ff7f0e"/>
    </defs>
    <g clip-path="url(#p672d35665b)">
     <use xlink:href="#m919eafb45c" x="249.920597" y="235.843143" style="fill: #ff7f0e; stroke: #ff7f0e"/>
     <use xlink:href="#m919eafb45c" x="312.155992" y="59.38787" style="fill: #ff7f0e; stroke: #ff7f0e"/>
    </g>
   </g>
   <g id="line2d_34">
    <path d="M 249.920597 447.496617 
L 250.032687 439.151641 
L 250.827835 397.658228 
L 252.699797 311.460693 
L 256.043903 168.934834 
L 258.077439 79.095598 
L 258.55737 49.924413 
L 258.606802 35.49914 
L 258.446869 28.888067 
L 258.163839 25.633683 
L 257.868042 24.514078 
L 257.672105 24.333674 
L 257.464129 24.481796 
L 257.243583 24.980878 
L 256.925694 26.318738 
L 256.474246 29.502551 
L 255.931605 35.169963 
L 255.097424 46.785706 
L 253.76114 69.519323 
L 251.612762 110.510227 
L 245.873884 225.959998 
L 239.157794 359.253937 
L 235.023268 437.128765 
L 234.443211 446.929512 
L 234.810308 442.605686 
L 237.827719 409.746546 
L 245.602346 327.725909 
L 257.595321 203.733759 
L 269.449561 80.84356 
L 272.094283 51.483774 
L 273.220677 36.905322 
L 273.557876 30.189692 
L 273.522371 26.855287 
L 273.314309 25.68112 
L 273.134655 25.469495 
L 272.918932 25.584762 
L 272.665235 26.046783 
L 272.254842 27.323854 
L 271.579503 30.403523 
L 270.634878 35.922745 
L 268.971902 47.286147 
L 266.00505 69.610733 
L 260.901504 110.006544 
L 246.776255 224.33943 
L 230.279889 357.15624 
L 220.36489 435.287029 
L 219.045716 445.230763 
L 219.711907 441.063207 
L 225.052327 408.949204 
L 238.701613 328.304409 
L 259.69464 205.701015 
L 280.607779 83.417853 
L 285.868007 51.38082 
L 287.874128 37.939318 
L 288.598506 31.837349 
L 288.744335 28.859774 
L 288.590146 27.859997 
L 288.410738 27.727533 
L 288.171365 27.91926 
L 287.747661 28.742382 
L 287.168632 30.409183 
L 286.127578 34.210083 
L 284.569539 40.793328 
L 281.716962 53.944702 
L 276.562377 78.964316 
L 266.475348 129.264247 
L 212.507437 399.806017 
L 203.807244 442.408009 
L 204.933466 437.666889 
L 213.185909 403.692714 
L 233.46479 321.178075 
L 265.607754 191.444525 
L 292.594001 82.293738 
L 299.17124 54.902927 
L 302.206078 41.46148 
L 303.404914 35.327268 
L 303.788177 32.306666 
L 303.719428 31.265595 
L 303.556439 31.104087 
L 303.310005 31.261077 
L 302.836812 32.023875 
L 302.149588 33.60614 
L 300.854071 37.250982 
L 298.847381 43.6005 
L 295.086567 56.337382 
L 288.182937 80.655936 
L 274.533528 129.726562 
L 199.715057 399.760084 
L 188.806505 438.478828 
L 190.24434 433.954837 
L 202.000235 397.477251 
L 229.244685 313.676135 
L 270.978565 186.093372 
L 303.492937 86.506783 
L 312.155992 59.38787 
L 312.155992 59.38787 
" clip-path="url(#p672d35665b)" style="fill: none; stroke: #808080; stroke-linecap: square"/>
   </g>
   <g id="patch_3">
    <path d="M 36.892749 464.486285 
L 36.892749 7.2 
" style="fill: none; stroke: #000000; stroke-width: 0.8; stroke-linejoin: miter; stroke-linecap: square"/>
   </g>
   <g id="patch_4">
    <path d="M 462.948445 464.486285 
L 462.948445 7.2 
" style="fill: none; stroke: #000000; stroke-width: 0.8; stroke-linejoin: miter; stroke-linecap: square"/>
   </g>
   <g id="patch_5">
    <path d="M 36.892749 464.486285 
L 462.948445 464.486285 
" style="fill: none; stroke: #000000; stroke-width: 0.8; stroke-linejoin: miter; stroke-linecap: square"/>
   </g>
   <g id="patch_6">
    <path d="M 36.892749 7.2 
L 462.948445 7.2 
" style="fill: none; stroke: #000000; stroke-width: 0.8; stroke-linejoin: miter; stroke-linecap: square"/>
   </g>
   <g id="text_17">
    <!-- N -->
    <g transform="translate(246.075641 25.491451)scale(0.15 -0.15)">
     <defs>
      <path id="CMTT12-4e" d="M 1197 3686 
C 1120 3904 992 3904 858 3904 
L 442 3904 
C 346 3904 186 3904 186 3718 
C 186 3532 352 3532 442 3532 
L 582 3532 
L 582 371 
L 442 371 
C 352 371 186 371 186 185 
C 186 0 346 0 442 0 
L 1082 0 
C 1171 0 1344 0 1344 185 
C 1344 371 1171 371 1082 371 
L 941 371 
L 941 3462 
L 947 3462 
C 966 3392 1024 3226 1139 2900 
L 2093 217 
C 2170 0 2298 0 2438 0 
C 2630 0 2707 19 2707 262 
L 2707 3532 
L 2848 3532 
C 2938 3532 3104 3532 3104 3718 
C 3104 3904 2944 3904 2848 3904 
L 2208 3904 
C 2118 3904 1946 3904 1946 3718 
C 1946 3532 2118 3532 2208 3532 
L 2349 3532 
L 2349 441 
L 2342 441 
C 2323 511 2266 677 2150 1003 
L 1197 3686 
z
" transform="scale(0.015625)"/>
     </defs>
     <use xlink:href="#CMTT12-4e" transform="scale(0.996264)"/>
    </g>
   </g>
   <g id="text_18">
    <!-- E -->
    <g transform="translate(445.906218 235.843143)scale(0.15 -0.15)">
     <defs>
      <path id="CMTT12-45" d="M 1030 1856 
L 1875 1856 
C 1875 1629 1875 1507 2086 1507 
C 2291 1507 2291 1655 2291 1771 
L 2291 2309 
C 2291 2422 2291 2567 2086 2567 
C 1875 2567 1875 2447 1875 2227 
L 1030 2227 
L 1030 3532 
L 2598 3532 
L 2598 3223 
C 2598 3110 2598 2965 2803 2965 
C 3014 2965 3014 3103 3014 3223 
L 3014 3641 
C 3014 3839 2976 3904 2758 3904 
L 442 3904 
C 352 3904 179 3904 179 3718 
C 179 3532 352 3532 442 3532 
L 614 3532 
L 614 371 
L 442 371 
C 352 371 179 371 179 185 
C 179 0 352 0 442 0 
L 2899 0 
C 3110 0 3155 57 3155 262 
L 3155 784 
C 3155 900 3155 1049 2950 1049 
C 2739 1049 2739 906 2739 784 
L 2739 371 
L 1030 371 
L 1030 1856 
z
" transform="scale(0.015625)"/>
     </defs>
     <use xlink:href="#CMTT12-45" transform="scale(0.996264)"/>
    </g>
   </g>
   <g id="text_19">
    <!-- O -->
    <g transform="translate(41.153306 235.843143)scale(0.15 -0.15)">
     <defs>
      <path id="CMTT12-4f" d="M 2938 1948 
C 2938 3795 2803 3968 1645 3968 
C 486 3968 352 3795 352 1955 
C 352 108 486 -64 1645 -64 
C 2803 -64 2938 108 2938 1948 
z
M 1645 307 
C 1062 307 922 459 851 750 
C 768 1074 768 1644 768 2005 
C 768 2411 768 2861 838 3165 
C 928 3514 1120 3596 1645 3596 
C 2150 3596 2355 3520 2445 3184 
C 2522 2886 2522 2392 2522 2005 
C 2522 1612 2522 1124 2451 782 
C 2381 459 2240 307 1645 307 
z
" transform="scale(0.015625)"/>
     </defs>
     <use xlink:href="#CMTT12-4f" transform="scale(0.996264)"/>
    </g>
   </g>
   <g id="text_20">
    <!-- S -->
    <g transform="translate(249.920597 459.913422)scale(0.15 -0.15)">
     <defs>
      <path id="CMTT12-53" d="M 2797 3724 
C 2797 3827 2797 3968 2618 3968 
C 2483 3968 2470 3916 2394 3647 
C 2080 3923 1715 3968 1491 3968 
C 813 3968 326 3482 326 2924 
C 326 2550 550 2303 589 2265 
C 858 1999 966 1974 1638 1815 
C 2118 1707 2227 1682 2387 1505 
C 2502 1365 2566 1207 2566 1029 
C 2566 687 2291 307 1786 307 
C 1235 307 774 541 742 1099 
C 736 1194 730 1302 538 1302 
C 326 1302 326 1181 326 1055 
L 326 179 
C 326 76 326 -64 506 -64 
C 640 -64 653 -13 730 256 
C 1082 -20 1523 -64 1786 -64 
C 2509 -64 2963 491 2963 1055 
C 2963 1498 2688 1777 2669 1802 
C 2413 2062 2291 2088 1645 2240 
C 1498 2278 1248 2335 1197 2348 
C 934 2443 723 2664 723 2950 
C 723 3286 1043 3596 1485 3596 
C 1965 3596 2291 3343 2374 2804 
C 2394 2683 2406 2601 2586 2601 
C 2797 2601 2797 2715 2797 2842 
L 2797 3724 
z
" transform="scale(0.015625)"/>
     </defs>
     <use xlink:href="#CMTT12-53" transform="scale(0.996264)"/>
    </g>
   </g>
   <g id="text_21">
    <!-- $\Omega = 100 \; tr/j$ -->
    <g transform="translate(58.195534 43.782903)scale(0.14 -0.14)">
     <defs>
      <path id="CMR17-a" d="M 4038 935 
L 3923 935 
C 3866 640 3846 563 3814 461 
C 3782 364 3763 313 3392 313 
L 2874 313 
C 2944 685 3098 961 3366 1390 
C 3699 1935 3974 2377 3974 2909 
C 3974 3775 3155 4480 2138 4480 
C 1094 4480 294 3768 294 2909 
C 294 2377 576 1922 890 1416 
C 1171 961 1325 685 1395 313 
L 877 313 
C 512 313 493 364 461 454 
C 422 557 410 640 346 935 
L 230 935 
L 416 0 
L 1382 0 
C 1517 0 1523 6 1523 102 
C 1523 557 1286 1153 1178 1428 
C 973 1928 781 2416 781 2916 
C 781 3871 1466 4377 2131 4377 
C 2829 4377 3488 3852 3488 2916 
C 3488 2422 3315 1980 3078 1396 
C 2976 1134 2746 550 2746 102 
C 2746 0 2752 0 2886 0 
L 3853 0 
L 4038 935 
z
" transform="scale(0.015625)"/>
      <path id="CMR17-3d" d="M 4115 2048 
C 4211 2048 4307 2048 4307 2156 
C 4307 2272 4198 2272 4090 2272 
L 512 2272 
C 403 2272 294 2272 294 2156 
C 294 2048 390 2048 486 2048 
L 4115 2048 
z
M 4090 927 
C 4198 927 4307 927 4307 1043 
C 4307 1152 4211 1152 4115 1152 
L 486 1152 
C 390 1152 294 1152 294 1043 
C 294 927 403 927 512 927 
L 4090 927 
z
" transform="scale(0.015625)"/>
      <path id="CMMI12-74" d="M 1286 2566 
L 1875 2566 
C 1997 2566 2061 2566 2061 2681 
C 2061 2752 2022 2752 1894 2752 
L 1331 2752 
L 1568 3664 
C 1594 3752 1594 3764 1594 3808 
C 1594 3910 1510 3968 1427 3968 
C 1376 3968 1229 3948 1178 3746 
L 928 2752 
L 326 2752 
C 198 2752 141 2752 141 2630 
C 141 2566 186 2566 307 2566 
L 877 2566 
L 454 881 
C 403 657 384 593 384 510 
C 384 210 595 -64 954 -64 
C 1600 -64 1946 868 1946 913 
C 1946 951 1920 970 1882 970 
C 1869 970 1843 970 1830 944 
C 1824 938 1818 932 1773 830 
C 1638 510 1344 64 973 64 
C 781 64 768 223 768 364 
C 768 370 768 491 787 568 
L 1286 2566 
z
" transform="scale(0.015625)"/>
      <path id="CMMI12-72" d="M 2490 2633 
C 2291 2598 2189 2457 2189 2316 
C 2189 2163 2310 2111 2400 2111 
C 2579 2111 2726 2265 2726 2457 
C 2726 2651 2528 2816 2208 2816 
C 1952 2816 1658 2700 1389 2335 
C 1344 2660 1088 2816 832 2816 
C 582 2816 454 2642 378 2508 
C 269 2278 173 1892 173 1860 
C 173 1834 198 1801 243 1801 
C 294 1801 301 1808 339 1957 
C 435 2342 557 2687 813 2687 
C 966 2687 1011 2604 1011 2419 
C 1011 2278 947 2028 902 1827 
L 723 1130 
C 698 1007 627 716 595 600 
C 550 432 480 128 480 96 
C 480 6 550 -64 646 -64 
C 717 -64 838 -20 877 109 
C 896 160 1133 1136 1171 1285 
C 1203 1427 1242 1562 1274 1705 
C 1299 1795 1325 1898 1344 1982 
C 1363 2040 1536 2355 1696 2495 
C 1773 2566 1939 2687 2202 2687 
C 2304 2687 2406 2674 2490 2633 
z
" transform="scale(0.015625)"/>
      <path id="CMMI12-3d" d="M 2746 4563 
C 2746 4569 2784 4665 2784 4678 
C 2784 4755 2720 4800 2669 4800 
C 2637 4800 2579 4800 2528 4659 
L 384 -1364 
C 384 -1370 346 -1466 346 -1479 
C 346 -1556 410 -1600 461 -1600 
C 499 -1600 557 -1594 602 -1460 
L 2746 4563 
z
" transform="scale(0.015625)"/>
      <path id="CMMI12-6a" d="M 2240 2027 
C 2266 2129 2266 2218 2266 2243 
C 2266 2611 1990 2816 1702 2816 
C 1056 2816 710 1888 710 1843 
C 710 1811 736 1786 774 1786 
C 826 1786 832 1811 864 1875 
C 1120 2491 1440 2687 1683 2687 
C 1818 2687 1888 2617 1888 2395 
C 1888 2243 1869 2180 1843 2065 
L 1235 -327 
C 1114 -797 813 -1152 461 -1152 
C 435 -1152 301 -1152 179 -1089 
C 333 -1057 454 -937 454 -784 
C 454 -683 378 -581 237 -581 
C 70 -581 -83 -721 -83 -911 
C -83 -1172 198 -1280 461 -1280 
C 902 -1280 1485 -956 1645 -321 
L 2240 2027 
z
M 2502 4012 
C 2502 4172 2368 4224 2291 4224 
C 2118 4224 1971 4057 1971 3916 
C 1971 3820 2048 3705 2189 3705 
C 2336 3705 2502 3846 2502 4012 
z
" transform="scale(0.015625)"/>
     </defs>
     <use xlink:href="#CMR17-a" transform="scale(0.996264)"/>
     <use xlink:href="#CMR17-3d" transform="translate(94.183889 0)scale(0.996264)"/>
     <use xlink:href="#CMR17-31" transform="translate(193.572686 0)scale(0.996264)"/>
     <use xlink:href="#CMR17-30" transform="translate(239.263164 0)scale(0.996264)"/>
     <use xlink:href="#CMR17-30" transform="translate(284.953641 0)scale(0.996264)"/>
     <use xlink:href="#CMMI12-74" transform="translate(358.318126 0)scale(0.996264)"/>
     <use xlink:href="#CMMI12-72" transform="translate(393.544457 0)scale(0.996264)"/>
     <use xlink:href="#CMMI12-3d" transform="translate(440.215069 0)scale(0.996264)"/>
     <use xlink:href="#CMMI12-6a" transform="translate(488.989987 0)scale(0.996264)"/>
    </g>
   </g>
   <g id="text_22">
    <!-- $L = 100 \; m$ -->
    <g transform="translate(58.195534 66.647217)scale(0.14 -0.14)">
     <defs>
      <path id="CMMI12-4c" d="M 2349 3860 
C 2406 4102 2426 4166 2989 4166 
C 3162 4166 3206 4166 3206 4287 
C 3206 4352 3136 4352 3110 4352 
C 2982 4352 2835 4339 2707 4339 
L 1850 4339 
C 1728 4339 1587 4352 1466 4352 
C 1414 4352 1344 4352 1344 4230 
C 1344 4166 1402 4166 1498 4166 
C 1888 4166 1888 4115 1888 4045 
C 1888 4032 1888 3994 1862 3898 
L 998 472 
C 941 249 928 185 480 185 
C 358 185 294 185 294 70 
C 294 0 333 0 461 0 
L 3328 0 
C 3469 0 3475 6 3520 121 
L 4013 1478 
C 4026 1510 4038 1548 4038 1567 
C 4038 1605 4006 1631 3974 1631 
C 3968 1631 3936 1631 3923 1605 
C 3910 1599 3910 1586 3859 1465 
C 3654 905 3366 185 2285 185 
L 1670 185 
C 1581 185 1568 185 1530 191 
C 1459 198 1453 211 1453 262 
C 1453 306 1466 344 1478 402 
L 2349 3860 
z
" transform="scale(0.015625)"/>
      <path id="CMMI12-6d" d="M 1318 1870 
C 1331 1909 1491 2228 1728 2432 
C 1894 2585 2112 2687 2362 2687 
C 2618 2687 2707 2496 2707 2241 
C 2707 2202 2707 2075 2630 1775 
L 2470 1117 
C 2419 925 2298 453 2285 383 
C 2259 287 2221 121 2221 95 
C 2221 6 2291 -64 2387 -64 
C 2579 -64 2611 83 2669 313 
L 3053 1838 
C 3066 1890 3398 2687 4102 2687 
C 4358 2687 4448 2496 4448 2241 
C 4448 1883 4198 1187 4058 804 
C 4000 651 3968 568 3968 453 
C 3968 166 4166 -64 4474 -64 
C 5069 -64 5293 874 5293 913 
C 5293 945 5267 970 5229 970 
C 5171 970 5165 951 5133 842 
C 4986 332 4749 64 4493 64 
C 4429 64 4326 70 4326 274 
C 4326 440 4403 645 4429 715 
C 4544 1021 4832 1775 4832 2145 
C 4832 2528 4608 2816 4122 2816 
C 3693 2816 3347 2573 3091 2196 
C 3072 2541 2861 2816 2381 2816 
C 1811 2816 1510 2413 1395 2253 
C 1376 2617 1114 2816 832 2816 
C 646 2816 499 2726 378 2483 
C 262 2253 173 1864 173 1838 
C 173 1813 198 1781 243 1781 
C 294 1781 301 1787 339 1934 
C 435 2311 557 2687 813 2687 
C 960 2687 1011 2585 1011 2394 
C 1011 2253 947 2004 902 1807 
L 723 1117 
C 698 996 627 708 595 593 
C 550 427 480 127 480 95 
C 480 6 550 -64 646 -64 
C 723 -64 813 -26 864 70 
C 877 102 934 325 966 453 
L 1107 1028 
L 1318 1870 
z
" transform="scale(0.015625)"/>
     </defs>
     <use xlink:href="#CMMI12-4c" transform="scale(0.996264)"/>
     <use xlink:href="#CMR17-3d" transform="translate(94.044884 0)scale(0.996264)"/>
     <use xlink:href="#CMR17-31" transform="translate(193.433681 0)scale(0.996264)"/>
     <use xlink:href="#CMR17-30" transform="translate(239.124158 0)scale(0.996264)"/>
     <use xlink:href="#CMR17-30" transform="translate(284.814636 0)scale(0.996264)"/>
     <use xlink:href="#CMMI12-6d" transform="translate(358.179121 0)scale(0.996264)"/>
    </g>
   </g>
   <g id="text_23">
    <!-- $\phi = 80 \; °$ -->
    <g transform="translate(58.195534 89.511531)scale(0.14 -0.14)">
     <defs>
      <path id="CMMI12-1e" d="M 2752 4358 
C 2752 4416 2707 4416 2688 4416 
C 2630 4416 2624 4403 2598 4294 
L 2253 2924 
C 2234 2841 2227 2835 2221 2828 
C 2214 2816 2170 2809 2157 2809 
C 1107 2720 301 1863 301 1071 
C 301 387 832 -32 1498 -71 
C 1446 -266 1402 -467 1350 -662 
C 1261 -995 1210 -1204 1210 -1229 
C 1210 -1242 1210 -1280 1274 -1280 
C 1293 -1280 1318 -1280 1331 -1255 
C 1344 -1242 1382 -1089 1408 -1008 
L 1645 -71 
C 2739 -13 3571 875 3571 1673 
C 3571 2313 3085 2771 2374 2816 
L 2752 4358 
z
M 2336 2688 
C 2758 2662 3181 2428 3181 1806 
C 3181 1090 2675 140 1677 64 
L 2336 2688 
z
M 1530 57 
C 1216 76 691 241 691 938 
C 691 1737 1274 2624 2195 2681 
L 1530 57 
z
" transform="scale(0.015625)"/>
      <path id="CMR17-38" d="M 1741 2289 
C 2144 2494 2554 2803 2554 3298 
C 2554 3884 1990 4224 1472 4224 
C 890 4224 378 3800 378 3215 
C 378 3054 416 2777 666 2533 
C 730 2469 998 2276 1171 2154 
C 883 2006 211 1652 211 945 
C 211 282 838 -128 1459 -128 
C 2144 -128 2720 366 2720 1022 
C 2720 1607 2330 1877 2074 2051 
L 1741 2289 
z
M 902 2855 
C 851 2887 595 3086 595 3388 
C 595 3781 998 4076 1459 4076 
C 1965 4076 2336 3716 2336 3298 
C 2336 2700 1670 2359 1638 2359 
C 1632 2359 1626 2359 1574 2398 
L 902 2855 
z
M 2080 1536 
C 2176 1466 2483 1253 2483 861 
C 2483 385 2010 25 1472 25 
C 890 25 448 443 448 951 
C 448 1459 838 1884 1280 2083 
L 2080 1536 
z
" transform="scale(0.015625)"/>
     </defs>
     <use xlink:href="#CMMI12-1e" transform="scale(0.996264)"/>
     <use xlink:href="#CMR17-3d" transform="translate(85.408189 0)scale(0.996264)"/>
     <use xlink:href="#CMR17-38" transform="translate(184.796986 0)scale(0.996264)"/>
     <use xlink:href="#CMR17-30" transform="translate(230.487463 0)scale(0.996264)"/>
    </g>
   </g>
   <g id="text_24">
    <!-- $\alpha_0 = 80.00 \; °$ -->
    <g transform="translate(356.434521 66.647217)scale(0.14 -0.14)">
     <defs>
      <path id="CMMI12-b" d="M 2963 1615 
C 2963 2234 2611 2816 1933 2816 
C 1094 2816 256 1902 256 996 
C 256 440 602 -64 1254 -64 
C 1651 -64 2125 89 2579 472 
C 2669 115 2867 -64 3142 -64 
C 3488 -64 3661 293 3661 376 
C 3661 434 3616 434 3597 434 
C 3546 434 3539 415 3520 364 
C 3462 204 3315 64 3162 64 
C 2963 64 2963 472 2963 862 
C 3616 1641 3770 2445 3770 2451 
C 3770 2509 3718 2509 3699 2509 
C 3642 2509 3635 2490 3610 2375 
C 3526 2094 3360 1596 2963 1072 
L 2963 1615 
z
M 2560 625 
C 1997 121 1491 64 1267 64 
C 813 64 685 466 685 766 
C 685 1040 826 1692 1024 2043 
C 1286 2490 1645 2687 1933 2687 
C 2554 2687 2554 1877 2554 1340 
C 2554 1181 2547 1015 2547 855 
C 2547 728 2554 696 2560 625 
z
" transform="scale(0.015625)"/>
      <path id="CMMI12-3a" d="M 1178 307 
C 1178 492 1024 620 870 620 
C 685 620 557 467 557 313 
C 557 128 710 0 864 0 
C 1050 0 1178 153 1178 307 
z
" transform="scale(0.015625)"/>
     </defs>
     <use xlink:href="#CMMI12-b" transform="scale(0.996264)"/>
     <use xlink:href="#CMR17-30" transform="translate(62.046728 -14.943915)scale(0.697382)"/>
     <use xlink:href="#CMR17-3d" transform="translate(122.202051 0)scale(0.996264)"/>
     <use xlink:href="#CMR17-38" transform="translate(221.590848 0)scale(0.996264)"/>
     <use xlink:href="#CMR17-30" transform="translate(267.281325 0)scale(0.996264)"/>
     <use xlink:href="#CMMI12-3a" transform="translate(312.971803 0)scale(0.996264)"/>
     <use xlink:href="#CMR17-30" transform="translate(340.06898 0)scale(0.996264)"/>
     <use xlink:href="#CMR17-30" transform="translate(385.759457 0)scale(0.996264)"/>
    </g>
   </g>
   <g id="text_25">
    <!-- $\beta_0 = 0.00 \; °$ -->
    <g transform="translate(356.434521 89.511531)scale(0.14 -0.14)">
     <defs>
      <path id="CMMI12-c" d="M 3622 3739 
C 3622 4131 3296 4544 2714 4544 
C 1888 4544 1363 3510 1197 2830 
L 186 -1152 
C 173 -1204 211 -1216 243 -1216 
C 288 -1216 320 -1210 326 -1178 
L 774 592 
C 838 231 1190 -64 1568 -64 
C 2483 -64 3347 657 3347 1618 
C 3347 1863 3290 2108 3155 2314 
C 3078 2437 2982 2527 2880 2599 
C 3341 2823 3622 3222 3622 3739 
z
M 2509 2605 
C 2406 2571 2304 2560 2182 2560 
C 2093 2560 2010 2553 1894 2588 
C 1958 2627 2054 2639 2189 2639 
C 2304 2639 2419 2627 2509 2605 
z
M 3290 3798 
C 3290 3438 3117 2915 2701 2684 
C 2579 2723 2413 2752 2272 2752 
C 2138 2752 1754 2765 1754 2582 
C 1754 2411 2106 2430 2214 2430 
C 2381 2430 2528 2469 2682 2514 
C 2886 2347 2976 2127 2976 1805 
C 2976 1431 2874 1128 2752 850 
C 2541 373 2042 64 1600 64 
C 1133 64 890 438 890 876 
C 890 934 890 1018 915 1115 
L 1331 2784 
C 1542 3641 2080 4413 2701 4413 
C 3162 4413 3290 4086 3290 3798 
z
" transform="scale(0.015625)"/>
     </defs>
     <use xlink:href="#CMMI12-c" transform="scale(0.996264)"/>
     <use xlink:href="#CMR17-30" transform="translate(55.070737 -14.943915)scale(0.697382)"/>
     <use xlink:href="#CMR17-3d" transform="translate(115.22606 0)scale(0.996264)"/>
     <use xlink:href="#CMR17-30" transform="translate(214.614857 0)scale(0.996264)"/>
     <use xlink:href="#CMMI12-3a" transform="translate(260.305334 0)scale(0.996264)"/>
     <use xlink:href="#CMR17-30" transform="translate(287.402511 0)scale(0.996264)"/>
     <use xlink:href="#CMR17-30" transform="translate(333.092988 0)scale(0.996264)"/>
    </g>
   </g>
   <g id="text_26">
    <!-- $t \;\:\: = 100.00 \; s$ -->
    <g transform="translate(356.434521 43.782903)scale(0.14 -0.14)">
     <defs>
      <path id="CMMI12-73" d="M 1459 1290 
C 1568 1271 1741 1233 1779 1227 
C 1862 1201 2150 1099 2150 793 
C 2150 595 1971 64 1229 64 
C 1094 64 614 83 486 447 
C 742 414 870 614 870 755 
C 870 889 781 960 653 960 
C 512 960 326 851 326 563 
C 326 176 710 -64 1222 -64 
C 2195 -64 2483 665 2483 998 
C 2483 1093 2483 1271 2278 1475 
C 2118 1627 1965 1659 1619 1729 
C 1446 1767 1171 1824 1171 2111 
C 1171 2239 1286 2687 1894 2687 
C 2163 2687 2426 2589 2490 2368 
C 2208 2368 2195 2124 2195 2118 
C 2195 1983 2317 1945 2374 1945 
C 2464 1945 2643 2015 2643 2284 
C 2643 2546 2400 2816 1901 2816 
C 1062 2816 838 2169 838 1907 
C 838 1424 1312 1322 1459 1290 
z
" transform="scale(0.015625)"/>
     </defs>
     <use xlink:href="#CMMI12-74" transform="scale(0.996264)"/>
     <use xlink:href="#CMR17-3d" transform="translate(134.852762 0)scale(0.996264)"/>
     <use xlink:href="#CMR17-31" transform="translate(234.241559 0)scale(0.996264)"/>
     <use xlink:href="#CMR17-30" transform="translate(279.932036 0)scale(0.996264)"/>
     <use xlink:href="#CMR17-30" transform="translate(325.622513 0)scale(0.996264)"/>
     <use xlink:href="#CMMI12-3a" transform="translate(371.31299 0)scale(0.996264)"/>
     <use xlink:href="#CMR17-30" transform="translate(398.410167 0)scale(0.996264)"/>
     <use xlink:href="#CMR17-30" transform="translate(444.100644 0)scale(0.996264)"/>
     <use xlink:href="#CMMI12-73" transform="translate(517.46513 0)scale(0.996264)"/>
    </g>
   </g>
  </g>
  <g id="axes_2">
   <g id="patch_7">
    <path d="M 540.040008 217.886285 
L 742.026371 217.886285 
L 742.026371 7.2 
L 540.040008 7.2 
z
" style="fill: #ffffff"/>
   </g>
   <g id="matplotlib.axis_3">
    <g id="xtick_8">
     <g id="line2d_35">
      <path d="M 547.804858 217.886285 
L 547.804858 7.2 
" clip-path="url(#p32432384ff)" style="fill: none; stroke-dasharray: 0.8,1.32; stroke-dashoffset: 0; stroke: #b0b0b0; stroke-width: 0.8"/>
     </g>
     <g id="line2d_36">
      <g>
       <use xlink:href="#m668f230cfb" x="547.804858" y="217.886285" style="stroke: #000000; stroke-width: 0.8"/>
      </g>
     </g>
     <g id="text_27">
      <!-- $\mathdefault{−100}$ -->
      <g transform="translate(536.458483 230.974569)scale(0.1 -0.1)">
       <use xlink:href="#CMSY10-0" transform="scale(0.996264)"/>
       <use xlink:href="#CMR17-31" transform="translate(77.487468 0)scale(0.996264)"/>
       <use xlink:href="#CMR17-30" transform="translate(123.177945 0)scale(0.996264)"/>
       <use xlink:href="#CMR17-30" transform="translate(168.868422 0)scale(0.996264)"/>
      </g>
     </g>
    </g>
    <g id="xtick_9">
     <g id="line2d_37">
      <path d="M 594.419024 217.886285 
L 594.419024 7.2 
" clip-path="url(#p32432384ff)" style="fill: none; stroke-dasharray: 0.8,1.32; stroke-dashoffset: 0; stroke: #b0b0b0; stroke-width: 0.8"/>
     </g>
     <g id="line2d_38">
      <g>
       <use xlink:href="#m668f230cfb" x="594.419024" y="217.886285" style="stroke: #000000; stroke-width: 0.8"/>
      </g>
     </g>
     <g id="text_28">
      <!-- $\mathdefault{−50}$ -->
      <g transform="translate(585.563317 230.974569)scale(0.1 -0.1)">
       <use xlink:href="#CMSY10-0" transform="scale(0.996264)"/>
       <use xlink:href="#CMR17-35" transform="translate(77.487468 0)scale(0.996264)"/>
       <use xlink:href="#CMR17-30" transform="translate(123.177945 0)scale(0.996264)"/>
      </g>
     </g>
    </g>
    <g id="xtick_10">
     <g id="line2d_39">
      <path d="M 641.033189 217.886285 
L 641.033189 7.2 
" clip-path="url(#p32432384ff)" style="fill: none; stroke-dasharray: 0.8,1.32; stroke-dashoffset: 0; stroke: #b0b0b0; stroke-width: 0.8"/>
     </g>
     <g id="line2d_40">
      <g>
       <use xlink:href="#m668f230cfb" x="641.033189" y="217.886285" style="stroke: #000000; stroke-width: 0.8"/>
      </g>
     </g>
     <g id="text_29">
      <!-- $\mathdefault{0}$ -->
      <g transform="translate(638.542522 230.974569)scale(0.1 -0.1)">
       <use xlink:href="#CMR17-30" transform="scale(0.996264)"/>
      </g>
     </g>
    </g>
    <g id="xtick_11">
     <g id="line2d_41">
      <path d="M 687.647355 217.886285 
L 687.647355 7.2 
" clip-path="url(#p32432384ff)" style="fill: none; stroke-dasharray: 0.8,1.32; stroke-dashoffset: 0; stroke: #b0b0b0; stroke-width: 0.8"/>
     </g>
     <g id="line2d_42">
      <g>
       <use xlink:href="#m668f230cfb" x="687.647355" y="217.886285" style="stroke: #000000; stroke-width: 0.8"/>
      </g>
     </g>
     <g id="text_30">
      <!-- $\mathdefault{50}$ -->
      <g transform="translate(682.66602 230.974569)scale(0.1 -0.1)">
       <use xlink:href="#CMR17-35" transform="scale(0.996264)"/>
       <use xlink:href="#CMR17-30" transform="translate(45.690477 0)scale(0.996264)"/>
      </g>
     </g>
    </g>
    <g id="xtick_12">
     <g id="line2d_43">
      <path d="M 734.26152 217.886285 
L 734.26152 7.2 
" clip-path="url(#p32432384ff)" style="fill: none; stroke-dasharray: 0.8,1.32; stroke-dashoffset: 0; stroke: #b0b0b0; stroke-width: 0.8"/>
     </g>
     <g id="line2d_44">
      <g>
       <use xlink:href="#m668f230cfb" x="734.26152" y="217.886285" style="stroke: #000000; stroke-width: 0.8"/>
      </g>
     </g>
     <g id="text_31">
      <!-- $\mathdefault{100}$ -->
      <g transform="translate(726.789518 230.974569)scale(0.1 -0.1)">
       <use xlink:href="#CMR17-31" transform="scale(0.996264)"/>
       <use xlink:href="#CMR17-30" transform="translate(45.690477 0)scale(0.996264)"/>
       <use xlink:href="#CMR17-30" transform="translate(91.380954 0)scale(0.996264)"/>
      </g>
     </g>
    </g>
   </g>
   <g id="matplotlib.axis_4">
    <g id="ytick_10">
     <g id="line2d_45">
      <path d="M 540.040008 208.889588 
L 742.026371 208.889588 
" clip-path="url(#p32432384ff)" style="fill: none; stroke-dasharray: 0.8,1.32; stroke-dashoffset: 0; stroke: #b0b0b0; stroke-width: 0.8"/>
     </g>
     <g id="line2d_46">
      <g>
       <use xlink:href="#m90c67d28d8" x="540.040008" y="208.889588" style="stroke: #000000; stroke-width: 0.8"/>
      </g>
     </g>
     <g id="text_32">
      <!-- $\mathdefault{0}$ -->
      <g transform="translate(528.058672 211.93373)scale(0.1 -0.1)">
       <use xlink:href="#CMR17-30" transform="scale(0.996264)"/>
      </g>
     </g>
    </g>
    <g id="ytick_11">
     <g id="line2d_47">
      <path d="M 540.040008 162.079662 
L 742.026371 162.079662 
" clip-path="url(#p32432384ff)" style="fill: none; stroke-dasharray: 0.8,1.32; stroke-dashoffset: 0; stroke: #b0b0b0; stroke-width: 0.8"/>
     </g>
     <g id="line2d_48">
      <g>
       <use xlink:href="#m90c67d28d8" x="540.040008" y="162.079662" style="stroke: #000000; stroke-width: 0.8"/>
      </g>
     </g>
     <g id="text_33">
      <!-- $\mathdefault{50}$ -->
      <g transform="translate(523.077337 165.123804)scale(0.1 -0.1)">
       <use xlink:href="#CMR17-35" transform="scale(0.996264)"/>
       <use xlink:href="#CMR17-30" transform="translate(45.690477 0)scale(0.996264)"/>
      </g>
     </g>
    </g>
    <g id="ytick_12">
     <g id="line2d_49">
      <path d="M 540.040008 115.269737 
L 742.026371 115.269737 
" clip-path="url(#p32432384ff)" style="fill: none; stroke-dasharray: 0.8,1.32; stroke-dashoffset: 0; stroke: #b0b0b0; stroke-width: 0.8"/>
     </g>
     <g id="line2d_50">
      <g>
       <use xlink:href="#m90c67d28d8" x="540.040008" y="115.269737" style="stroke: #000000; stroke-width: 0.8"/>
      </g>
     </g>
     <g id="text_34">
      <!-- $\mathdefault{100}$ -->
      <g transform="translate(518.096002 118.313878)scale(0.1 -0.1)">
       <use xlink:href="#CMR17-31" transform="scale(0.996264)"/>
       <use xlink:href="#CMR17-30" transform="translate(45.690477 0)scale(0.996264)"/>
       <use xlink:href="#CMR17-30" transform="translate(91.380954 0)scale(0.996264)"/>
      </g>
     </g>
    </g>
    <g id="ytick_13">
     <g id="line2d_51">
      <path d="M 540.040008 68.459811 
L 742.026371 68.459811 
" clip-path="url(#p32432384ff)" style="fill: none; stroke-dasharray: 0.8,1.32; stroke-dashoffset: 0; stroke: #b0b0b0; stroke-width: 0.8"/>
     </g>
     <g id="line2d_52">
      <g>
       <use xlink:href="#m90c67d28d8" x="540.040008" y="68.459811" style="stroke: #000000; stroke-width: 0.8"/>
      </g>
     </g>
     <g id="text_35">
      <!-- $\mathdefault{150}$ -->
      <g transform="translate(518.096002 71.503953)scale(0.1 -0.1)">
       <use xlink:href="#CMR17-31" transform="scale(0.996264)"/>
       <use xlink:href="#CMR17-35" transform="translate(45.690477 0)scale(0.996264)"/>
       <use xlink:href="#CMR17-30" transform="translate(91.380954 0)scale(0.996264)"/>
      </g>
     </g>
    </g>
    <g id="ytick_14">
     <g id="line2d_53">
      <path d="M 540.040008 21.649885 
L 742.026371 21.649885 
" clip-path="url(#p32432384ff)" style="fill: none; stroke-dasharray: 0.8,1.32; stroke-dashoffset: 0; stroke: #b0b0b0; stroke-width: 0.8"/>
     </g>
     <g id="line2d_54">
      <g>
       <use xlink:href="#m90c67d28d8" x="540.040008" y="21.649885" style="stroke: #000000; stroke-width: 0.8"/>
      </g>
     </g>
     <g id="text_36">
      <!-- $\mathdefault{200}$ -->
      <g transform="translate(518.096002 24.694027)scale(0.1 -0.1)">
       <use xlink:href="#CMR17-32" transform="scale(0.996264)"/>
       <use xlink:href="#CMR17-30" transform="translate(45.690477 0)scale(0.996264)"/>
       <use xlink:href="#CMR17-30" transform="translate(91.380954 0)scale(0.996264)"/>
      </g>
     </g>
    </g>
   </g>
   <g id="line2d_55">
    <path d="M 641.033189 114.333538 
L 668.029935 160.393167 
" clip-path="url(#p32432384ff)" style="fill: none; stroke: #2ca02c; stroke-width: 2; stroke-linecap: square"/>
    <defs>
     <path id="m7ab5a57f83" d="M 0 3 
C 0.795609 3 1.55874 2.683901 2.12132 2.12132 
C 2.683901 1.55874 3 0.795609 3 0 
C 3 -0.795609 2.683901 -1.55874 2.12132 -2.12132 
C 1.55874 -2.683901 0.795609 -3 0 -3 
C -0.795609 -3 -1.55874 -2.683901 -2.12132 -2.12132 
C -2.683901 -1.55874 -3 -0.795609 -3 0 
C -3 0.795609 -2.683901 1.55874 -2.12132 2.12132 
C -1.55874 2.683901 -0.795609 3 0 3 
z
" style="stroke: #2ca02c"/>
    </defs>
    <g clip-path="url(#p32432384ff)">
     <use xlink:href="#m7ab5a57f83" x="641.033189" y="114.333538" style="fill: #2ca02c; stroke: #2ca02c"/>
     <use xlink:href="#m7ab5a57f83" x="668.029935" y="160.393167" style="fill: #2ca02c; stroke: #2ca02c"/>
    </g>
   </g>
   <g id="patch_8">
    <path d="M 540.040008 217.886285 
L 540.040008 7.2 
" style="fill: none; stroke: #000000; stroke-width: 0.8; stroke-linejoin: miter; stroke-linecap: square"/>
   </g>
   <g id="patch_9">
    <path d="M 742.026371 217.886285 
L 742.026371 7.2 
" style="fill: none; stroke: #000000; stroke-width: 0.8; stroke-linejoin: miter; stroke-linecap: square"/>
   </g>
   <g id="patch_10">
    <path d="M 540.040008 217.886285 
L 742.026371 217.886285 
" style="fill: none; stroke: #000000; stroke-width: 0.8; stroke-linejoin: miter; stroke-linecap: square"/>
   </g>
   <g id="patch_11">
    <path d="M 540.040008 7.2 
L 742.026371 7.2 
" style="fill: none; stroke: #000000; stroke-width: 0.8; stroke-linejoin: miter; stroke-linecap: square"/>
   </g>
   <g id="text_37">
    <!-- E -->
    <g transform="translate(727.887325 112.543143)scale(0.15 -0.15)">
     <use xlink:href="#CMTT12-45" transform="scale(0.996264)"/>
    </g>
   </g>
   <g id="text_38">
    <!-- O -->
    <g transform="translate(542.059871 112.543143)scale(0.15 -0.15)">
     <use xlink:href="#CMTT12-4f" transform="scale(0.996264)"/>
    </g>
   </g>
  </g>
  <g id="axes_3">
   <g id="patch_12">
    <path d="M 540.040008 464.486285 
L 742.026371 464.486285 
L 742.026371 253.8 
L 540.040008 253.8 
z
" style="fill: #ffffff"/>
   </g>
   <g id="matplotlib.axis_5">
    <g id="xtick_13">
     <g id="line2d_56">
      <path d="M 547.804858 464.486285 
L 547.804858 253.8 
" clip-path="url(#p3663c6e234)" style="fill: none; stroke-dasharray: 0.8,1.32; stroke-dashoffset: 0; stroke: #b0b0b0; stroke-width: 0.8"/>
     </g>
     <g id="line2d_57">
      <g>
       <use xlink:href="#m668f230cfb" x="547.804858" y="464.486285" style="stroke: #000000; stroke-width: 0.8"/>
      </g>
     </g>
     <g id="text_39">
      <!-- $\mathdefault{−100}$ -->
      <g transform="translate(536.458483 477.574569)scale(0.1 -0.1)">
       <use xlink:href="#CMSY10-0" transform="scale(0.996264)"/>
       <use xlink:href="#CMR17-31" transform="translate(77.487468 0)scale(0.996264)"/>
       <use xlink:href="#CMR17-30" transform="translate(123.177945 0)scale(0.996264)"/>
       <use xlink:href="#CMR17-30" transform="translate(168.868422 0)scale(0.996264)"/>
      </g>
     </g>
    </g>
    <g id="xtick_14">
     <g id="line2d_58">
      <path d="M 594.419024 464.486285 
L 594.419024 253.8 
" clip-path="url(#p3663c6e234)" style="fill: none; stroke-dasharray: 0.8,1.32; stroke-dashoffset: 0; stroke: #b0b0b0; stroke-width: 0.8"/>
     </g>
     <g id="line2d_59">
      <g>
       <use xlink:href="#m668f230cfb" x="594.419024" y="464.486285" style="stroke: #000000; stroke-width: 0.8"/>
      </g>
     </g>
     <g id="text_40">
      <!-- $\mathdefault{−50}$ -->
      <g transform="translate(585.563317 477.574569)scale(0.1 -0.1)">
       <use xlink:href="#CMSY10-0" transform="scale(0.996264)"/>
       <use xlink:href="#CMR17-35" transform="translate(77.487468 0)scale(0.996264)"/>
       <use xlink:href="#CMR17-30" transform="translate(123.177945 0)scale(0.996264)"/>
      </g>
     </g>
    </g>
    <g id="xtick_15">
     <g id="line2d_60">
      <path d="M 641.033189 464.486285 
L 641.033189 253.8 
" clip-path="url(#p3663c6e234)" style="fill: none; stroke-dasharray: 0.8,1.32; stroke-dashoffset: 0; stroke: #b0b0b0; stroke-width: 0.8"/>
     </g>
     <g id="line2d_61">
      <g>
       <use xlink:href="#m668f230cfb" x="641.033189" y="464.486285" style="stroke: #000000; stroke-width: 0.8"/>
      </g>
     </g>
     <g id="text_41">
      <!-- $\mathdefault{0}$ -->
      <g transform="translate(638.542522 477.574569)scale(0.1 -0.1)">
       <use xlink:href="#CMR17-30" transform="scale(0.996264)"/>
      </g>
     </g>
    </g>
    <g id="xtick_16">
     <g id="line2d_62">
      <path d="M 687.647355 464.486285 
L 687.647355 253.8 
" clip-path="url(#p3663c6e234)" style="fill: none; stroke-dasharray: 0.8,1.32; stroke-dashoffset: 0; stroke: #b0b0b0; stroke-width: 0.8"/>
     </g>
     <g id="line2d_63">
      <g>
       <use xlink:href="#m668f230cfb" x="687.647355" y="464.486285" style="stroke: #000000; stroke-width: 0.8"/>
      </g>
     </g>
     <g id="text_42">
      <!-- $\mathdefault{50}$ -->
      <g transform="translate(682.66602 477.574569)scale(0.1 -0.1)">
       <use xlink:href="#CMR17-35" transform="scale(0.996264)"/>
       <use xlink:href="#CMR17-30" transform="translate(45.690477 0)scale(0.996264)"/>
      </g>
     </g>
    </g>
    <g id="xtick_17">
     <g id="line2d_64">
      <path d="M 734.26152 464.486285 
L 734.26152 253.8 
" clip-path="url(#p3663c6e234)" style="fill: none; stroke-dasharray: 0.8,1.32; stroke-dashoffset: 0; stroke: #b0b0b0; stroke-width: 0.8"/>
     </g>
     <g id="line2d_65">
      <g>
       <use xlink:href="#m668f230cfb" x="734.26152" y="464.486285" style="stroke: #000000; stroke-width: 0.8"/>
      </g>
     </g>
     <g id="text_43">
      <!-- $\mathdefault{100}$ -->
      <g transform="translate(726.789518 477.574569)scale(0.1 -0.1)">
       <use xlink:href="#CMR17-31" transform="scale(0.996264)"/>
       <use xlink:href="#CMR17-30" transform="translate(45.690477 0)scale(0.996264)"/>
       <use xlink:href="#CMR17-30" transform="translate(91.380954 0)scale(0.996264)"/>
      </g>
     </g>
    </g>
   </g>
   <g id="matplotlib.axis_6">
    <g id="ytick_15">
     <g id="line2d_66">
      <path d="M 540.040008 455.489588 
L 742.026371 455.489588 
" clip-path="url(#p3663c6e234)" style="fill: none; stroke-dasharray: 0.8,1.32; stroke-dashoffset: 0; stroke: #b0b0b0; stroke-width: 0.8"/>
     </g>
     <g id="line2d_67">
      <g>
       <use xlink:href="#m90c67d28d8" x="540.040008" y="455.489588" style="stroke: #000000; stroke-width: 0.8"/>
      </g>
     </g>
     <g id="text_44">
      <!-- $\mathdefault{0}$ -->
      <g transform="translate(528.058672 458.53373)scale(0.1 -0.1)">
       <use xlink:href="#CMR17-30" transform="scale(0.996264)"/>
      </g>
     </g>
    </g>
    <g id="ytick_16">
     <g id="line2d_68">
      <path d="M 540.040008 408.679662 
L 742.026371 408.679662 
" clip-path="url(#p3663c6e234)" style="fill: none; stroke-dasharray: 0.8,1.32; stroke-dashoffset: 0; stroke: #b0b0b0; stroke-width: 0.8"/>
     </g>
     <g id="line2d_69">
      <g>
       <use xlink:href="#m90c67d28d8" x="540.040008" y="408.679662" style="stroke: #000000; stroke-width: 0.8"/>
      </g>
     </g>
     <g id="text_45">
      <!-- $\mathdefault{50}$ -->
      <g transform="translate(523.077337 411.723804)scale(0.1 -0.1)">
       <use xlink:href="#CMR17-35" transform="scale(0.996264)"/>
       <use xlink:href="#CMR17-30" transform="translate(45.690477 0)scale(0.996264)"/>
      </g>
     </g>
    </g>
    <g id="ytick_17">
     <g id="line2d_70">
      <path d="M 540.040008 361.869737 
L 742.026371 361.869737 
" clip-path="url(#p3663c6e234)" style="fill: none; stroke-dasharray: 0.8,1.32; stroke-dashoffset: 0; stroke: #b0b0b0; stroke-width: 0.8"/>
     </g>
     <g id="line2d_71">
      <g>
       <use xlink:href="#m90c67d28d8" x="540.040008" y="361.869737" style="stroke: #000000; stroke-width: 0.8"/>
      </g>
     </g>
     <g id="text_46">
      <!-- $\mathdefault{100}$ -->
      <g transform="translate(518.096002 364.913878)scale(0.1 -0.1)">
       <use xlink:href="#CMR17-31" transform="scale(0.996264)"/>
       <use xlink:href="#CMR17-30" transform="translate(45.690477 0)scale(0.996264)"/>
       <use xlink:href="#CMR17-30" transform="translate(91.380954 0)scale(0.996264)"/>
      </g>
     </g>
    </g>
    <g id="ytick_18">
     <g id="line2d_72">
      <path d="M 540.040008 315.059811 
L 742.026371 315.059811 
" clip-path="url(#p3663c6e234)" style="fill: none; stroke-dasharray: 0.8,1.32; stroke-dashoffset: 0; stroke: #b0b0b0; stroke-width: 0.8"/>
     </g>
     <g id="line2d_73">
      <g>
       <use xlink:href="#m90c67d28d8" x="540.040008" y="315.059811" style="stroke: #000000; stroke-width: 0.8"/>
      </g>
     </g>
     <g id="text_47">
      <!-- $\mathdefault{150}$ -->
      <g transform="translate(518.096002 318.103953)scale(0.1 -0.1)">
       <use xlink:href="#CMR17-31" transform="scale(0.996264)"/>
       <use xlink:href="#CMR17-35" transform="translate(45.690477 0)scale(0.996264)"/>
       <use xlink:href="#CMR17-30" transform="translate(91.380954 0)scale(0.996264)"/>
      </g>
     </g>
    </g>
    <g id="ytick_19">
     <g id="line2d_74">
      <path d="M 540.040008 268.249885 
L 742.026371 268.249885 
" clip-path="url(#p3663c6e234)" style="fill: none; stroke-dasharray: 0.8,1.32; stroke-dashoffset: 0; stroke: #b0b0b0; stroke-width: 0.8"/>
     </g>
     <g id="line2d_75">
      <g>
       <use xlink:href="#m90c67d28d8" x="540.040008" y="268.249885" style="stroke: #000000; stroke-width: 0.8"/>
      </g>
     </g>
     <g id="text_48">
      <!-- $\mathdefault{200}$ -->
      <g transform="translate(518.096002 271.294027)scale(0.1 -0.1)">
       <use xlink:href="#CMR17-32" transform="scale(0.996264)"/>
       <use xlink:href="#CMR17-30" transform="translate(45.690477 0)scale(0.996264)"/>
       <use xlink:href="#CMR17-30" transform="translate(91.380954 0)scale(0.996264)"/>
      </g>
     </g>
    </g>
   </g>
   <g id="line2d_76">
    <path d="M 641.033189 360.933538 
L 564.489638 406.993167 
" clip-path="url(#p3663c6e234)" style="fill: none; stroke: #2ca02c; stroke-width: 2; stroke-linecap: square"/>
    <g clip-path="url(#p3663c6e234)">
     <use xlink:href="#m7ab5a57f83" x="641.033189" y="360.933538" style="fill: #2ca02c; stroke: #2ca02c"/>
     <use xlink:href="#m7ab5a57f83" x="564.489638" y="406.993167" style="fill: #2ca02c; stroke: #2ca02c"/>
    </g>
   </g>
   <g id="patch_13">
    <path d="M 540.040008 464.486285 
L 540.040008 253.8 
" style="fill: none; stroke: #000000; stroke-width: 0.8; stroke-linejoin: miter; stroke-linecap: square"/>
   </g>
   <g id="patch_14">
    <path d="M 742.026371 464.486285 
L 742.026371 253.8 
" style="fill: none; stroke: #000000; stroke-width: 0.8; stroke-linejoin: miter; stroke-linecap: square"/>
   </g>
   <g id="patch_15">
    <path d="M 540.040008 464.486285 
L 742.026371 464.486285 
" style="fill: none; stroke: #000000; stroke-width: 0.8; stroke-linejoin: miter; stroke-linecap: square"/>
   </g>
   <g id="patch_16">
    <path d="M 540.040008 253.8 
L 742.026371 253.8 
" style="fill: none; stroke: #000000; stroke-width: 0.8; stroke-linejoin: miter; stroke-linecap: square"/>
   </g>
   <g id="text_49">
    <!-- S -->
    <g transform="translate(727.887325 359.143143)scale(0.15 -0.15)">
     <use xlink:href="#CMTT12-53" transform="scale(0.996264)"/>
    </g>
   </g>
   <g id="text_50">
    <!-- N -->
    <g transform="translate(542.059871 359.143143)scale(0.15 -0.15)">
     <use xlink:href="#CMTT12-4e" transform="scale(0.996264)"/>
    </g>
   </g>
  </g>
  <g id="axes_4">
   <g id="patch_17">
    <path d="M 791.613637 217.886285 
L 993.6 217.886285 
L 993.6 7.2 
L 791.613637 7.2 
z
" style="fill: #ffffff"/>
   </g>
   <g id="matplotlib.axis_7">
    <g id="xtick_18">
     <g id="line2d_77">
      <path d="M 820.468832 217.886285 
L 820.468832 7.2 
" clip-path="url(#p06d9116cd3)" style="fill: none; stroke-dasharray: 0.8,1.32; stroke-dashoffset: 0; stroke: #b0b0b0; stroke-width: 0.8"/>
     </g>
     <g id="line2d_78">
      <g>
       <use xlink:href="#m668f230cfb" x="820.468832" y="217.886285" style="stroke: #000000; stroke-width: 0.8"/>
      </g>
     </g>
    </g>
    <g id="xtick_19">
     <g id="line2d_79">
      <path d="M 856.537825 217.886285 
L 856.537825 7.2 
" clip-path="url(#p06d9116cd3)" style="fill: none; stroke-dasharray: 0.8,1.32; stroke-dashoffset: 0; stroke: #b0b0b0; stroke-width: 0.8"/>
     </g>
     <g id="line2d_80">
      <g>
       <use xlink:href="#m668f230cfb" x="856.537825" y="217.886285" style="stroke: #000000; stroke-width: 0.8"/>
      </g>
     </g>
    </g>
    <g id="xtick_20">
     <g id="line2d_81">
      <path d="M 892.606818 217.886285 
L 892.606818 7.2 
" clip-path="url(#p06d9116cd3)" style="fill: none; stroke-dasharray: 0.8,1.32; stroke-dashoffset: 0; stroke: #b0b0b0; stroke-width: 0.8"/>
     </g>
     <g id="line2d_82">
      <g>
       <use xlink:href="#m668f230cfb" x="892.606818" y="217.886285" style="stroke: #000000; stroke-width: 0.8"/>
      </g>
     </g>
    </g>
    <g id="xtick_21">
     <g id="line2d_83">
      <path d="M 928.675812 217.886285 
L 928.675812 7.2 
" clip-path="url(#p06d9116cd3)" style="fill: none; stroke-dasharray: 0.8,1.32; stroke-dashoffset: 0; stroke: #b0b0b0; stroke-width: 0.8"/>
     </g>
     <g id="line2d_84">
      <g>
       <use xlink:href="#m668f230cfb" x="928.675812" y="217.886285" style="stroke: #000000; stroke-width: 0.8"/>
      </g>
     </g>
    </g>
    <g id="xtick_22">
     <g id="line2d_85">
      <path d="M 964.744805 217.886285 
L 964.744805 7.2 
" clip-path="url(#p06d9116cd3)" style="fill: none; stroke-dasharray: 0.8,1.32; stroke-dashoffset: 0; stroke: #b0b0b0; stroke-width: 0.8"/>
     </g>
     <g id="line2d_86">
      <g>
       <use xlink:href="#m668f230cfb" x="964.744805" y="217.886285" style="stroke: #000000; stroke-width: 0.8"/>
      </g>
     </g>
    </g>
    <g id="text_51">
     <!-- $t$ -->
     <g transform="translate(889.612584 239.236343)scale(0.17 -0.17)">
      <use xlink:href="#CMMI12-74" transform="scale(0.996264)"/>
     </g>
    </g>
   </g>
   <g id="matplotlib.axis_8">
    <g id="ytick_20">
     <g id="line2d_87">
      <path d="M 791.613637 211.25532 
L 993.6 211.25532 
" clip-path="url(#p06d9116cd3)" style="fill: none; stroke-dasharray: 0.8,1.32; stroke-dashoffset: 0; stroke: #b0b0b0; stroke-width: 0.8"/>
     </g>
     <g id="line2d_88">
      <g>
       <use xlink:href="#m90c67d28d8" x="791.613637" y="211.25532" style="stroke: #000000; stroke-width: 0.8"/>
      </g>
     </g>
     <g id="text_52">
      <!-- $\mathdefault{0.0}$ -->
      <g transform="translate(771.883558 214.299462)scale(0.1 -0.1)">
       <use xlink:href="#CMR17-30" transform="scale(0.996264)"/>
       <use xlink:href="#CMMI12-3a" transform="translate(45.690477 0)scale(0.996264)"/>
       <use xlink:href="#CMR17-30" transform="translate(72.787654 0)scale(0.996264)"/>
      </g>
     </g>
    </g>
    <g id="ytick_21">
     <g id="line2d_89">
      <path d="M 791.613637 183.398303 
L 993.6 183.398303 
" clip-path="url(#p06d9116cd3)" style="fill: none; stroke-dasharray: 0.8,1.32; stroke-dashoffset: 0; stroke: #b0b0b0; stroke-width: 0.8"/>
     </g>
     <g id="line2d_90">
      <g>
       <use xlink:href="#m90c67d28d8" x="791.613637" y="183.398303" style="stroke: #000000; stroke-width: 0.8"/>
      </g>
     </g>
     <g id="text_53">
      <!-- $\mathdefault{0.2}$ -->
      <g transform="translate(771.883558 186.442444)scale(0.1 -0.1)">
       <use xlink:href="#CMR17-30" transform="scale(0.996264)"/>
       <use xlink:href="#CMMI12-3a" transform="translate(45.690477 0)scale(0.996264)"/>
       <use xlink:href="#CMR17-32" transform="translate(72.787654 0)scale(0.996264)"/>
      </g>
     </g>
    </g>
    <g id="ytick_22">
     <g id="line2d_91">
      <path d="M 791.613637 155.541285 
L 993.6 155.541285 
" clip-path="url(#p06d9116cd3)" style="fill: none; stroke-dasharray: 0.8,1.32; stroke-dashoffset: 0; stroke: #b0b0b0; stroke-width: 0.8"/>
     </g>
     <g id="line2d_92">
      <g>
       <use xlink:href="#m90c67d28d8" x="791.613637" y="155.541285" style="stroke: #000000; stroke-width: 0.8"/>
      </g>
     </g>
     <g id="text_54">
      <!-- $\mathdefault{0.4}$ -->
      <g transform="translate(771.883558 158.585427)scale(0.1 -0.1)">
       <defs>
        <path id="CMR17-34" d="M 2150 4147 
C 2150 4281 2144 4288 2029 4288 
L 128 1254 
L 128 1088 
L 1779 1088 
L 1779 460 
C 1779 230 1766 166 1318 166 
L 1197 166 
L 1197 0 
C 1402 12 1747 12 1965 12 
C 2182 12 2528 12 2733 0 
L 2733 166 
L 2611 166 
C 2163 166 2150 230 2150 460 
L 2150 1088 
L 2803 1088 
L 2803 1254 
L 2150 1254 
L 2150 4147 
z
M 1798 3723 
L 1798 1254 
L 256 1254 
L 1798 3723 
z
" transform="scale(0.015625)"/>
       </defs>
       <use xlink:href="#CMR17-30" transform="scale(0.996264)"/>
       <use xlink:href="#CMMI12-3a" transform="translate(45.690477 0)scale(0.996264)"/>
       <use xlink:href="#CMR17-34" transform="translate(72.787654 0)scale(0.996264)"/>
      </g>
     </g>
    </g>
    <g id="ytick_23">
     <g id="line2d_93">
      <path d="M 791.613637 127.684267 
L 993.6 127.684267 
" clip-path="url(#p06d9116cd3)" style="fill: none; stroke-dasharray: 0.8,1.32; stroke-dashoffset: 0; stroke: #b0b0b0; stroke-width: 0.8"/>
     </g>
     <g id="line2d_94">
      <g>
       <use xlink:href="#m90c67d28d8" x="791.613637" y="127.684267" style="stroke: #000000; stroke-width: 0.8"/>
      </g>
     </g>
     <g id="text_55">
      <!-- $\mathdefault{0.6}$ -->
      <g transform="translate(771.883558 130.728409)scale(0.1 -0.1)">
       <defs>
        <path id="CMR17-36" d="M 678 2198 
C 678 3712 1395 4076 1811 4076 
C 1946 4076 2272 4049 2400 3782 
C 2298 3782 2106 3782 2106 3558 
C 2106 3385 2246 3328 2336 3328 
C 2394 3328 2566 3353 2566 3571 
C 2566 3987 2246 4224 1805 4224 
C 1043 4224 243 3411 243 2011 
C 243 257 966 -128 1478 -128 
C 2099 -128 2688 431 2688 1295 
C 2688 2101 2170 2688 1517 2688 
C 1126 2688 838 2430 678 1979 
L 678 2198 
z
M 1478 25 
C 691 25 691 1212 691 1450 
C 691 1914 909 2585 1504 2585 
C 1613 2585 1926 2585 2138 2140 
C 2253 1889 2253 1624 2253 1302 
C 2253 954 2253 696 2118 438 
C 1978 173 1773 25 1478 25 
z
" transform="scale(0.015625)"/>
       </defs>
       <use xlink:href="#CMR17-30" transform="scale(0.996264)"/>
       <use xlink:href="#CMMI12-3a" transform="translate(45.690477 0)scale(0.996264)"/>
       <use xlink:href="#CMR17-36" transform="translate(72.787654 0)scale(0.996264)"/>
      </g>
     </g>
    </g>
    <g id="ytick_24">
     <g id="line2d_95">
      <path d="M 791.613637 99.82725 
L 993.6 99.82725 
" clip-path="url(#p06d9116cd3)" style="fill: none; stroke-dasharray: 0.8,1.32; stroke-dashoffset: 0; stroke: #b0b0b0; stroke-width: 0.8"/>
     </g>
     <g id="line2d_96">
      <g>
       <use xlink:href="#m90c67d28d8" x="791.613637" y="99.82725" style="stroke: #000000; stroke-width: 0.8"/>
      </g>
     </g>
     <g id="text_56">
      <!-- $\mathdefault{0.8}$ -->
      <g transform="translate(771.883558 102.871391)scale(0.1 -0.1)">
       <use xlink:href="#CMR17-30" transform="scale(0.996264)"/>
       <use xlink:href="#CMMI12-3a" transform="translate(45.690477 0)scale(0.996264)"/>
       <use xlink:href="#CMR17-38" transform="translate(72.787654 0)scale(0.996264)"/>
      </g>
     </g>
    </g>
    <g id="ytick_25">
     <g id="line2d_97">
      <path d="M 791.613637 71.970232 
L 993.6 71.970232 
" clip-path="url(#p06d9116cd3)" style="fill: none; stroke-dasharray: 0.8,1.32; stroke-dashoffset: 0; stroke: #b0b0b0; stroke-width: 0.8"/>
     </g>
     <g id="line2d_98">
      <g>
       <use xlink:href="#m90c67d28d8" x="791.613637" y="71.970232" style="stroke: #000000; stroke-width: 0.8"/>
      </g>
     </g>
     <g id="text_57">
      <!-- $\mathdefault{1.0}$ -->
      <g transform="translate(771.883558 75.014374)scale(0.1 -0.1)">
       <use xlink:href="#CMR17-31" transform="scale(0.996264)"/>
       <use xlink:href="#CMMI12-3a" transform="translate(45.690477 0)scale(0.996264)"/>
       <use xlink:href="#CMR17-30" transform="translate(72.787654 0)scale(0.996264)"/>
      </g>
     </g>
    </g>
    <g id="ytick_26">
     <g id="line2d_99">
      <path d="M 791.613637 44.113215 
L 993.6 44.113215 
" clip-path="url(#p06d9116cd3)" style="fill: none; stroke-dasharray: 0.8,1.32; stroke-dashoffset: 0; stroke: #b0b0b0; stroke-width: 0.8"/>
     </g>
     <g id="line2d_100">
      <g>
       <use xlink:href="#m90c67d28d8" x="791.613637" y="44.113215" style="stroke: #000000; stroke-width: 0.8"/>
      </g>
     </g>
     <g id="text_58">
      <!-- $\mathdefault{1.2}$ -->
      <g transform="translate(771.883558 47.157356)scale(0.1 -0.1)">
       <use xlink:href="#CMR17-31" transform="scale(0.996264)"/>
       <use xlink:href="#CMMI12-3a" transform="translate(45.690477 0)scale(0.996264)"/>
       <use xlink:href="#CMR17-32" transform="translate(72.787654 0)scale(0.996264)"/>
      </g>
     </g>
    </g>
    <g id="ytick_27">
     <g id="line2d_101">
      <path d="M 791.613637 16.256197 
L 993.6 16.256197 
" clip-path="url(#p06d9116cd3)" style="fill: none; stroke-dasharray: 0.8,1.32; stroke-dashoffset: 0; stroke: #b0b0b0; stroke-width: 0.8"/>
     </g>
     <g id="line2d_102">
      <g>
       <use xlink:href="#m90c67d28d8" x="791.613637" y="16.256197" style="stroke: #000000; stroke-width: 0.8"/>
      </g>
     </g>
     <g id="text_59">
      <!-- $\mathdefault{1.4}$ -->
      <g transform="translate(771.883558 19.300339)scale(0.1 -0.1)">
       <use xlink:href="#CMR17-31" transform="scale(0.996264)"/>
       <use xlink:href="#CMMI12-3a" transform="translate(45.690477 0)scale(0.996264)"/>
       <use xlink:href="#CMR17-34" transform="translate(72.787654 0)scale(0.996264)"/>
      </g>
     </g>
    </g>
    <g id="text_60">
     <!-- $\alpha$ -->
     <g transform="translate(764.119901 117.817112)rotate(-90)scale(0.17 -0.17)">
      <use xlink:href="#CMMI12-b" transform="scale(0.996264)"/>
     </g>
    </g>
   </g>
   <g id="line2d_103">
    <path d="M 790.892257 191.950058 
L 796.663296 148.540036 
L 800.270195 123.094777 
L 803.155715 104.157576 
L 806.041234 86.734013 
L 808.205374 74.772983 
L 810.369513 63.831625 
L 812.533653 53.960862 
L 814.697793 45.200941 
L 816.861932 37.582897 
L 818.304692 33.150363 
L 819.747452 29.241119 
L 821.190211 25.859396 
L 822.632971 23.008519 
L 824.075731 20.691047 
L 825.518491 18.908896 
L 826.96125 17.663438 
L 827.68263 17.242269 
L 828.40401 16.95558 
L 829.12539 16.803421 
L 829.84677 16.785818 
L 830.56815 16.902774 
L 831.28953 17.154269 
L 832.010909 17.54026 
L 833.453669 18.715432 
L 834.896429 20.427441 
L 836.339189 22.67498 
L 837.781948 25.456209 
L 839.224708 28.768659 
L 840.667468 32.609114 
L 842.110228 36.973469 
L 843.552987 41.856575 
L 845.717127 50.139587 
L 847.881267 59.547529 
L 850.045406 70.04421 
L 852.209546 81.583368 
L 855.095065 98.488957 
L 857.980585 116.971434 
L 860.866104 136.814984 
L 864.473004 163.130068 
L 870.244042 206.486756 
L 870.965422 207.786837 
L 871.686802 203.242882 
L 882.5075 123.484001 
L 885.39302 104.520009 
L 888.278539 87.065535 
L 890.442679 75.079094 
L 892.606818 64.110764 
L 894.770958 54.211757 
L 896.935098 45.422576 
L 899.099237 37.77448 
L 900.541997 33.321568 
L 901.984757 29.391726 
L 903.427516 25.989229 
L 904.870276 23.117437 
L 906.313036 20.77894 
L 907.755796 18.975679 
L 909.198555 17.70905 
L 909.919935 17.277277 
L 910.641315 16.979976 
L 911.362695 16.817199 
L 912.084075 16.788972 
L 912.805455 16.895301 
L 913.526835 17.136168 
L 914.248214 17.511532 
L 915.690974 18.665458 
L 917.133734 20.356247 
L 918.576494 22.582607 
L 920.019253 25.34272 
L 921.462013 28.634141 
L 922.904773 32.453682 
L 924.347533 36.797273 
L 925.790292 41.659809 
L 927.954432 49.912437 
L 930.118572 59.290745 
L 932.282711 69.758789 
L 934.446851 81.270599 
L 937.33237 98.142317 
L 940.21789 116.594704 
L 943.103409 136.412913 
L 946.710309 162.704601 
L 952.481347 206.132608 
L 953.202727 208.005665 
L 953.924107 203.655206 
L 958.973766 165.397747 
L 963.302046 133.860844 
L 966.187565 114.199654 
L 969.073084 95.933651 
L 971.958604 79.272177 
L 974.122744 67.930576 
L 976.286883 57.641255 
L 978.451023 48.448414 
L 980.615162 40.386465 
L 982.779302 33.481529 
L 984.222062 29.530785 
L 985.664821 26.107262 
L 987.107581 23.214351 
L 988.550341 20.854668 
L 989.993101 19.030174 
L 991.43586 17.742282 
L 992.15724 17.299873 
L 992.87862 16.991933 
L 993.6 16.818517 
L 994.32138 16.779654 
L 994.32138 16.779654 
" clip-path="url(#p06d9116cd3)" style="fill: none; stroke: #1f77b4; stroke-width: 1.5; stroke-linecap: square"/>
   </g>
   <g id="line2d_104">
    <defs>
     <path id="m7ccdda95ba" d="M 0 2.5 
C 0.663008 2.5 1.29895 2.236584 1.767767 1.767767 
C 2.236584 1.29895 2.5 0.663008 2.5 0 
C 2.5 -0.663008 2.236584 -1.29895 1.767767 -1.767767 
C 1.29895 -2.236584 0.663008 -2.5 0 -2.5 
C -0.663008 -2.5 -1.29895 -2.236584 -1.767767 -1.767767 
C -2.236584 -1.29895 -2.5 -0.663008 -2.5 0 
C -2.5 0.663008 -2.236584 1.29895 -1.767767 1.767767 
C -1.29895 2.236584 -0.663008 2.5 0 2.5 
z
" style="stroke: #1f77b4"/>
    </defs>
    <g clip-path="url(#p06d9116cd3)">
     <use xlink:href="#m7ccdda95ba" x="892.606818" y="64.110764" style="fill: #1f77b4; stroke: #1f77b4"/>
    </g>
   </g>
   <g id="patch_18">
    <path d="M 791.613637 217.886285 
L 791.613637 7.2 
" style="fill: none; stroke: #000000; stroke-width: 0.8; stroke-linejoin: miter; stroke-linecap: square"/>
   </g>
   <g id="patch_19">
    <path d="M 993.6 217.886285 
L 993.6 7.2 
" style="fill: none; stroke: #000000; stroke-width: 0.8; stroke-linejoin: miter; stroke-linecap: square"/>
   </g>
   <g id="patch_20">
    <path d="M 791.613637 217.886285 
L 993.6 217.886285 
" style="fill: none; stroke: #000000; stroke-width: 0.8; stroke-linejoin: miter; stroke-linecap: square"/>
   </g>
   <g id="patch_21">
    <path d="M 791.613637 7.2 
L 993.6 7.2 
" style="fill: none; stroke: #000000; stroke-width: 0.8; stroke-linejoin: miter; stroke-linecap: square"/>
   </g>
  </g>
  <g id="axes_5">
   <g id="patch_22">
    <path d="M 791.613637 464.486285 
L 993.6 464.486285 
L 993.6 253.8 
L 791.613637 253.8 
z
" style="fill: #ffffff"/>
   </g>
   <g id="matplotlib.axis_9">
    <g id="xtick_23">
     <g id="line2d_105">
      <path d="M 820.468832 464.486285 
L 820.468832 253.8 
" clip-path="url(#p373bf5a977)" style="fill: none; stroke-dasharray: 0.8,1.32; stroke-dashoffset: 0; stroke: #b0b0b0; stroke-width: 0.8"/>
     </g>
     <g id="line2d_106">
      <g>
       <use xlink:href="#m668f230cfb" x="820.468832" y="464.486285" style="stroke: #000000; stroke-width: 0.8"/>
      </g>
     </g>
    </g>
    <g id="xtick_24">
     <g id="line2d_107">
      <path d="M 856.537825 464.486285 
L 856.537825 253.8 
" clip-path="url(#p373bf5a977)" style="fill: none; stroke-dasharray: 0.8,1.32; stroke-dashoffset: 0; stroke: #b0b0b0; stroke-width: 0.8"/>
     </g>
     <g id="line2d_108">
      <g>
       <use xlink:href="#m668f230cfb" x="856.537825" y="464.486285" style="stroke: #000000; stroke-width: 0.8"/>
      </g>
     </g>
    </g>
    <g id="xtick_25">
     <g id="line2d_109">
      <path d="M 892.606818 464.486285 
L 892.606818 253.8 
" clip-path="url(#p373bf5a977)" style="fill: none; stroke-dasharray: 0.8,1.32; stroke-dashoffset: 0; stroke: #b0b0b0; stroke-width: 0.8"/>
     </g>
     <g id="line2d_110">
      <g>
       <use xlink:href="#m668f230cfb" x="892.606818" y="464.486285" style="stroke: #000000; stroke-width: 0.8"/>
      </g>
     </g>
    </g>
    <g id="xtick_26">
     <g id="line2d_111">
      <path d="M 928.675812 464.486285 
L 928.675812 253.8 
" clip-path="url(#p373bf5a977)" style="fill: none; stroke-dasharray: 0.8,1.32; stroke-dashoffset: 0; stroke: #b0b0b0; stroke-width: 0.8"/>
     </g>
     <g id="line2d_112">
      <g>
       <use xlink:href="#m668f230cfb" x="928.675812" y="464.486285" style="stroke: #000000; stroke-width: 0.8"/>
      </g>
     </g>
    </g>
    <g id="xtick_27">
     <g id="line2d_113">
      <path d="M 964.744805 464.486285 
L 964.744805 253.8 
" clip-path="url(#p373bf5a977)" style="fill: none; stroke-dasharray: 0.8,1.32; stroke-dashoffset: 0; stroke: #b0b0b0; stroke-width: 0.8"/>
     </g>
     <g id="line2d_114">
      <g>
       <use xlink:href="#m668f230cfb" x="964.744805" y="464.486285" style="stroke: #000000; stroke-width: 0.8"/>
      </g>
     </g>
    </g>
    <g id="text_61">
     <!-- $t$ -->
     <g transform="translate(889.612584 485.836343)scale(0.17 -0.17)">
      <use xlink:href="#CMMI12-74" transform="scale(0.996264)"/>
     </g>
    </g>
   </g>
   <g id="matplotlib.axis_10">
    <g id="ytick_28">
     <g id="line2d_115">
      <path d="M 791.613637 454.909636 
L 993.6 454.909636 
" clip-path="url(#p373bf5a977)" style="fill: none; stroke-dasharray: 0.8,1.32; stroke-dashoffset: 0; stroke: #b0b0b0; stroke-width: 0.8"/>
     </g>
     <g id="line2d_116">
      <g>
       <use xlink:href="#m90c67d28d8" x="791.613637" y="454.909636" style="stroke: #000000; stroke-width: 0.8"/>
      </g>
     </g>
     <g id="text_62">
      <!-- $\mathdefault{0}$ -->
      <g transform="translate(779.632302 457.953778)scale(0.1 -0.1)">
       <use xlink:href="#CMR17-30" transform="scale(0.996264)"/>
      </g>
     </g>
    </g>
    <g id="ytick_29">
     <g id="line2d_117">
      <path d="M 791.613637 424.373706 
L 993.6 424.373706 
" clip-path="url(#p373bf5a977)" style="fill: none; stroke-dasharray: 0.8,1.32; stroke-dashoffset: 0; stroke: #b0b0b0; stroke-width: 0.8"/>
     </g>
     <g id="line2d_118">
      <g>
       <use xlink:href="#m90c67d28d8" x="791.613637" y="424.373706" style="stroke: #000000; stroke-width: 0.8"/>
      </g>
     </g>
     <g id="text_63">
      <!-- $\mathdefault{1}$ -->
      <g transform="translate(779.632302 427.417848)scale(0.1 -0.1)">
       <use xlink:href="#CMR17-31" transform="scale(0.996264)"/>
      </g>
     </g>
    </g>
    <g id="ytick_30">
     <g id="line2d_119">
      <path d="M 791.613637 393.837777 
L 993.6 393.837777 
" clip-path="url(#p373bf5a977)" style="fill: none; stroke-dasharray: 0.8,1.32; stroke-dashoffset: 0; stroke: #b0b0b0; stroke-width: 0.8"/>
     </g>
     <g id="line2d_120">
      <g>
       <use xlink:href="#m90c67d28d8" x="791.613637" y="393.837777" style="stroke: #000000; stroke-width: 0.8"/>
      </g>
     </g>
     <g id="text_64">
      <!-- $\mathdefault{2}$ -->
      <g transform="translate(779.632302 396.881918)scale(0.1 -0.1)">
       <use xlink:href="#CMR17-32" transform="scale(0.996264)"/>
      </g>
     </g>
    </g>
    <g id="ytick_31">
     <g id="line2d_121">
      <path d="M 791.613637 363.301847 
L 993.6 363.301847 
" clip-path="url(#p373bf5a977)" style="fill: none; stroke-dasharray: 0.8,1.32; stroke-dashoffset: 0; stroke: #b0b0b0; stroke-width: 0.8"/>
     </g>
     <g id="line2d_122">
      <g>
       <use xlink:href="#m90c67d28d8" x="791.613637" y="363.301847" style="stroke: #000000; stroke-width: 0.8"/>
      </g>
     </g>
     <g id="text_65">
      <!-- $\mathdefault{3}$ -->
      <g transform="translate(779.632302 366.345989)scale(0.1 -0.1)">
       <defs>
        <path id="CMR17-33" d="M 1414 2176 
C 1984 2176 2234 1673 2234 1094 
C 2234 322 1824 25 1453 25 
C 1114 25 563 193 390 691 
C 422 678 454 678 486 678 
C 640 678 755 780 755 947 
C 755 1132 614 1216 486 1216 
C 378 1216 211 1164 211 927 
C 211 335 787 -128 1466 -128 
C 2176 -128 2720 432 2720 1087 
C 2720 1718 2208 2176 1600 2246 
C 2086 2347 2554 2776 2554 3353 
C 2554 3856 2048 4224 1472 4224 
C 890 4224 378 3862 378 3347 
C 378 3123 544 3084 627 3084 
C 762 3084 877 3167 877 3334 
C 877 3500 762 3584 627 3584 
C 602 3584 570 3584 544 3571 
C 730 3999 1235 4076 1459 4076 
C 1683 4076 2106 3966 2106 3347 
C 2106 3167 2080 2851 1862 2574 
C 1670 2329 1453 2316 1242 2297 
C 1210 2297 1062 2284 1037 2284 
C 992 2278 966 2272 966 2227 
C 966 2182 973 2176 1101 2176 
L 1414 2176 
z
" transform="scale(0.015625)"/>
       </defs>
       <use xlink:href="#CMR17-33" transform="scale(0.996264)"/>
      </g>
     </g>
    </g>
    <g id="ytick_32">
     <g id="line2d_123">
      <path d="M 791.613637 332.765917 
L 993.6 332.765917 
" clip-path="url(#p373bf5a977)" style="fill: none; stroke-dasharray: 0.8,1.32; stroke-dashoffset: 0; stroke: #b0b0b0; stroke-width: 0.8"/>
     </g>
     <g id="line2d_124">
      <g>
       <use xlink:href="#m90c67d28d8" x="791.613637" y="332.765917" style="stroke: #000000; stroke-width: 0.8"/>
      </g>
     </g>
     <g id="text_66">
      <!-- $\mathdefault{4}$ -->
      <g transform="translate(779.632302 335.810059)scale(0.1 -0.1)">
       <use xlink:href="#CMR17-34" transform="scale(0.996264)"/>
      </g>
     </g>
    </g>
    <g id="ytick_33">
     <g id="line2d_125">
      <path d="M 791.613637 302.229988 
L 993.6 302.229988 
" clip-path="url(#p373bf5a977)" style="fill: none; stroke-dasharray: 0.8,1.32; stroke-dashoffset: 0; stroke: #b0b0b0; stroke-width: 0.8"/>
     </g>
     <g id="line2d_126">
      <g>
       <use xlink:href="#m90c67d28d8" x="791.613637" y="302.229988" style="stroke: #000000; stroke-width: 0.8"/>
      </g>
     </g>
     <g id="text_67">
      <!-- $\mathdefault{5}$ -->
      <g transform="translate(779.632302 305.27413)scale(0.1 -0.1)">
       <use xlink:href="#CMR17-35" transform="scale(0.996264)"/>
      </g>
     </g>
    </g>
    <g id="ytick_34">
     <g id="line2d_127">
      <path d="M 791.613637 271.694058 
L 993.6 271.694058 
" clip-path="url(#p373bf5a977)" style="fill: none; stroke-dasharray: 0.8,1.32; stroke-dashoffset: 0; stroke: #b0b0b0; stroke-width: 0.8"/>
     </g>
     <g id="line2d_128">
      <g>
       <use xlink:href="#m90c67d28d8" x="791.613637" y="271.694058" style="stroke: #000000; stroke-width: 0.8"/>
      </g>
     </g>
     <g id="text_68">
      <!-- $\mathdefault{6}$ -->
      <g transform="translate(779.632302 274.7382)scale(0.1 -0.1)">
       <use xlink:href="#CMR17-36" transform="scale(0.996264)"/>
      </g>
     </g>
    </g>
    <g id="text_69">
     <!-- $\beta$ -->
     <g transform="translate(771.868644 363.824151)rotate(-90)scale(0.17 -0.17)">
      <use xlink:href="#CMMI12-c" transform="scale(0.996264)"/>
     </g>
    </g>
   </g>
   <g id="line2d_129">
    <path d="M 790.892257 275.951878 
L 791.613637 274.917248 
L 792.335017 274.263828 
L 793.777776 273.489582 
L 795.220536 273.050541 
L 797.384676 272.667347 
L 800.991575 272.342011 
L 806.762614 272.122443 
L 816.861932 272.009892 
L 855.816445 271.756923 
L 860.144724 271.493561 
L 863.030244 271.121046 
L 864.473004 270.794061 
L 865.915763 270.261437 
L 866.637143 269.85063 
L 867.358523 269.262068 
L 868.079903 268.353386 
L 868.801283 266.777362 
L 869.522663 263.424438 
M 870.244042 444.326309 
L 870.965422 399.433291 
L 871.686802 380.094739 
L 872.408182 375.402008 
L 873.129562 373.423392 
L 873.850942 372.344017 
L 874.572322 371.66745 
L 876.015081 370.87001 
L 877.457841 370.41864 
L 879.621981 370.022716 
L 883.22888 369.678449 
L 888.999919 369.422491 
L 900.541997 369.197665 
L 937.33237 368.579062 
L 942.382029 368.266782 
L 945.267549 367.889847 
L 946.710309 367.56509 
L 948.153068 367.041485 
L 948.874448 366.640582 
L 949.595828 366.06967 
L 950.317208 365.195197 
L 951.038588 363.696586 
L 951.759968 360.576875 
L 952.481347 350.85588 
L 953.202727 307.824731 
L 953.924107 285.611171 
L 954.645487 280.501995 
L 955.366867 278.411772 
L 956.088247 277.288595 
L 956.809627 276.591074 
L 958.252386 275.776258 
L 959.695146 275.319759 
L 961.859286 274.924533 
L 964.744805 274.639346 
L 969.794464 274.404519 
L 978.451023 274.268337 
L 994.32138 274.231109 
L 994.32138 274.231109 
" clip-path="url(#p373bf5a977)" style="fill: none; stroke: #ff7f0e; stroke-width: 1.5; stroke-linecap: square"/>
   </g>
   <g id="line2d_130">
    <g clip-path="url(#p373bf5a977)">
     <use xlink:href="#m7ccdda95ba" x="892.606818" y="369.332191" style="fill: #1f77b4; stroke: #1f77b4"/>
    </g>
   </g>
   <g id="patch_23">
    <path d="M 791.613637 464.486285 
L 791.613637 253.8 
" style="fill: none; stroke: #000000; stroke-width: 0.8; stroke-linejoin: miter; stroke-linecap: square"/>
   </g>
   <g id="patch_24">
    <path d="M 993.6 464.486285 
L 993.6 253.8 
" style="fill: none; stroke: #000000; stroke-width: 0.8; stroke-linejoin: miter; stroke-linecap: square"/>
   </g>
   <g id="patch_25">
    <path d="M 791.613637 464.486285 
L 993.6 464.486285 
" style="fill: none; stroke: #000000; stroke-width: 0.8; stroke-linejoin: miter; stroke-linecap: square"/>
   </g>
   <g id="patch_26">
    <path d="M 791.613637 253.8 
L 993.6 253.8 
" style="fill: none; stroke: #000000; stroke-width: 0.8; stroke-linejoin: miter; stroke-linecap: square"/>
   </g>
  </g>
 </g>
 <defs>
  <clipPath id="p672d35665b">
   <rect x="36.892749" y="7.2" width="426.055696" height="457.286285"/>
  </clipPath>
  <clipPath id="p32432384ff">
   <rect x="540.040008" y="7.2" width="201.986363" height="210.686285"/>
  </clipPath>
  <clipPath id="p3663c6e234">
   <rect x="540.040008" y="253.8" width="201.986363" height="210.686285"/>
  </clipPath>
  <clipPath id="p06d9116cd3">
   <rect x="791.613637" y="7.2" width="201.986363" height="210.686285"/>
  </clipPath>
  <clipPath id="p373bf5a977">
   <rect x="791.613637" y="253.8" width="201.986363" height="210.686285"/>
  </clipPath>
 </defs>
</svg>
