<?xml version="1.0" encoding="utf-8" standalone="no"?>
<!DOCTYPE svg PUBLIC "-//W3C//DTD SVG 1.1//EN"
  "http://www.w3.org/Graphics/SVG/1.1/DTD/svg11.dtd">
<svg xmlns:xlink="http://www.w3.org/1999/xlink" width="1000.8pt" height="496.8pt" viewBox="0 0 1000.8 496.8" xmlns="http://www.w3.org/2000/svg" version="1.1">
 <metadata>
  <rdf:RDF xmlns:dc="http://purl.org/dc/elements/1.1/" xmlns:cc="http://creativecommons.org/ns#" xmlns:rdf="http://www.w3.org/1999/02/22-rdf-syntax-ns#">
   <cc:Work>
    <dc:type rdf:resource="http://purl.org/dc/dcmitype/StillImage"/>
    <dc:date>2022-05-20T11:04:29.511008</dc:date>
    <dc:format>image/svg+xml</dc:format>
    <dc:creator>
     <cc:Agent>
      <dc:title>Matplotlib v3.5.0, https://matplotlib.org/</dc:title>
     </cc:Agent>
    </dc:creator>
   </cc:Work>
  </rdf:RDF>
 </metadata>
 <defs>
  <style type="text/css">*{stroke-linejoin: round; stroke-linecap: butt}</style>
 </defs>
 <g id="figure_1">
  <g id="patch_1">
   <path d="M 0 496.8 
L 1000.8 496.8 
L 1000.8 0 
L 0 0 
z
" style="fill: #ffffff"/>
  </g>
  <g id="axes_1">
   <g id="patch_2">
    <path d="M 34.678823 451.304125 
L 486.742209 451.304125 
L 486.742209 9.286592 
L 34.678823 9.286592 
z
" style="fill: #ffffff"/>
   </g>
   <g id="patch_3">
    <path d="M 471.673429 230.295359 
L 481.719283 230.295359 
L 481.719283 46.478258 
L 471.673429 46.478258 
z
" clip-path="url(#p4a319df537)" style="fill: #1f77b4"/>
   </g>
   <g id="patch_4">
    <path d="M 468.723718 436.916807 
C 469.684551 434.8755 470.11424 432.624141 469.972757 430.372449 
C 469.831275 428.120756 469.123155 425.94089 467.91436 424.035909 
C 466.705566 422.130929 465.034835 420.561881 463.0578 419.474928 
C 461.080765 418.387975 458.860783 417.817948 456.60465 417.817948 
L 456.60465 431.212419 
L 468.723718 436.916807 
z
" clip-path="url(#p4a319df537)" style="fill: #d3d3d3; stroke: #d3d3d3; stroke-linejoin: miter"/>
   </g>
   <g id="matplotlib.axis_1">
    <g id="xtick_1">
     <g id="line2d_1">
      <path d="M 40.41931 451.304125 
L 40.41931 9.286592 
" clip-path="url(#p4a319df537)" style="fill: none; stroke-dasharray: 0.8,1.32; stroke-dashoffset: 0; stroke: #b0b0b0; stroke-width: 0.8"/>
     </g>
     <g id="line2d_2">
      <defs>
       <path id="m4d5537e347" d="M 0 0 
L 0 3.5 
" style="stroke: #000000; stroke-width: 0.8"/>
      </defs>
      <g>
       <use xlink:href="#m4d5537e347" x="40.41931" y="451.304125" style="stroke: #000000; stroke-width: 0.8"/>
      </g>
     </g>
     <g id="text_1">
      <!-- $\mathdefault{−1.5}$ -->
      <g transform="translate(30.179899 464.392409)scale(0.1 -0.1)">
       <defs>
        <path id="CMSY10-0" d="M 4218 1472 
C 4326 1472 4442 1472 4442 1600 
C 4442 1728 4326 1728 4218 1728 
L 755 1728 
C 646 1728 531 1728 531 1600 
C 531 1472 646 1472 755 1472 
L 4218 1472 
z
" transform="scale(0.015625)"/>
        <path id="CMR17-31" d="M 1702 4083 
C 1702 4217 1696 4224 1606 4224 
C 1357 3927 979 3833 621 3820 
C 602 3820 570 3820 563 3808 
C 557 3795 557 3782 557 3648 
C 755 3648 1088 3686 1344 3839 
L 1344 467 
C 1344 243 1331 166 781 166 
L 589 166 
L 589 0 
C 896 6 1216 12 1523 12 
C 1830 12 2150 6 2458 0 
L 2458 166 
L 2266 166 
C 1715 166 1702 236 1702 467 
L 1702 4083 
z
" transform="scale(0.015625)"/>
        <path id="CMMI12-3a" d="M 1178 307 
C 1178 492 1024 620 870 620 
C 685 620 557 467 557 313 
C 557 128 710 0 864 0 
C 1050 0 1178 153 1178 307 
z
" transform="scale(0.015625)"/>
        <path id="CMR17-35" d="M 730 3750 
C 794 3724 1056 3641 1325 3641 
C 1920 3641 2246 3961 2432 4140 
C 2432 4191 2432 4224 2394 4224 
C 2387 4224 2374 4224 2323 4198 
C 2099 4102 1837 4032 1517 4032 
C 1325 4032 1037 4055 723 4191 
C 653 4224 640 4224 634 4224 
C 602 4224 595 4217 595 4090 
L 595 2231 
C 595 2113 595 2080 659 2080 
C 691 2080 704 2093 736 2139 
C 941 2435 1222 2560 1542 2560 
C 1766 2560 2246 2415 2246 1293 
C 2246 1087 2246 716 2054 422 
C 1894 159 1645 25 1370 25 
C 947 25 518 319 403 812 
C 429 806 480 793 506 793 
C 589 793 749 838 749 1036 
C 749 1209 627 1280 506 1280 
C 358 1280 262 1190 262 1011 
C 262 454 704 -128 1382 -128 
C 2042 -128 2669 441 2669 1267 
C 2669 2054 2170 2662 1549 2662 
C 1222 2662 947 2540 730 2304 
L 730 3750 
z
" transform="scale(0.015625)"/>
       </defs>
       <use xlink:href="#CMSY10-0" transform="scale(0.996264)"/>
       <use xlink:href="#CMR17-31" transform="translate(77.487468 0)scale(0.996264)"/>
       <use xlink:href="#CMMI12-3a" transform="translate(123.177945 0)scale(0.996264)"/>
       <use xlink:href="#CMR17-35" transform="translate(150.275122 0)scale(0.996264)"/>
      </g>
     </g>
    </g>
    <g id="xtick_2">
     <g id="line2d_3">
      <path d="M 112.175403 451.304125 
L 112.175403 9.286592 
" clip-path="url(#p4a319df537)" style="fill: none; stroke-dasharray: 0.8,1.32; stroke-dashoffset: 0; stroke: #b0b0b0; stroke-width: 0.8"/>
     </g>
     <g id="line2d_4">
      <g>
       <use xlink:href="#m4d5537e347" x="112.175403" y="451.304125" style="stroke: #000000; stroke-width: 0.8"/>
      </g>
     </g>
     <g id="text_2">
      <!-- $\mathdefault{−1.0}$ -->
      <g transform="translate(101.935992 464.392409)scale(0.1 -0.1)">
       <defs>
        <path id="CMR17-30" d="M 2688 2038 
C 2688 2430 2682 3099 2413 3613 
C 2176 4063 1798 4224 1466 4224 
C 1158 4224 768 4082 525 3620 
C 269 3137 243 2539 243 2038 
C 243 1671 250 1112 448 623 
C 723 -39 1216 -128 1466 -128 
C 1760 -128 2208 -7 2470 604 
C 2662 1048 2688 1568 2688 2038 
z
M 1466 -26 
C 1056 -26 813 328 723 816 
C 653 1196 653 1749 653 2109 
C 653 2604 653 3015 736 3407 
C 858 3954 1216 4121 1466 4121 
C 1728 4121 2067 3947 2189 3420 
C 2272 3054 2278 2623 2278 2109 
C 2278 1691 2278 1176 2202 797 
C 2067 96 1690 -26 1466 -26 
z
" transform="scale(0.015625)"/>
       </defs>
       <use xlink:href="#CMSY10-0" transform="scale(0.996264)"/>
       <use xlink:href="#CMR17-31" transform="translate(77.487468 0)scale(0.996264)"/>
       <use xlink:href="#CMMI12-3a" transform="translate(123.177945 0)scale(0.996264)"/>
       <use xlink:href="#CMR17-30" transform="translate(150.275122 0)scale(0.996264)"/>
      </g>
     </g>
    </g>
    <g id="xtick_3">
     <g id="line2d_5">
      <path d="M 183.931496 451.304125 
L 183.931496 9.286592 
" clip-path="url(#p4a319df537)" style="fill: none; stroke-dasharray: 0.8,1.32; stroke-dashoffset: 0; stroke: #b0b0b0; stroke-width: 0.8"/>
     </g>
     <g id="line2d_6">
      <g>
       <use xlink:href="#m4d5537e347" x="183.931496" y="451.304125" style="stroke: #000000; stroke-width: 0.8"/>
      </g>
     </g>
     <g id="text_3">
      <!-- $\mathdefault{−0.5}$ -->
      <g transform="translate(173.692085 464.392409)scale(0.1 -0.1)">
       <use xlink:href="#CMSY10-0" transform="scale(0.996264)"/>
       <use xlink:href="#CMR17-30" transform="translate(77.487468 0)scale(0.996264)"/>
       <use xlink:href="#CMMI12-3a" transform="translate(123.177945 0)scale(0.996264)"/>
       <use xlink:href="#CMR17-35" transform="translate(150.275122 0)scale(0.996264)"/>
      </g>
     </g>
    </g>
    <g id="xtick_4">
     <g id="line2d_7">
      <path d="M 255.687589 451.304125 
L 255.687589 9.286592 
" clip-path="url(#p4a319df537)" style="fill: none; stroke-dasharray: 0.8,1.32; stroke-dashoffset: 0; stroke: #b0b0b0; stroke-width: 0.8"/>
     </g>
     <g id="line2d_8">
      <g>
       <use xlink:href="#m4d5537e347" x="255.687589" y="451.304125" style="stroke: #000000; stroke-width: 0.8"/>
      </g>
     </g>
     <g id="text_4">
      <!-- $\mathdefault{0.0}$ -->
      <g transform="translate(249.32255 464.392409)scale(0.1 -0.1)">
       <use xlink:href="#CMR17-30" transform="scale(0.996264)"/>
       <use xlink:href="#CMMI12-3a" transform="translate(45.690477 0)scale(0.996264)"/>
       <use xlink:href="#CMR17-30" transform="translate(72.787654 0)scale(0.996264)"/>
      </g>
     </g>
    </g>
    <g id="xtick_5">
     <g id="line2d_9">
      <path d="M 327.443682 451.304125 
L 327.443682 9.286592 
" clip-path="url(#p4a319df537)" style="fill: none; stroke-dasharray: 0.8,1.32; stroke-dashoffset: 0; stroke: #b0b0b0; stroke-width: 0.8"/>
     </g>
     <g id="line2d_10">
      <g>
       <use xlink:href="#m4d5537e347" x="327.443682" y="451.304125" style="stroke: #000000; stroke-width: 0.8"/>
      </g>
     </g>
     <g id="text_5">
      <!-- $\mathdefault{0.5}$ -->
      <g transform="translate(321.078643 464.392409)scale(0.1 -0.1)">
       <use xlink:href="#CMR17-30" transform="scale(0.996264)"/>
       <use xlink:href="#CMMI12-3a" transform="translate(45.690477 0)scale(0.996264)"/>
       <use xlink:href="#CMR17-35" transform="translate(72.787654 0)scale(0.996264)"/>
      </g>
     </g>
    </g>
    <g id="xtick_6">
     <g id="line2d_11">
      <path d="M 399.199775 451.304125 
L 399.199775 9.286592 
" clip-path="url(#p4a319df537)" style="fill: none; stroke-dasharray: 0.8,1.32; stroke-dashoffset: 0; stroke: #b0b0b0; stroke-width: 0.8"/>
     </g>
     <g id="line2d_12">
      <g>
       <use xlink:href="#m4d5537e347" x="399.199775" y="451.304125" style="stroke: #000000; stroke-width: 0.8"/>
      </g>
     </g>
     <g id="text_6">
      <!-- $\mathdefault{1.0}$ -->
      <g transform="translate(392.834736 464.392409)scale(0.1 -0.1)">
       <use xlink:href="#CMR17-31" transform="scale(0.996264)"/>
       <use xlink:href="#CMMI12-3a" transform="translate(45.690477 0)scale(0.996264)"/>
       <use xlink:href="#CMR17-30" transform="translate(72.787654 0)scale(0.996264)"/>
      </g>
     </g>
    </g>
    <g id="xtick_7">
     <g id="line2d_13">
      <path d="M 470.955869 451.304125 
L 470.955869 9.286592 
" clip-path="url(#p4a319df537)" style="fill: none; stroke-dasharray: 0.8,1.32; stroke-dashoffset: 0; stroke: #b0b0b0; stroke-width: 0.8"/>
     </g>
     <g id="line2d_14">
      <g>
       <use xlink:href="#m4d5537e347" x="470.955869" y="451.304125" style="stroke: #000000; stroke-width: 0.8"/>
      </g>
     </g>
     <g id="text_7">
      <!-- $\mathdefault{1.5}$ -->
      <g transform="translate(464.590829 464.392409)scale(0.1 -0.1)">
       <use xlink:href="#CMR17-31" transform="scale(0.996264)"/>
       <use xlink:href="#CMMI12-3a" transform="translate(45.690477 0)scale(0.996264)"/>
       <use xlink:href="#CMR17-35" transform="translate(72.787654 0)scale(0.996264)"/>
      </g>
     </g>
    </g>
   </g>
   <g id="matplotlib.axis_2">
    <g id="ytick_1">
     <g id="line2d_15">
      <path d="M 34.678823 445.563638 
L 486.742209 445.563638 
" clip-path="url(#p4a319df537)" style="fill: none; stroke-dasharray: 0.8,1.32; stroke-dashoffset: 0; stroke: #b0b0b0; stroke-width: 0.8"/>
     </g>
     <g id="line2d_16">
      <defs>
       <path id="ma380d7ab83" d="M 0 0 
L -3.5 0 
" style="stroke: #000000; stroke-width: 0.8"/>
      </defs>
      <g>
       <use xlink:href="#ma380d7ab83" x="34.678823" y="445.563638" style="stroke: #000000; stroke-width: 0.8"/>
      </g>
     </g>
     <g id="text_8">
      <!-- $\mathdefault{−1.5}$ -->
      <g transform="translate(7.2 448.607779)scale(0.1 -0.1)">
       <use xlink:href="#CMSY10-0" transform="scale(0.996264)"/>
       <use xlink:href="#CMR17-31" transform="translate(77.487468 0)scale(0.996264)"/>
       <use xlink:href="#CMMI12-3a" transform="translate(123.177945 0)scale(0.996264)"/>
       <use xlink:href="#CMR17-35" transform="translate(150.275122 0)scale(0.996264)"/>
      </g>
     </g>
    </g>
    <g id="ytick_2">
     <g id="line2d_17">
      <path d="M 34.678823 373.807545 
L 486.742209 373.807545 
" clip-path="url(#p4a319df537)" style="fill: none; stroke-dasharray: 0.8,1.32; stroke-dashoffset: 0; stroke: #b0b0b0; stroke-width: 0.8"/>
     </g>
     <g id="line2d_18">
      <g>
       <use xlink:href="#ma380d7ab83" x="34.678823" y="373.807545" style="stroke: #000000; stroke-width: 0.8"/>
      </g>
     </g>
     <g id="text_9">
      <!-- $\mathdefault{−1.0}$ -->
      <g transform="translate(7.2 376.851686)scale(0.1 -0.1)">
       <use xlink:href="#CMSY10-0" transform="scale(0.996264)"/>
       <use xlink:href="#CMR17-31" transform="translate(77.487468 0)scale(0.996264)"/>
       <use xlink:href="#CMMI12-3a" transform="translate(123.177945 0)scale(0.996264)"/>
       <use xlink:href="#CMR17-30" transform="translate(150.275122 0)scale(0.996264)"/>
      </g>
     </g>
    </g>
    <g id="ytick_3">
     <g id="line2d_19">
      <path d="M 34.678823 302.051452 
L 486.742209 302.051452 
" clip-path="url(#p4a319df537)" style="fill: none; stroke-dasharray: 0.8,1.32; stroke-dashoffset: 0; stroke: #b0b0b0; stroke-width: 0.8"/>
     </g>
     <g id="line2d_20">
      <g>
       <use xlink:href="#ma380d7ab83" x="34.678823" y="302.051452" style="stroke: #000000; stroke-width: 0.8"/>
      </g>
     </g>
     <g id="text_10">
      <!-- $\mathdefault{−0.5}$ -->
      <g transform="translate(7.2 305.095593)scale(0.1 -0.1)">
       <use xlink:href="#CMSY10-0" transform="scale(0.996264)"/>
       <use xlink:href="#CMR17-30" transform="translate(77.487468 0)scale(0.996264)"/>
       <use xlink:href="#CMMI12-3a" transform="translate(123.177945 0)scale(0.996264)"/>
       <use xlink:href="#CMR17-35" transform="translate(150.275122 0)scale(0.996264)"/>
      </g>
     </g>
    </g>
    <g id="ytick_4">
     <g id="line2d_21">
      <path d="M 34.678823 230.295359 
L 486.742209 230.295359 
" clip-path="url(#p4a319df537)" style="fill: none; stroke-dasharray: 0.8,1.32; stroke-dashoffset: 0; stroke: #b0b0b0; stroke-width: 0.8"/>
     </g>
     <g id="line2d_22">
      <g>
       <use xlink:href="#ma380d7ab83" x="34.678823" y="230.295359" style="stroke: #000000; stroke-width: 0.8"/>
      </g>
     </g>
     <g id="text_11">
      <!-- $\mathdefault{0.0}$ -->
      <g transform="translate(14.948744 233.3395)scale(0.1 -0.1)">
       <use xlink:href="#CMR17-30" transform="scale(0.996264)"/>
       <use xlink:href="#CMMI12-3a" transform="translate(45.690477 0)scale(0.996264)"/>
       <use xlink:href="#CMR17-30" transform="translate(72.787654 0)scale(0.996264)"/>
      </g>
     </g>
    </g>
    <g id="ytick_5">
     <g id="line2d_23">
      <path d="M 34.678823 158.539265 
L 486.742209 158.539265 
" clip-path="url(#p4a319df537)" style="fill: none; stroke-dasharray: 0.8,1.32; stroke-dashoffset: 0; stroke: #b0b0b0; stroke-width: 0.8"/>
     </g>
     <g id="line2d_24">
      <g>
       <use xlink:href="#ma380d7ab83" x="34.678823" y="158.539265" style="stroke: #000000; stroke-width: 0.8"/>
      </g>
     </g>
     <g id="text_12">
      <!-- $\mathdefault{0.5}$ -->
      <g transform="translate(14.948744 161.583407)scale(0.1 -0.1)">
       <use xlink:href="#CMR17-30" transform="scale(0.996264)"/>
       <use xlink:href="#CMMI12-3a" transform="translate(45.690477 0)scale(0.996264)"/>
       <use xlink:href="#CMR17-35" transform="translate(72.787654 0)scale(0.996264)"/>
      </g>
     </g>
    </g>
    <g id="ytick_6">
     <g id="line2d_25">
      <path d="M 34.678823 86.783172 
L 486.742209 86.783172 
" clip-path="url(#p4a319df537)" style="fill: none; stroke-dasharray: 0.8,1.32; stroke-dashoffset: 0; stroke: #b0b0b0; stroke-width: 0.8"/>
     </g>
     <g id="line2d_26">
      <g>
       <use xlink:href="#ma380d7ab83" x="34.678823" y="86.783172" style="stroke: #000000; stroke-width: 0.8"/>
      </g>
     </g>
     <g id="text_13">
      <!-- $\mathdefault{1.0}$ -->
      <g transform="translate(14.948744 89.827314)scale(0.1 -0.1)">
       <use xlink:href="#CMR17-31" transform="scale(0.996264)"/>
       <use xlink:href="#CMMI12-3a" transform="translate(45.690477 0)scale(0.996264)"/>
       <use xlink:href="#CMR17-30" transform="translate(72.787654 0)scale(0.996264)"/>
      </g>
     </g>
    </g>
    <g id="ytick_7">
     <g id="line2d_27">
      <path d="M 34.678823 15.027079 
L 486.742209 15.027079 
" clip-path="url(#p4a319df537)" style="fill: none; stroke-dasharray: 0.8,1.32; stroke-dashoffset: 0; stroke: #b0b0b0; stroke-width: 0.8"/>
     </g>
     <g id="line2d_28">
      <g>
       <use xlink:href="#ma380d7ab83" x="34.678823" y="15.027079" style="stroke: #000000; stroke-width: 0.8"/>
      </g>
     </g>
     <g id="text_14">
      <!-- $\mathdefault{1.5}$ -->
      <g transform="translate(14.948744 18.071221)scale(0.1 -0.1)">
       <use xlink:href="#CMR17-31" transform="scale(0.996264)"/>
       <use xlink:href="#CMMI12-3a" transform="translate(45.690477 0)scale(0.996264)"/>
       <use xlink:href="#CMR17-35" transform="translate(72.787654 0)scale(0.996264)"/>
      </g>
     </g>
    </g>
   </g>
   <g id="line2d_29">
    <path d="M 255.687589 230.295359 
L 309.126472 251.262129 
" clip-path="url(#p4a319df537)" style="fill: none; stroke: #ff7f0e; stroke-width: 2; stroke-linecap: square"/>
    <defs>
     <path id="m001b69cdb7" d="M 0 3 
C 0.795609 3 1.55874 2.683901 2.12132 2.12132 
C 2.683901 1.55874 3 0.795609 3 0 
C 3 -0.795609 2.683901 -1.55874 2.12132 -2.12132 
C 1.55874 -2.683901 0.795609 -3 0 -3 
C -0.795609 -3 -1.55874 -2.683901 -2.12132 -2.12132 
C -2.683901 -1.55874 -3 -0.795609 -3 0 
C -3 0.795609 -2.683901 1.55874 -2.12132 2.12132 
C -1.55874 2.683901 -0.795609 3 0 3 
z
" style="stroke: #ff7f0e"/>
    </defs>
    <g clip-path="url(#p4a319df537)">
     <use xlink:href="#m001b69cdb7" x="255.687589" y="230.295359" style="fill: #ff7f0e; stroke: #ff7f0e"/>
     <use xlink:href="#m001b69cdb7" x="309.126472" y="251.262129" style="fill: #ff7f0e; stroke: #ff7f0e"/>
    </g>
   </g>
   <g id="line2d_30">
    <path d="M 309.126472 251.262129 
L 243.499445 378.889872 
" clip-path="url(#p4a319df537)" style="fill: none; stroke: #2ca02c; stroke-width: 2; stroke-linecap: square"/>
    <defs>
     <path id="m3e4dd5cc1e" d="M 0 3 
C 0.795609 3 1.55874 2.683901 2.12132 2.12132 
C 2.683901 1.55874 3 0.795609 3 0 
C 3 -0.795609 2.683901 -1.55874 2.12132 -2.12132 
C 1.55874 -2.683901 0.795609 -3 0 -3 
C -0.795609 -3 -1.55874 -2.683901 -2.12132 -2.12132 
C -2.683901 -1.55874 -3 -0.795609 -3 0 
C -3 0.795609 -2.683901 1.55874 -2.12132 2.12132 
C -1.55874 2.683901 -0.795609 3 0 3 
z
" style="stroke: #2ca02c"/>
    </defs>
    <g clip-path="url(#p4a319df537)">
     <use xlink:href="#m3e4dd5cc1e" x="309.126472" y="251.262129" style="fill: #2ca02c; stroke: #2ca02c"/>
     <use xlink:href="#m3e4dd5cc1e" x="243.499445" y="378.889872" style="fill: #2ca02c; stroke: #2ca02c"/>
    </g>
   </g>
   <g id="line2d_31">
    <path d="M 255.687589 431.212419 
L 255.701014 431.050923 
L 255.951072 429.177175 
L 256.507025 426.730934 
L 257.35238 424.000098 
L 258.511581 421.006257 
L 259.942869 417.914319 
L 261.663468 414.71423 
L 263.736985 411.337696 
L 266.06117 407.977201 
L 268.715575 404.527526 
L 271.69581 401.013379 
L 275.143576 397.295447 
L 279.086318 393.376557 
L 283.721517 389.089942 
L 289.479679 384.079636 
L 298.316031 376.72665 
L 310.509154 366.551133 
L 317.031645 360.802959 
L 322.398558 355.776659 
L 326.999749 351.172321 
L 331.229637 346.624714 
L 335.063743 342.167036 
L 338.490884 337.834063 
L 341.511843 333.659646 
L 344.284733 329.43946 
L 346.652861 325.434401 
L 348.757948 321.435006 
L 350.484065 317.699586 
L 351.950904 314.015974 
L 353.149098 310.408834 
L 354.071535 306.903659 
L 354.681501 303.733261 
L 355.042481 300.696836 
L 355.15373 297.815775 
L 355.032842 295.285519 
L 354.696585 292.925581 
L 354.193623 290.900774 
L 353.509567 289.049019 
L 352.647369 287.38204 
L 351.696217 286.016859 
L 350.598836 284.826669 
L 349.358087 283.819018 
L 347.976858 283.000837 
L 346.457995 282.378409 
L 344.804241 281.95733 
L 343.018164 281.74249 
L 341.102106 281.738032 
L 339.058124 281.947331 
L 336.701438 282.418257 
L 334.198321 283.145227 
L 331.340158 284.215555 
L 328.314039 285.583544 
L 324.885049 287.377066 
L 321.01289 289.658321 
L 316.652439 292.488236 
L 311.471861 296.12718 
L 305.356875 300.699874 
L 296.868856 307.348437 
L 269.726782 328.811718 
L 261.37326 335.039582 
L 253.488951 340.641738 
L 246.20145 345.550724 
L 239.145834 350.037568 
L 232.382264 354.080058 
L 225.965089 357.6726 
L 219.435736 361.078095 
L 212.816487 364.266936 
L 206.648584 366.994262 
L 200.448044 369.493645 
L 194.239189 371.747579 
L 188.048113 373.741202 
L 182.412102 375.329818 
L 176.836253 376.682964 
L 171.343159 377.79639 
L 165.955649 378.668438 
L 160.696478 379.300118 
L 155.588018 379.695125 
L 150.651939 379.859817 
L 145.908901 379.803135 
L 141.378264 379.536478 
L 137.07782 379.073531 
L 133.023565 378.430052 
L 128.897914 377.542887 
L 125.097139 376.486745 
L 121.633325 375.288282 
L 118.515313 373.975416 
L 115.748714 372.576855 
L 113.336012 371.121629 
L 111.276734 369.638653 
L 109.567696 368.15632 
L 108.203295 366.702144 
L 107.175857 365.302443 
L 106.476003 363.982085 
L 106.113139 362.86131 
L 106.007666 361.843265 
L 106.127332 361.01972 
L 106.444981 360.304043 
L 106.953619 359.705661 
L 107.646465 359.233015 
L 108.613693 358.867199 
L 109.788155 358.671081 
L 111.297523 358.659016 
L 113.0375 358.864717 
L 115.175764 359.339484 
L 117.76737 360.148378 
L 120.873291 361.359309 
L 124.563002 363.040415 
L 129.188341 365.4001 
L 135.553168 368.922322 
L 149.313809 376.889551 
L 159.512923 382.645837 
L 167.698517 387.008521 
L 175.091835 390.698685 
L 181.935917 393.880366 
L 188.621533 396.759319 
L 195.664408 399.540447 
L 202.434457 401.967094 
L 208.847357 404.041496 
L 215.501684 405.963322 
L 222.390566 407.706011 
L 228.783401 409.099379 
L 235.350013 410.307158 
L 242.080018 411.310779 
L 248.96129 412.09235 
L 255.193808 412.586903 
L 261.524098 412.881349 
L 267.940333 412.965283 
L 274.429755 412.829217 
L 280.978745 412.464693 
L 287.572913 411.864374 
L 294.197198 411.022139 
L 300.83598 409.933155 
L 307.4732 408.593942 
L 314.092492 407.002423 
L 319.856666 405.402336 
L 325.583344 403.609048 
L 331.261473 401.623894 
L 336.880123 399.449055 
L 342.42856 397.087546 
L 347.896315 394.543188 
L 353.273248 391.820587 
L 358.549613 388.925092 
L 363.716117 385.862761 
L 368.763971 382.640307 
L 373.684937 379.265055 
L 378.471373 375.744878 
L 383.767892 371.555116 
L 388.870153 367.200186 
L 393.769913 362.693883 
L 398.460124 358.05049 
L 402.934947 353.284662 
L 407.189748 348.411299 
L 411.221089 343.44543 
L 415.026698 338.4021 
L 418.605431 333.296267 
L 421.957227 328.1427 
L 425.083051 322.95589 
L 427.984828 317.74997 
L 430.985065 311.887513 
L 433.710577 306.03697 
L 436.167781 300.216232 
L 438.364124 294.442245 
L 440.30794 288.730953 
L 442.008305 283.097266 
L 443.623869 276.945453 
L 444.964808 270.92401 
L 446.045593 265.048824 
L 446.881011 259.334228 
L 447.53437 253.248931 
L 447.928677 247.38855 
L 448.083445 241.766232 
L 448.017704 236.393323 
L 447.749826 231.279518 
L 447.247683 226.005939 
L 446.547434 221.059323 
L 445.669197 216.44689 
L 444.631541 212.174446 
L 443.451412 208.246592 
L 442.144084 204.666926 
L 440.723129 201.43821 
L 439.330934 198.788642 
L 437.861131 196.436921 
L 436.320407 194.383928 
L 434.71427 192.630284 
L 433.201062 191.29618 
L 431.639843 190.209996 
L 430.032292 189.371808 
L 428.379336 188.781589 
L 426.853021 188.462306 
L 425.289718 188.34362 
L 423.688592 188.425295 
L 421.863608 188.750651 
L 419.987884 189.322404 
L 418.058308 190.139814 
L 415.869054 191.321574 
L 413.604136 192.797865 
L 411.038946 194.741934 
L 408.137394 197.237125 
L 404.853793 200.370991 
L 401.13038 204.233671 
L 396.344019 209.540612 
L 389.643872 217.344199 
L 369.066628 241.543349 
L 361.374087 250.134154 
L 354.414961 257.579769 
L 347.441071 264.708514 
L 340.532184 271.435052 
L 333.772 277.693615 
L 327.245067 283.437034 
L 320.398272 289.152605 
L 313.895176 294.295211 
L 307.127711 299.358933 
L 300.813658 303.825686 
L 294.29221 308.184967 
L 287.569128 312.415619 
L 280.651937 316.496371 
L 273.55 320.40602 
L 267.091128 323.720685 
L 260.504336 326.86921 
L 253.800011 329.837617 
L 246.989743 332.612479 
L 240.086294 335.181052 
L 233.103564 337.531404 
L 226.056532 339.652552 
L 218.961187 341.534591 
L 211.834439 343.168814 
L 204.694016 344.547834 
L 198.449395 345.540406 
L 192.221101 346.329956 
L 186.022087 346.914374 
L 179.865481 347.292513 
L 173.764499 347.464222 
L 167.732357 347.43036 
L 161.78218 347.192801 
L 155.926911 346.754441 
L 150.179217 346.11918 
L 144.5514 345.291902 
L 139.055307 344.278449 
L 133.702244 343.085575 
L 128.5029 341.720902 
L 123.467266 340.19286 
L 118.604572 338.510624 
L 113.923226 336.684042 
L 108.804793 334.433188 
L 103.942802 332.023855 
L 99.345396 329.473156 
L 95.019051 326.798737 
L 90.968551 324.018616 
L 87.196996 321.151002 
L 83.705817 318.214137 
L 80.494826 315.226128 
L 77.562271 312.204803 
L 74.904916 309.167572 
L 72.518133 306.131297 
L 70.149005 302.736783 
L 68.1046 299.385904 
L 66.37306 296.099251 
L 64.941086 292.895965 
L 63.794176 289.793659 
L 62.916856 286.80838 
L 62.292907 283.954591 
L 61.905589 281.245181 
L 61.732021 278.417821 
L 61.805995 275.796136 
L 62.104103 273.391447 
L 62.60335 271.213109 
L 63.2814 269.268684 
L 64.116794 267.564128 
L 65.089139 266.10399 
L 66.179261 264.891604 
L 67.246319 264.014217 
L 68.382355 263.340503 
L 69.576412 262.871131 
L 70.818596 262.606425 
L 72.10011 262.546457 
L 73.413289 262.691128 
L 74.901633 263.091635 
L 76.413831 263.744199 
L 77.944481 264.648503 
L 79.645328 265.933707 
L 81.362153 267.523053 
L 83.254171 269.603768 
L 85.170835 272.046651 
L 87.285357 275.10215 
L 89.79613 279.156612 
L 92.776782 284.435853 
L 96.955027 292.339349 
L 106.085564 309.705255 
L 110.557756 317.657397 
L 114.650056 324.492555 
L 118.850476 331.065024 
L 123.101216 337.279609 
L 127.33091 343.05763 
L 131.459022 348.337376 
L 135.911763 353.667402 
L 140.157007 358.425729 
L 144.684818 363.181917 
L 149.505637 367.913687 
L 154.628414 372.5972 
L 159.364273 376.635822 
L 164.340498 380.600331 
L 169.559439 384.472216 
L 175.022066 388.232359 
L 180.727861 391.861148 
L 185.810541 394.851859 
L 191.068074 397.718684 
L 196.497242 400.448869 
L 202.093874 403.029691 
L 207.852824 405.448547 
L 213.767968 407.693033 
L 219.832195 409.751036 
L 226.037423 411.610825 
L 232.37461 413.261143 
L 238.833787 414.691292 
L 245.404092 415.891229 
L 252.073816 416.85165 
L 258.830464 417.564068 
L 265.660814 418.020898 
L 271.399087 418.201544 
L 277.170594 418.196801 
L 282.966768 418.003904 
L 288.778844 417.620631 
L 294.597897 417.045313 
L 300.414884 416.276854 
L 306.220686 415.314732 
L 312.006152 414.159012 
L 317.762142 412.81034 
L 323.479569 411.269947 
L 329.149447 409.53964 
L 334.762927 407.621792 
L 340.311343 405.519331 
L 345.786251 403.235717 
L 351.179465 400.77493 
L 356.483095 398.14144 
L 361.689579 395.340183 
L 366.791718 392.376532 
L 371.782696 389.256268 
L 376.656113 385.985543 
L 381.406003 382.570847 
L 386.02685 379.018972 
L 391.39446 374.585601 
L 396.561203 369.977488 
L 401.520287 365.207632 
L 406.265943 360.289314 
L 410.79343 355.236008 
L 415.09902 350.061288 
L 419.179987 344.778742 
L 423.034578 339.401892 
L 426.661985 333.944113 
L 430.062302 328.418565 
L 433.236486 322.838122 
L 436.186308 317.215319 
L 438.914296 311.562292 
L 441.423688 305.890736 
L 443.718369 300.211864 
L 445.802812 294.536373 
L 447.975651 287.932761 
L 449.877919 281.362708 
L 451.519117 274.840304 
L 452.909369 268.378546 
L 454.059307 261.989341 
L 454.979957 255.683514 
L 455.682633 249.470823 
L 456.233544 242.495788 
L 456.532096 235.665171 
L 456.595612 228.988756 
L 456.441277 222.47479 
L 456.086016 216.130076 
L 455.466776 209.201345 
L 454.637055 202.499658 
L 453.618861 196.029194 
L 452.292044 189.114102 
L 450.785847 182.489254 
L 449.125948 176.154457 
L 447.151078 169.51913 
L 445.048656 163.22874 
L 442.641252 156.753579 
L 440.145789 150.674199 
L 437.375835 144.524 
L 434.567718 138.814748 
L 431.532836 133.144712 
L 428.301968 127.602669 
L 425.123042 122.59392 
L 422.021942 118.101439 
L 418.823628 113.861473 
L 415.758276 110.176011 
L 413.019221 107.213161 
L 410.420288 104.718507 
L 408.126874 102.807638 
L 405.964524 101.297101 
L 404.07523 100.252115 
L 402.432472 99.593682 
L 401.011002 99.249492 
L 399.6687 99.155095 
L 398.515336 99.287891 
L 397.423583 99.630971 
L 396.390956 100.186686 
L 395.414528 100.957687 
L 394.401318 102.057937 
L 393.446848 103.42645 
L 392.46567 105.230657 
L 391.463611 107.558793 
L 390.441178 110.509747 
L 389.322124 114.458957 
L 388.089281 119.655876 
L 386.475355 127.490998 
L 380.661544 156.613887 
L 378.314667 166.771187 
L 375.985804 175.88148 
L 373.444606 184.897278 
L 370.940149 193.002448 
L 368.09541 201.436719 
L 365.156274 209.437589 
L 362.183383 216.916121 
L 358.900726 224.570196 
L 355.663173 231.590775 
L 352.141006 238.717485 
L 348.31905 245.929997 
L 344.658458 252.395009 
L 340.740271 258.892805 
L 336.555952 265.404738 
L 332.09796 271.91079 
L 327.359928 278.389605 
L 322.980448 284.018454 
L 318.380297 289.593196 
L 313.558068 295.097237 
L 308.513444 300.513388 
L 303.247294 305.823941 
L 297.761753 311.010758 
L 292.060309 316.055373 
L 287.005203 320.251994 
L 281.799027 324.318603 
L 276.446576 328.243403 
L 270.953494 332.014687 
L 265.326289 335.620906 
L 259.572339 339.05075 
L 253.699892 342.293227 
L 247.718056 345.33774 
L 241.636785 348.174176 
L 235.466855 350.792982 
L 229.219824 353.185253 
L 222.907999 355.342807 
L 216.544373 357.258268 
L 210.142573 358.925134 
L 203.716786 360.33785 
L 197.281684 361.491869 
L 190.852339 362.383704 
L 184.44413 363.01098 
L 178.072647 363.372467 
L 171.753588 363.468111 
L 165.502657 363.299049 
L 159.335451 362.867616 
L 153.267356 362.177338 
L 147.313437 361.232921 
L 141.488333 360.040212 
L 135.806151 358.606171 
L 130.28037 356.938812 
L 124.923749 355.047148 
L 119.748242 352.941115 
L 114.76492 350.631503 
L 109.983901 348.129859 
L 105.414296 345.448404 
L 101.064161 342.599934 
L 96.940457 339.597718 
L 93.049027 336.455395 
L 89.394583 333.186876 
L 85.980699 329.806237 
L 82.809823 326.327618 
L 79.883291 322.76513 
L 77.201353 319.132755 
L 74.763214 315.444264 
L 72.567074 311.713131 
L 70.61018 307.952456 
L 68.888882 304.174903 
L 67.398695 300.392632 
L 66.134369 296.617249 
L 65.08995 292.859764 
L 64.258857 289.130551 
L 63.633953 285.439319 
L 63.155304 281.19289 
L 62.934099 277.023549 
L 62.956913 272.943123 
L 63.209848 268.962142 
L 63.678671 265.089852 
L 64.348942 261.33425 
L 65.206135 257.702124 
L 66.235745 254.199111 
L 67.605123 250.359541 
L 69.15979 246.699646 
L 70.879119 243.222958 
L 72.743114 239.931538 
L 74.989066 236.451027 
L 77.367544 233.205217 
L 79.853751 230.191814 
L 82.424372 227.407178 
L 85.353166 224.575649 
L 88.331638 222.012933 
L 91.334447 219.710322 
L 94.638193 217.466712 
L 97.915923 215.513625 
L 101.143109 213.838084 
L 104.580709 212.311846 
L 107.908131 211.085105 
L 111.104613 210.143372 
L 114.152721 209.473673 
L 117.038102 209.064803 
L 119.749266 208.907508 
L 122.277404 208.994625 
L 124.428681 209.284901 
L 126.417838 209.774158 
L 128.243523 210.461805 
L 129.761614 211.259899 
L 131.146287 212.224619 
L 132.400154 213.358867 
L 133.527038 214.666544 
L 134.532023 216.152499 
L 135.504408 217.999829 
L 136.347592 220.078579 
L 137.135074 222.621749 
L 137.854752 225.716826 
L 138.551198 229.751244 
L 139.311209 235.617979 
L 141.711343 255.473369 
L 142.827888 262.24474 
L 144.070524 268.473848 
L 145.500379 274.520239 
L 147.087926 280.284888 
L 148.786593 285.678995 
L 150.773188 291.253768 
L 152.806185 296.346726 
L 155.113582 301.553871 
L 157.717149 306.857936 
L 160.25491 311.562955 
L 163.049346 316.312048 
L 166.113447 321.088656 
L 169.459344 325.874633 
L 173.098115 330.650254 
L 176.457655 334.719324 
L 180.044962 338.750931 
L 183.86451 342.730058 
L 187.9198 346.640982 
L 192.213273 350.467332 
L 196.746216 354.192167 
L 201.518683 357.798057 
L 206.529415 361.267178 
L 211.77577 364.581427 
L 216.32482 367.211816 
L 221.031534 369.711366 
L 225.892023 372.069511 
L 230.901652 374.275781 
L 236.055035 376.319855 
L 241.346032 378.191624 
L 243.499445 378.889872 
L 243.499445 378.889872 
" clip-path="url(#p4a319df537)" style="fill: none; stroke: #808080; stroke-linecap: square"/>
   </g>
   <g id="patch_5">
    <path d="M 34.678823 451.304125 
L 34.678823 9.286592 
" style="fill: none; stroke: #000000; stroke-width: 0.8; stroke-linejoin: miter; stroke-linecap: square"/>
   </g>
   <g id="patch_6">
    <path d="M 486.742209 451.304125 
L 486.742209 9.286592 
" style="fill: none; stroke: #000000; stroke-width: 0.8; stroke-linejoin: miter; stroke-linecap: square"/>
   </g>
   <g id="patch_7">
    <path d="M 34.678823 451.304125 
L 486.742209 451.304125 
" style="fill: none; stroke: #000000; stroke-width: 0.8; stroke-linejoin: miter; stroke-linecap: square"/>
   </g>
   <g id="patch_8">
    <path d="M 34.678823 9.286592 
L 486.742209 9.286592 
" style="fill: none; stroke: #000000; stroke-width: 0.8; stroke-linejoin: miter; stroke-linecap: square"/>
   </g>
   <g id="text_15">
    <!-- $t = 8.00 \; s$ -->
    <g transform="translate(192.901008 35.807644)scale(0.17 -0.17)">
     <defs>
      <path id="CMMI12-74" d="M 1286 2566 
L 1875 2566 
C 1997 2566 2061 2566 2061 2681 
C 2061 2752 2022 2752 1894 2752 
L 1331 2752 
L 1568 3664 
C 1594 3752 1594 3764 1594 3808 
C 1594 3910 1510 3968 1427 3968 
C 1376 3968 1229 3948 1178 3746 
L 928 2752 
L 326 2752 
C 198 2752 141 2752 141 2630 
C 141 2566 186 2566 307 2566 
L 877 2566 
L 454 881 
C 403 657 384 593 384 510 
C 384 210 595 -64 954 -64 
C 1600 -64 1946 868 1946 913 
C 1946 951 1920 970 1882 970 
C 1869 970 1843 970 1830 944 
C 1824 938 1818 932 1773 830 
C 1638 510 1344 64 973 64 
C 781 64 768 223 768 364 
C 768 370 768 491 787 568 
L 1286 2566 
z
" transform="scale(0.015625)"/>
      <path id="CMR17-3d" d="M 4115 2048 
C 4211 2048 4307 2048 4307 2156 
C 4307 2272 4198 2272 4090 2272 
L 512 2272 
C 403 2272 294 2272 294 2156 
C 294 2048 390 2048 486 2048 
L 4115 2048 
z
M 4090 927 
C 4198 927 4307 927 4307 1043 
C 4307 1152 4211 1152 4115 1152 
L 486 1152 
C 390 1152 294 1152 294 1043 
C 294 927 403 927 512 927 
L 4090 927 
z
" transform="scale(0.015625)"/>
      <path id="CMR17-38" d="M 1741 2289 
C 2144 2494 2554 2803 2554 3298 
C 2554 3884 1990 4224 1472 4224 
C 890 4224 378 3800 378 3215 
C 378 3054 416 2777 666 2533 
C 730 2469 998 2276 1171 2154 
C 883 2006 211 1652 211 945 
C 211 282 838 -128 1459 -128 
C 2144 -128 2720 366 2720 1022 
C 2720 1607 2330 1877 2074 2051 
L 1741 2289 
z
M 902 2855 
C 851 2887 595 3086 595 3388 
C 595 3781 998 4076 1459 4076 
C 1965 4076 2336 3716 2336 3298 
C 2336 2700 1670 2359 1638 2359 
C 1632 2359 1626 2359 1574 2398 
L 902 2855 
z
M 2080 1536 
C 2176 1466 2483 1253 2483 861 
C 2483 385 2010 25 1472 25 
C 890 25 448 443 448 951 
C 448 1459 838 1884 1280 2083 
L 2080 1536 
z
" transform="scale(0.015625)"/>
      <path id="CMMI12-73" d="M 1459 1290 
C 1568 1271 1741 1233 1779 1227 
C 1862 1201 2150 1099 2150 793 
C 2150 595 1971 64 1229 64 
C 1094 64 614 83 486 447 
C 742 414 870 614 870 755 
C 870 889 781 960 653 960 
C 512 960 326 851 326 563 
C 326 176 710 -64 1222 -64 
C 2195 -64 2483 665 2483 998 
C 2483 1093 2483 1271 2278 1475 
C 2118 1627 1965 1659 1619 1729 
C 1446 1767 1171 1824 1171 2111 
C 1171 2239 1286 2687 1894 2687 
C 2163 2687 2426 2589 2490 2368 
C 2208 2368 2195 2124 2195 2118 
C 2195 1983 2317 1945 2374 1945 
C 2464 1945 2643 2015 2643 2284 
C 2643 2546 2400 2816 1901 2816 
C 1062 2816 838 2169 838 1907 
C 838 1424 1312 1322 1459 1290 
z
" transform="scale(0.015625)"/>
     </defs>
     <use xlink:href="#CMMI12-74" transform="scale(0.996264)"/>
     <use xlink:href="#CMR17-3d" transform="translate(62.900339 0)scale(0.996264)"/>
     <use xlink:href="#CMR17-38" transform="translate(162.289136 0)scale(0.996264)"/>
     <use xlink:href="#CMMI12-3a" transform="translate(207.979613 0)scale(0.996264)"/>
     <use xlink:href="#CMR17-30" transform="translate(235.07679 0)scale(0.996264)"/>
     <use xlink:href="#CMR17-30" transform="translate(280.767267 0)scale(0.996264)"/>
     <use xlink:href="#CMMI12-73" transform="translate(354.131753 0)scale(0.996264)"/>
    </g>
   </g>
   <g id="text_16">
    <!-- $\ell_1 = 0.40 \: \rm m$ -->
    <g transform="translate(43.72009 26.967293)scale(0.14 -0.14)">
     <defs>
      <path id="CMMI12-60" d="M 589 1091 
C 186 698 83 603 83 577 
C 83 552 109 508 154 508 
C 186 508 550 856 602 913 
C 640 488 800 -64 1299 -64 
C 1555 -64 1786 95 1888 171 
C 1971 235 2278 495 2278 552 
C 2278 584 2246 622 2214 622 
C 2189 622 2093 527 2067 501 
C 1843 286 1562 64 1306 64 
C 960 64 915 558 915 901 
C 915 964 915 1231 960 1281 
C 1338 1668 2522 2880 2522 4002 
C 2522 4256 2426 4480 2150 4480 
C 1555 4480 1037 3171 947 2930 
C 922 2867 550 1890 589 1091 
z
M 973 1484 
C 979 1522 1267 3184 1805 4072 
C 1914 4243 2022 4351 2150 4351 
C 2368 4351 2381 4148 2381 4009 
C 2381 3787 2317 3216 1760 2417 
C 1594 2182 1338 1865 973 1484 
z
" transform="scale(0.015625)"/>
      <path id="CMR17-34" d="M 2150 4147 
C 2150 4281 2144 4288 2029 4288 
L 128 1254 
L 128 1088 
L 1779 1088 
L 1779 460 
C 1779 230 1766 166 1318 166 
L 1197 166 
L 1197 0 
C 1402 12 1747 12 1965 12 
C 2182 12 2528 12 2733 0 
L 2733 166 
L 2611 166 
C 2163 166 2150 230 2150 460 
L 2150 1088 
L 2803 1088 
L 2803 1254 
L 2150 1254 
L 2150 4147 
z
M 1798 3723 
L 1798 1254 
L 256 1254 
L 1798 3723 
z
" transform="scale(0.015625)"/>
      <path id="CMR17-6d" d="M 4326 1954 
C 4326 2276 4269 2816 3507 2816 
C 3072 2816 2771 2520 2656 2173 
L 2650 2173 
C 2573 2700 2195 2816 1837 2816 
C 1331 2816 1069 2424 973 2166 
L 966 2166 
L 966 2816 
L 211 2745 
L 211 2578 
C 589 2578 646 2540 646 2231 
L 646 443 
C 646 198 621 166 211 166 
L 211 0 
C 365 12 646 12 813 12 
C 979 12 1267 12 1421 0 
L 1421 166 
C 1011 166 986 192 986 443 
L 986 1678 
C 986 2269 1344 2713 1792 2713 
C 2266 2713 2317 2289 2317 1980 
L 2317 443 
C 2317 198 2291 166 1882 166 
L 1882 0 
C 2035 12 2317 12 2483 12 
C 2650 12 2938 12 3091 0 
L 3091 166 
C 2682 166 2656 192 2656 443 
L 2656 1678 
C 2656 2269 3014 2713 3462 2713 
C 3936 2713 3987 2289 3987 1980 
L 3987 443 
C 3987 198 3962 166 3552 166 
L 3552 0 
C 3706 12 3987 12 4154 12 
C 4320 12 4608 12 4762 0 
L 4762 166 
C 4352 166 4326 192 4326 443 
L 4326 1954 
z
" transform="scale(0.015625)"/>
     </defs>
     <use xlink:href="#CMMI12-60" transform="scale(0.996264)"/>
     <use xlink:href="#CMR17-31" transform="translate(40.934219 -14.943915)scale(0.697382)"/>
     <use xlink:href="#CMR17-3d" transform="translate(101.089542 0)scale(0.996264)"/>
     <use xlink:href="#CMR17-30" transform="translate(200.478339 0)scale(0.996264)"/>
     <use xlink:href="#CMMI12-3a" transform="translate(246.168816 0)scale(0.996264)"/>
     <use xlink:href="#CMR17-34" transform="translate(273.265993 0)scale(0.996264)"/>
     <use xlink:href="#CMR17-30" transform="translate(318.956471 0)scale(0.996264)"/>
     <use xlink:href="#CMR17-6d" transform="translate(386.786155 0)scale(0.996264)"/>
    </g>
   </g>
   <g id="text_17">
    <!-- $\ell_2 = 1.00 \: \rm m$ -->
    <g transform="translate(43.72009 44.647995)scale(0.14 -0.14)">
     <defs>
      <path id="CMR17-32" d="M 2669 990 
L 2554 990 
C 2490 537 2438 460 2413 422 
C 2381 371 1920 371 1830 371 
L 602 371 
C 832 620 1280 1073 1824 1596 
C 2214 1966 2669 2400 2669 3033 
C 2669 3788 2067 4224 1395 4224 
C 691 4224 262 3603 262 3027 
C 262 2777 448 2745 525 2745 
C 589 2745 781 2783 781 3007 
C 781 3206 614 3264 525 3264 
C 486 3264 448 3257 422 3244 
C 544 3788 915 4057 1306 4057 
C 1862 4057 2227 3616 2227 3033 
C 2227 2477 1901 1998 1536 1583 
L 262 147 
L 262 0 
L 2515 0 
L 2669 990 
z
" transform="scale(0.015625)"/>
     </defs>
     <use xlink:href="#CMMI12-60" transform="scale(0.996264)"/>
     <use xlink:href="#CMR17-32" transform="translate(40.934219 -14.943915)scale(0.697382)"/>
     <use xlink:href="#CMR17-3d" transform="translate(101.089542 0)scale(0.996264)"/>
     <use xlink:href="#CMR17-31" transform="translate(200.478339 0)scale(0.996264)"/>
     <use xlink:href="#CMMI12-3a" transform="translate(246.168816 0)scale(0.996264)"/>
     <use xlink:href="#CMR17-30" transform="translate(273.265993 0)scale(0.996264)"/>
     <use xlink:href="#CMR17-30" transform="translate(318.956471 0)scale(0.996264)"/>
     <use xlink:href="#CMR17-6d" transform="translate(386.786155 0)scale(0.996264)"/>
    </g>
   </g>
   <g id="text_18">
    <!-- $\varphi_1  = 0.00$ -->
    <g transform="translate(323.99939 26.967293)scale(0.14 -0.14)">
     <defs>
      <path id="CMMI12-27" d="M 1926 281 
C 1818 281 1722 281 1722 313 
C 1722 326 1830 926 1869 1066 
C 2074 1883 2560 2470 3117 2470 
C 3533 2470 3725 2157 3725 1806 
C 3725 1079 2906 281 1926 281 
z
M 1651 -52 
C 1690 -58 1754 -64 1869 -64 
C 2918 -64 3885 945 3885 1953 
C 3885 2342 3712 2816 3174 2816 
C 2253 2816 1862 1519 1504 319 
C 768 460 461 849 461 1277 
C 461 1449 595 2132 966 2592 
C 1037 2675 1037 2687 1037 2700 
C 1037 2752 986 2752 973 2752 
C 800 2752 314 1819 314 1213 
C 314 498 877 108 1395 -7 
L 1062 -1111 
C 1030 -1209 1030 -1222 1030 -1248 
C 1030 -1402 1184 -1408 1197 -1408 
C 1261 -1408 1376 -1383 1427 -1254 
C 1446 -1196 1626 -182 1651 -52 
z
" transform="scale(0.015625)"/>
     </defs>
     <use xlink:href="#CMMI12-27" transform="scale(0.996264)"/>
     <use xlink:href="#CMR17-31" transform="translate(63.903064 -14.943915)scale(0.697382)"/>
     <use xlink:href="#CMR17-3d" transform="translate(124.058386 0)scale(0.996264)"/>
     <use xlink:href="#CMR17-30" transform="translate(223.447184 0)scale(0.996264)"/>
     <use xlink:href="#CMMI12-3a" transform="translate(269.137661 0)scale(0.996264)"/>
     <use xlink:href="#CMR17-30" transform="translate(296.234838 0)scale(0.996264)"/>
     <use xlink:href="#CMR17-30" transform="translate(341.925315 0)scale(0.996264)"/>
    </g>
   </g>
   <g id="text_19">
    <!-- $\varphi_2  = 0.00$ -->
    <g transform="translate(323.99939 44.647995)scale(0.14 -0.14)">
     <use xlink:href="#CMMI12-27" transform="scale(0.996264)"/>
     <use xlink:href="#CMR17-32" transform="translate(63.903064 -14.943915)scale(0.697382)"/>
     <use xlink:href="#CMR17-3d" transform="translate(124.058386 0)scale(0.996264)"/>
     <use xlink:href="#CMR17-30" transform="translate(223.447184 0)scale(0.996264)"/>
     <use xlink:href="#CMMI12-3a" transform="translate(269.137661 0)scale(0.996264)"/>
     <use xlink:href="#CMR17-30" transform="translate(296.234838 0)scale(0.996264)"/>
     <use xlink:href="#CMR17-30" transform="translate(341.925315 0)scale(0.996264)"/>
    </g>
   </g>
   <g id="text_20">
    <!-- $\omega_1  = 143.56$ -->
    <g transform="translate(396.329532 26.967293)scale(0.14 -0.14)">
     <defs>
      <path id="CMMI12-21" d="M 3802 2406 
C 3802 2592 3750 2828 3526 2828 
C 3398 2828 3251 2668 3251 2540 
C 3251 2483 3277 2444 3328 2387 
C 3424 2278 3546 2105 3546 1804 
C 3546 1574 3405 1209 3302 1011 
C 3123 659 2829 358 2496 358 
C 2093 358 1939 614 1869 972 
C 1939 1139 2086 1555 2086 1721 
C 2086 1792 2061 1849 1978 1849 
C 1933 1849 1882 1824 1850 1772 
C 1760 1632 1677 1126 1683 992 
C 1562 755 1216 358 806 358 
C 378 358 262 736 262 1100 
C 262 1766 678 2348 794 2508 
C 858 2604 902 2668 902 2681 
C 902 2726 877 2796 819 2796 
C 717 2796 685 2713 634 2636 
C 307 2131 77 1420 77 806 
C 77 409 224 -64 704 -64 
C 1235 -64 1568 390 1702 633 
C 1754 275 1946 -64 2413 -64 
C 2899 -64 3206 364 3437 883 
C 3603 1254 3802 2054 3802 2406 
z
" transform="scale(0.015625)"/>
      <path id="CMR17-33" d="M 1414 2176 
C 1984 2176 2234 1673 2234 1094 
C 2234 322 1824 25 1453 25 
C 1114 25 563 193 390 691 
C 422 678 454 678 486 678 
C 640 678 755 780 755 947 
C 755 1132 614 1216 486 1216 
C 378 1216 211 1164 211 927 
C 211 335 787 -128 1466 -128 
C 2176 -128 2720 432 2720 1087 
C 2720 1718 2208 2176 1600 2246 
C 2086 2347 2554 2776 2554 3353 
C 2554 3856 2048 4224 1472 4224 
C 890 4224 378 3862 378 3347 
C 378 3123 544 3084 627 3084 
C 762 3084 877 3167 877 3334 
C 877 3500 762 3584 627 3584 
C 602 3584 570 3584 544 3571 
C 730 3999 1235 4076 1459 4076 
C 1683 4076 2106 3966 2106 3347 
C 2106 3167 2080 2851 1862 2574 
C 1670 2329 1453 2316 1242 2297 
C 1210 2297 1062 2284 1037 2284 
C 992 2278 966 2272 966 2227 
C 966 2182 973 2176 1101 2176 
L 1414 2176 
z
" transform="scale(0.015625)"/>
      <path id="CMR17-36" d="M 678 2198 
C 678 3712 1395 4076 1811 4076 
C 1946 4076 2272 4049 2400 3782 
C 2298 3782 2106 3782 2106 3558 
C 2106 3385 2246 3328 2336 3328 
C 2394 3328 2566 3353 2566 3571 
C 2566 3987 2246 4224 1805 4224 
C 1043 4224 243 3411 243 2011 
C 243 257 966 -128 1478 -128 
C 2099 -128 2688 431 2688 1295 
C 2688 2101 2170 2688 1517 2688 
C 1126 2688 838 2430 678 1979 
L 678 2198 
z
M 1478 25 
C 691 25 691 1212 691 1450 
C 691 1914 909 2585 1504 2585 
C 1613 2585 1926 2585 2138 2140 
C 2253 1889 2253 1624 2253 1302 
C 2253 954 2253 696 2118 438 
C 1978 173 1773 25 1478 25 
z
" transform="scale(0.015625)"/>
     </defs>
     <use xlink:href="#CMMI12-21" transform="scale(0.996264)"/>
     <use xlink:href="#CMR17-31" transform="translate(60.743753 -14.943915)scale(0.697382)"/>
     <use xlink:href="#CMR17-3d" transform="translate(120.899076 0)scale(0.996264)"/>
     <use xlink:href="#CMR17-31" transform="translate(220.287873 0)scale(0.996264)"/>
     <use xlink:href="#CMR17-34" transform="translate(265.97835 0)scale(0.996264)"/>
     <use xlink:href="#CMR17-33" transform="translate(311.668827 0)scale(0.996264)"/>
     <use xlink:href="#CMMI12-3a" transform="translate(357.359304 0)scale(0.996264)"/>
     <use xlink:href="#CMR17-35" transform="translate(384.456482 0)scale(0.996264)"/>
     <use xlink:href="#CMR17-36" transform="translate(430.146959 0)scale(0.996264)"/>
    </g>
   </g>
   <g id="text_21">
    <!-- $\omega_2  = -11.57$ -->
    <g transform="translate(396.329532 44.647995)scale(0.14 -0.14)">
     <defs>
      <path id="CMR17-37" d="M 2886 3955 
L 2886 4096 
L 1382 4096 
C 634 4096 621 4166 595 4288 
L 480 4288 
L 294 3104 
L 410 3104 
C 429 3226 474 3552 550 3673 
C 589 3724 1062 3724 1171 3724 
L 2579 3724 
L 1869 2670 
C 1395 1961 1069 1003 1069 166 
C 1069 89 1069 -128 1299 -128 
C 1530 -128 1530 89 1530 172 
L 1530 466 
C 1530 1514 1709 2204 2003 2644 
L 2886 3955 
z
" transform="scale(0.015625)"/>
     </defs>
     <use xlink:href="#CMMI12-21" transform="scale(0.996264)"/>
     <use xlink:href="#CMR17-32" transform="translate(60.743753 -14.943915)scale(0.697382)"/>
     <use xlink:href="#CMR17-3d" transform="translate(120.899076 0)scale(0.996264)"/>
     <use xlink:href="#CMSY10-0" transform="translate(220.287873 0)scale(0.996264)"/>
     <use xlink:href="#CMR17-31" transform="translate(297.775341 0)scale(0.996264)"/>
     <use xlink:href="#CMR17-31" transform="translate(343.465818 0)scale(0.996264)"/>
     <use xlink:href="#CMMI12-3a" transform="translate(389.156295 0)scale(0.996264)"/>
     <use xlink:href="#CMR17-35" transform="translate(416.253472 0)scale(0.996264)"/>
     <use xlink:href="#CMR17-37" transform="translate(461.943949 0)scale(0.996264)"/>
    </g>
   </g>
  </g>
  <g id="axes_2">
   <g id="patch_9">
    <path d="M 541.536614 453.390717 
L 993.6 453.390717 
L 993.6 7.2 
L 541.536614 7.2 
z
" style="fill: #ffffff"/>
   </g>
   <g id="matplotlib.axis_3">
    <g id="xtick_8">
     <g id="line2d_32">
      <path d="M 567.440576 453.390717 
L 567.440576 7.2 
" clip-path="url(#p0d713c1583)" style="fill: none; stroke-dasharray: 0.8,1.32; stroke-dashoffset: 0; stroke: #b0b0b0; stroke-width: 0.8"/>
     </g>
     <g id="line2d_33">
      <g>
       <use xlink:href="#m4d5537e347" x="567.440576" y="453.390717" style="stroke: #000000; stroke-width: 0.8"/>
      </g>
     </g>
     <g id="text_22">
      <!-- $\mathdefault{−2}$ -->
      <g transform="translate(561.075537 466.479001)scale(0.1 -0.1)">
       <use xlink:href="#CMSY10-0" transform="scale(0.996264)"/>
       <use xlink:href="#CMR17-32" transform="translate(77.487468 0)scale(0.996264)"/>
      </g>
     </g>
    </g>
    <g id="xtick_9">
     <g id="line2d_34">
      <path d="M 643.456882 453.390717 
L 643.456882 7.2 
" clip-path="url(#p0d713c1583)" style="fill: none; stroke-dasharray: 0.8,1.32; stroke-dashoffset: 0; stroke: #b0b0b0; stroke-width: 0.8"/>
     </g>
     <g id="line2d_35">
      <g>
       <use xlink:href="#m4d5537e347" x="643.456882" y="453.390717" style="stroke: #000000; stroke-width: 0.8"/>
      </g>
     </g>
     <g id="text_23">
      <!-- $\mathdefault{0}$ -->
      <g transform="translate(640.966214 466.479001)scale(0.1 -0.1)">
       <use xlink:href="#CMR17-30" transform="scale(0.996264)"/>
      </g>
     </g>
    </g>
    <g id="xtick_10">
     <g id="line2d_36">
      <path d="M 719.473188 453.390717 
L 719.473188 7.2 
" clip-path="url(#p0d713c1583)" style="fill: none; stroke-dasharray: 0.8,1.32; stroke-dashoffset: 0; stroke: #b0b0b0; stroke-width: 0.8"/>
     </g>
     <g id="line2d_37">
      <g>
       <use xlink:href="#m4d5537e347" x="719.473188" y="453.390717" style="stroke: #000000; stroke-width: 0.8"/>
      </g>
     </g>
     <g id="text_24">
      <!-- $\mathdefault{2}$ -->
      <g transform="translate(716.98252 466.479001)scale(0.1 -0.1)">
       <use xlink:href="#CMR17-32" transform="scale(0.996264)"/>
      </g>
     </g>
    </g>
    <g id="xtick_11">
     <g id="line2d_38">
      <path d="M 795.489494 453.390717 
L 795.489494 7.2 
" clip-path="url(#p0d713c1583)" style="fill: none; stroke-dasharray: 0.8,1.32; stroke-dashoffset: 0; stroke: #b0b0b0; stroke-width: 0.8"/>
     </g>
     <g id="line2d_39">
      <g>
       <use xlink:href="#m4d5537e347" x="795.489494" y="453.390717" style="stroke: #000000; stroke-width: 0.8"/>
      </g>
     </g>
     <g id="text_25">
      <!-- $\mathdefault{4}$ -->
      <g transform="translate(792.998826 466.479001)scale(0.1 -0.1)">
       <use xlink:href="#CMR17-34" transform="scale(0.996264)"/>
      </g>
     </g>
    </g>
    <g id="xtick_12">
     <g id="line2d_40">
      <path d="M 871.5058 453.390717 
L 871.5058 7.2 
" clip-path="url(#p0d713c1583)" style="fill: none; stroke-dasharray: 0.8,1.32; stroke-dashoffset: 0; stroke: #b0b0b0; stroke-width: 0.8"/>
     </g>
     <g id="line2d_41">
      <g>
       <use xlink:href="#m4d5537e347" x="871.5058" y="453.390717" style="stroke: #000000; stroke-width: 0.8"/>
      </g>
     </g>
     <g id="text_26">
      <!-- $\mathdefault{6}$ -->
      <g transform="translate(869.015132 466.479001)scale(0.1 -0.1)">
       <use xlink:href="#CMR17-36" transform="scale(0.996264)"/>
      </g>
     </g>
    </g>
    <g id="xtick_13">
     <g id="line2d_42">
      <path d="M 947.522106 453.390717 
L 947.522106 7.2 
" clip-path="url(#p0d713c1583)" style="fill: none; stroke-dasharray: 0.8,1.32; stroke-dashoffset: 0; stroke: #b0b0b0; stroke-width: 0.8"/>
     </g>
     <g id="line2d_43">
      <g>
       <use xlink:href="#m4d5537e347" x="947.522106" y="453.390717" style="stroke: #000000; stroke-width: 0.8"/>
      </g>
     </g>
     <g id="text_27">
      <!-- $\mathdefault{8}$ -->
      <g transform="translate(945.031438 466.479001)scale(0.1 -0.1)">
       <use xlink:href="#CMR17-38" transform="scale(0.996264)"/>
      </g>
     </g>
    </g>
    <g id="text_28">
     <!-- $\varphi \; \rm [rad]$ -->
     <g transform="translate(744.347539 485.380046)scale(0.17 -0.17)">
      <defs>
       <path id="CMR17-5b" d="M 1504 -1600 
L 1504 -1376 
L 902 -1376 
L 902 4575 
L 1504 4575 
L 1504 4800 
L 678 4800 
L 678 -1600 
L 1504 -1600 
z
" transform="scale(0.015625)"/>
       <path id="CMR17-72" d="M 960 1517 
C 960 2134 1222 2713 1702 2713 
C 1747 2713 1792 2707 1837 2687 
C 1837 2687 1696 2642 1696 2475 
C 1696 2321 1818 2257 1914 2257 
C 1990 2257 2131 2302 2131 2482 
C 2131 2687 1926 2816 1709 2816 
C 1222 2816 1011 2340 947 2115 
L 941 2115 
L 941 2816 
L 198 2745 
L 198 2578 
C 576 2578 634 2540 634 2231 
L 634 443 
C 634 198 608 166 198 166 
L 198 0 
C 352 12 646 12 813 12 
C 998 12 1325 12 1498 0 
L 1498 166 
C 1037 166 960 166 960 455 
L 960 1517 
z
" transform="scale(0.015625)"/>
       <path id="CMR17-61" d="M 2304 1656 
C 2304 2048 2304 2275 2035 2534 
C 1798 2751 1523 2816 1306 2816 
C 800 2816 435 2408 435 1977 
C 435 1740 627 1728 666 1728 
C 749 1728 896 1779 896 1958 
C 896 2118 774 2188 666 2188 
C 640 2188 608 2182 589 2176 
C 723 2594 1069 2713 1293 2713 
C 1613 2713 1965 2421 1965 1875 
L 1965 1632 
C 1587 1619 1133 1568 774 1373 
C 371 1147 256 822 256 576 
C 256 77 832 -64 1171 -64 
C 1523 -64 1850 135 1990 505 
C 2003 219 2182 -39 2464 -39 
C 2598 -39 2938 51 2938 563 
L 2938 926 
L 2822 926 
L 2822 557 
C 2822 161 2650 109 2566 109 
C 2304 109 2304 446 2304 732 
L 2304 1656 
z
M 1965 887 
C 1965 323 1568 38 1216 38 
C 896 38 646 278 646 576 
C 646 771 730 1114 1101 1322 
C 1408 1497 1760 1523 1965 1536 
L 1965 887 
z
" transform="scale(0.015625)"/>
       <path id="CMR17-64" d="M 1869 4345 
L 1869 4179 
C 2246 4179 2304 4141 2304 3843 
L 2304 2371 
C 2278 2403 2016 2816 1498 2816 
C 845 2816 211 2228 211 1376 
C 211 529 806 -64 1434 -64 
C 1978 -64 2259 361 2291 406 
L 2291 -64 
L 3066 -13 
L 3066 154 
C 2688 154 2630 193 2630 503 
L 2630 4416 
L 1869 4345 
z
M 2291 762 
C 2291 568 2176 393 2029 264 
C 1811 70 1594 38 1472 38 
C 1286 38 621 135 621 1369 
C 621 2636 1363 2713 1530 2713 
C 1824 2713 2061 2545 2208 2313 
C 2291 2177 2291 2157 2291 2041 
L 2291 762 
z
" transform="scale(0.015625)"/>
       <path id="CMR17-5d" d="M 915 4800 
L 90 4800 
L 90 4575 
L 691 4575 
L 691 -1376 
L 90 -1376 
L 90 -1600 
L 915 -1600 
L 915 4800 
z
" transform="scale(0.015625)"/>
      </defs>
      <use xlink:href="#CMMI12-27" transform="scale(0.996264)"/>
      <use xlink:href="#CMR17-5b" transform="translate(91.577072 0)scale(0.996264)"/>
      <use xlink:href="#CMR17-72" transform="translate(116.448131 0)scale(0.996264)"/>
      <use xlink:href="#CMR17-61" transform="translate(151.728899 0)scale(0.996264)"/>
      <use xlink:href="#CMR17-64" transform="translate(197.419376 0)scale(0.996264)"/>
      <use xlink:href="#CMR17-5d" transform="translate(248.314746 0)scale(0.996264)"/>
     </g>
    </g>
   </g>
   <g id="matplotlib.axis_4">
    <g id="ytick_8">
     <g id="line2d_44">
      <path d="M 541.536614 436.522422 
L 993.6 436.522422 
" clip-path="url(#p0d713c1583)" style="fill: none; stroke-dasharray: 0.8,1.32; stroke-dashoffset: 0; stroke: #b0b0b0; stroke-width: 0.8"/>
     </g>
     <g id="line2d_45">
      <g>
       <use xlink:href="#ma380d7ab83" x="541.536614" y="436.522422" style="stroke: #000000; stroke-width: 0.8"/>
      </g>
     </g>
     <g id="text_29">
      <!-- $\mathdefault{−6}$ -->
      <g transform="translate(521.806535 439.566564)scale(0.1 -0.1)">
       <use xlink:href="#CMSY10-0" transform="scale(0.996264)"/>
       <use xlink:href="#CMR17-36" transform="translate(77.487468 0)scale(0.996264)"/>
      </g>
     </g>
    </g>
    <g id="ytick_9">
     <g id="line2d_46">
      <path d="M 541.536614 370.35603 
L 993.6 370.35603 
" clip-path="url(#p0d713c1583)" style="fill: none; stroke-dasharray: 0.8,1.32; stroke-dashoffset: 0; stroke: #b0b0b0; stroke-width: 0.8"/>
     </g>
     <g id="line2d_47">
      <g>
       <use xlink:href="#ma380d7ab83" x="541.536614" y="370.35603" style="stroke: #000000; stroke-width: 0.8"/>
      </g>
     </g>
     <g id="text_30">
      <!-- $\mathdefault{−4}$ -->
      <g transform="translate(521.806535 373.400172)scale(0.1 -0.1)">
       <use xlink:href="#CMSY10-0" transform="scale(0.996264)"/>
       <use xlink:href="#CMR17-34" transform="translate(77.487468 0)scale(0.996264)"/>
      </g>
     </g>
    </g>
    <g id="ytick_10">
     <g id="line2d_48">
      <path d="M 541.536614 304.189639 
L 993.6 304.189639 
" clip-path="url(#p0d713c1583)" style="fill: none; stroke-dasharray: 0.8,1.32; stroke-dashoffset: 0; stroke: #b0b0b0; stroke-width: 0.8"/>
     </g>
     <g id="line2d_49">
      <g>
       <use xlink:href="#ma380d7ab83" x="541.536614" y="304.189639" style="stroke: #000000; stroke-width: 0.8"/>
      </g>
     </g>
     <g id="text_31">
      <!-- $\mathdefault{−2}$ -->
      <g transform="translate(521.806535 307.233781)scale(0.1 -0.1)">
       <use xlink:href="#CMSY10-0" transform="scale(0.996264)"/>
       <use xlink:href="#CMR17-32" transform="translate(77.487468 0)scale(0.996264)"/>
      </g>
     </g>
    </g>
    <g id="ytick_11">
     <g id="line2d_50">
      <path d="M 541.536614 238.023247 
L 993.6 238.023247 
" clip-path="url(#p0d713c1583)" style="fill: none; stroke-dasharray: 0.8,1.32; stroke-dashoffset: 0; stroke: #b0b0b0; stroke-width: 0.8"/>
     </g>
     <g id="line2d_51">
      <g>
       <use xlink:href="#ma380d7ab83" x="541.536614" y="238.023247" style="stroke: #000000; stroke-width: 0.8"/>
      </g>
     </g>
     <g id="text_32">
      <!-- $\mathdefault{0}$ -->
      <g transform="translate(529.555278 241.067389)scale(0.1 -0.1)">
       <use xlink:href="#CMR17-30" transform="scale(0.996264)"/>
      </g>
     </g>
    </g>
    <g id="ytick_12">
     <g id="line2d_52">
      <path d="M 541.536614 171.856856 
L 993.6 171.856856 
" clip-path="url(#p0d713c1583)" style="fill: none; stroke-dasharray: 0.8,1.32; stroke-dashoffset: 0; stroke: #b0b0b0; stroke-width: 0.8"/>
     </g>
     <g id="line2d_53">
      <g>
       <use xlink:href="#ma380d7ab83" x="541.536614" y="171.856856" style="stroke: #000000; stroke-width: 0.8"/>
      </g>
     </g>
     <g id="text_33">
      <!-- $\mathdefault{2}$ -->
      <g transform="translate(529.555278 174.900998)scale(0.1 -0.1)">
       <use xlink:href="#CMR17-32" transform="scale(0.996264)"/>
      </g>
     </g>
    </g>
    <g id="ytick_13">
     <g id="line2d_54">
      <path d="M 541.536614 105.690465 
L 993.6 105.690465 
" clip-path="url(#p0d713c1583)" style="fill: none; stroke-dasharray: 0.8,1.32; stroke-dashoffset: 0; stroke: #b0b0b0; stroke-width: 0.8"/>
     </g>
     <g id="line2d_55">
      <g>
       <use xlink:href="#ma380d7ab83" x="541.536614" y="105.690465" style="stroke: #000000; stroke-width: 0.8"/>
      </g>
     </g>
     <g id="text_34">
      <!-- $\mathdefault{4}$ -->
      <g transform="translate(529.555278 108.734606)scale(0.1 -0.1)">
       <use xlink:href="#CMR17-34" transform="scale(0.996264)"/>
      </g>
     </g>
    </g>
    <g id="ytick_14">
     <g id="line2d_56">
      <path d="M 541.536614 39.524073 
L 993.6 39.524073 
" clip-path="url(#p0d713c1583)" style="fill: none; stroke-dasharray: 0.8,1.32; stroke-dashoffset: 0; stroke: #b0b0b0; stroke-width: 0.8"/>
     </g>
     <g id="line2d_57">
      <g>
       <use xlink:href="#ma380d7ab83" x="541.536614" y="39.524073" style="stroke: #000000; stroke-width: 0.8"/>
      </g>
     </g>
     <g id="text_35">
      <!-- $\mathdefault{6}$ -->
      <g transform="translate(529.555278 42.568215)scale(0.1 -0.1)">
       <use xlink:href="#CMR17-36" transform="scale(0.996264)"/>
      </g>
     </g>
    </g>
    <g id="text_36">
     <!-- $\omega \; \rm [rad/s]$ -->
     <g transform="translate(513.572413 260.740401)rotate(-90)scale(0.17 -0.17)">
      <defs>
       <path id="CMMI12-3d" d="M 2746 4563 
C 2746 4569 2784 4665 2784 4678 
C 2784 4755 2720 4800 2669 4800 
C 2637 4800 2579 4800 2528 4659 
L 384 -1364 
C 384 -1370 346 -1466 346 -1479 
C 346 -1556 410 -1600 461 -1600 
C 499 -1600 557 -1594 602 -1460 
L 2746 4563 
z
" transform="scale(0.015625)"/>
       <path id="CMR17-73" d="M 1978 2688 
C 1978 2803 1971 2809 1933 2809 
C 1907 2809 1901 2803 1824 2707 
C 1805 2681 1747 2617 1728 2592 
C 1523 2809 1235 2816 1126 2816 
C 416 2816 160 2444 160 2073 
C 160 1497 813 1363 998 1324 
C 1402 1241 1542 1216 1677 1100 
C 1760 1024 1901 883 1901 652 
C 1901 384 1747 38 1158 38 
C 602 38 403 460 288 1024 
C 269 1113 269 1120 218 1120 
C 166 1120 160 1113 160 985 
L 160 64 
C 160 -52 166 -58 205 -58 
C 237 -58 243 -52 275 0 
C 314 57 410 211 448 275 
C 576 102 800 -64 1158 -64 
C 1792 -64 2131 281 2131 780 
C 2131 1107 1958 1280 1875 1356 
C 1683 1555 1459 1600 1190 1651 
C 838 1728 390 1817 390 2208 
C 390 2374 480 2726 1126 2726 
C 1811 2726 1850 2086 1862 1881 
C 1869 1849 1901 1843 1920 1843 
C 1978 1843 1978 1862 1978 1971 
L 1978 2688 
z
" transform="scale(0.015625)"/>
      </defs>
      <use xlink:href="#CMMI12-21" transform="scale(0.996264)"/>
      <use xlink:href="#CMR17-5b" transform="translate(91.992355 0)scale(0.996264)"/>
      <use xlink:href="#CMR17-72" transform="translate(116.863413 0)scale(0.996264)"/>
      <use xlink:href="#CMR17-61" transform="translate(152.144181 0)scale(0.996264)"/>
      <use xlink:href="#CMR17-64" transform="translate(197.834658 0)scale(0.996264)"/>
      <use xlink:href="#CMMI12-3d" transform="translate(248.730028 0)scale(0.996264)"/>
      <use xlink:href="#CMR17-73" transform="translate(297.504947 0)scale(0.996264)"/>
      <use xlink:href="#CMR17-5d" transform="translate(333.306284 0)scale(0.996264)"/>
     </g>
    </g>
   </g>
   <g id="line2d_58">
    <path d="M 643.456882 271.106443 
L 642.748125 270.999203 
L 641.993963 270.64711 
L 641.250687 270.052237 
L 640.428449 269.090181 
L 639.589556 267.747975 
L 638.706438 265.883204 
L 637.847025 263.527317 
L 637.000195 260.517134 
L 636.237558 256.947544 
L 635.590495 252.827832 
L 635.092206 248.185884 
L 634.784676 243.263377 
L 634.677323 237.947287 
L 634.792512 232.518531 
L 635.132932 227.071985 
L 635.672552 221.896094 
L 636.415649 216.867321 
L 637.315234 212.239861 
L 638.387127 207.878895 
L 639.567766 203.996214 
L 640.827518 200.598011 
L 642.138982 197.677348 
L 643.477376 195.216671 
L 644.820742 193.190146 
L 646.150026 191.565786 
L 647.449043 190.307349 
L 648.77891 189.329104 
L 650.056195 188.667179 
L 651.271156 188.279211 
L 652.492821 188.120203 
L 653.715578 188.189985 
L 654.933833 188.487248 
L 656.142038 189.009598 
L 657.408618 189.807407 
L 658.651217 190.850267 
L 659.933773 192.214612 
L 661.242725 193.935787 
L 662.5619 196.047331 
L 663.872367 198.580261 
L 665.152334 201.562433 
L 666.326409 204.860925 
L 667.429439 208.625413 
L 668.433141 212.873476 
L 669.27504 217.423162 
L 669.944497 222.250045 
L 670.447967 227.547678 
L 670.74368 233.095557 
L 670.822523 238.869189 
L 670.676315 244.844131 
L 670.297829 250.99504 
L 669.680841 257.294471 
L 668.820244 263.711445 
L 667.761314 269.948869 
L 666.472251 276.223543 
L 664.952487 282.49043 
L 663.280696 288.439449 
L 661.487071 294.026253 
L 659.507653 299.455275 
L 657.450711 304.432487 
L 655.346483 308.930142 
L 653.223722 312.931215 
L 651.109247 316.430058 
L 649.027574 319.432401 
L 647.000653 321.954764 
L 645.047688 324.023275 
L 643.18509 325.672138 
L 641.426512 326.941821 
L 639.782983 327.877119 
L 638.124436 328.574 
L 636.455345 329.022645 
L 634.920048 329.208437 
L 633.38348 329.172679 
L 631.849414 328.910685 
L 630.321695 328.418831 
L 628.80422 327.694604 
L 627.300917 326.736632 
L 625.681746 325.424758 
L 624.089241 323.83575 
L 622.528473 321.972481 
L 620.879256 319.649599 
L 619.279391 317.017578 
L 617.618605 313.848151 
L 616.029399 310.344914 
L 614.414048 306.238935 
L 612.897038 301.789208 
L 611.395884 296.689858 
L 610.023891 291.254869 
L 608.716448 285.146232 
L 607.572179 278.729473 
L 606.598633 272.041134 
L 605.761225 264.7033 
L 605.129314 257.142879 
L 604.708481 249.400115 
L 604.503215 241.513907 
L 604.516948 233.521973 
L 604.752086 225.461164 
L 605.210027 217.367894 
L 605.891161 209.278651 
L 606.79487 201.230543 
L 607.919495 193.261841 
L 609.262299 185.412478 
L 610.727369 178.146591 
L 612.379385 171.061887 
L 614.213119 164.197597 
L 616.099384 157.975213 
L 618.134962 152.020033 
L 620.172714 146.712204 
L 622.329073 141.701846 
L 624.442356 137.320812 
L 626.646314 133.249907 
L 628.768009 129.76815 
L 630.956027 126.592211 
L 633.029193 123.946579 
L 635.148372 121.587962 
L 637.308188 119.527159 
L 639.318969 117.907693 
L 641.354823 116.552269 
L 643.411258 115.465568 
L 645.294769 114.713679 
L 647.188067 114.188142 
L 649.087678 113.889463 
L 650.990129 113.817147 
L 652.891963 113.9697 
L 654.789752 114.344643 
L 656.680116 114.938539 
L 658.559733 115.747031 
L 660.611022 116.877975 
L 662.641176 118.25417 
L 664.827021 120.024413 
L 666.977841 122.062493 
L 669.262817 124.556095 
L 671.49533 127.32796 
L 673.834786 130.601014 
L 676.101069 134.147281 
L 678.441705 138.220075 
L 680.831847 142.840306 
L 683.243754 148.019307 
L 685.517638 153.433077 
L 687.768672 159.374764 
L 689.964274 165.83053 
L 691.969811 172.427239 
L 693.871785 179.475806 
L 695.556716 186.588704 
L 697.023217 193.728897 
L 698.270937 200.865815 
L 699.346126 208.329256 
L 700.182012 215.740092 
L 700.78056 223.082272 
L 701.144167 230.344914 
L 701.275506 237.521577 
L 701.177396 244.609573 
L 700.85269 251.60931 
L 700.304187 258.523657 
L 699.534561 265.357328 
L 698.546316 272.116267 
L 697.34175 278.807001 
L 695.922955 285.435954 
L 694.291823 292.008693 
L 692.450096 298.529093 
L 690.399429 304.998407 
L 688.141492 311.414228 
L 685.678108 317.769382 
L 683.011421 324.050734 
L 680.144112 330.238 
L 677.229979 336.017079 
L 674.140896 341.652358 
L 671.048768 346.835558 
L 667.982818 351.554095 
L 664.970425 355.800955 
L 662.036898 359.576111 
L 659.013852 363.099432 
L 656.104333 366.139691 
L 653.328545 368.717947 
L 650.704016 370.86323 
L 648.03934 372.746265 
L 645.548701 374.232861 
L 643.243558 375.368838 
L 640.921188 376.275422 
L 638.585555 376.941261 
L 636.454227 377.328899 
L 634.318596 377.501991 
L 632.181997 377.454434 
L 630.047849 377.181103 
L 627.919645 376.677922 
L 625.800929 375.941933 
L 623.695283 374.971345 
L 621.606307 373.765555 
L 619.537601 372.325164 
L 617.28971 370.471945 
L 615.075393 368.341062 
L 612.899285 365.938155 
L 610.57424 363.015002 
L 608.305743 359.787831 
L 606.099268 356.269532 
L 603.784959 352.146182 
L 601.555836 347.717794 
L 599.257232 342.631661 
L 597.071001 337.243122 
L 595.003332 331.579603 
L 592.925899 325.237302 
L 590.997158 318.643072 
L 589.109831 311.36637 
L 587.403581 303.873147 
L 585.883319 296.195171 
L 584.553219 288.360719 
L 583.416807 280.394431 
L 582.47705 272.317323 
L 581.696817 263.633535 
L 581.143911 254.861506 
L 580.820449 246.01477 
L 580.728231 237.103929 
L 580.868815 228.137394 
L 581.243555 219.122202 
L 581.853635 210.064911 
L 582.700062 200.972551 
L 583.783641 191.85362 
L 585.104929 182.719116 
L 586.66415 173.583585 
L 588.348822 165.00156 
L 590.243442 156.455958 
L 592.346819 147.972269 
L 594.657063 139.581614 
L 597.171453 131.32118 
L 599.710814 123.733893 
L 602.422378 116.340145 
L 605.104176 109.654083 
L 607.926776 103.21671 
L 610.668788 97.499525 
L 613.521852 92.070153 
L 616.248752 87.346005 
L 619.059724 82.928195 
L 621.705275 79.172547 
L 624.411582 75.720613 
L 626.920137 72.863562 
L 629.470309 70.289333 
L 632.057664 68.011347 
L 634.41425 66.22438 
L 636.793707 64.694683 
L 639.192443 63.428643 
L 641.337871 62.528751 
L 643.493012 61.84386 
L 645.65522 61.375712 
L 647.821833 61.12512 
L 649.990184 61.09195 
L 652.157614 61.275126 
L 654.321483 61.672627 
L 656.479182 62.281519 
L 658.628143 63.097978 
L 661.032148 64.258758 
L 663.418424 65.668467 
L 665.7836 67.318093 
L 668.382889 69.420141 
L 670.947899 71.790851 
L 673.474638 74.413975 
L 676.205395 77.570443 
L 679.121047 81.310567 
L 681.965332 85.32955 
L 684.960516 89.961176 
L 688.079954 95.227217 
L 691.083785 100.734098 
L 694.168611 106.848726 
L 697.301882 113.556513 
L 700.448855 120.82839 
L 703.573113 128.621696 
L 706.637162 136.88207 
L 709.603044 145.546185 
L 712.304727 154.119709 
L 714.861014 162.974177 
L 717.135412 171.639359 
L 719.222903 180.486115 
L 721.016476 189.079731 
L 722.524799 197.413618 
L 723.756617 205.489543 
L 724.720499 213.315785 
L 725.424649 220.905633 
L 725.876754 228.276188 
L 726.079684 235.125499 
L 726.064936 241.8125 
L 725.837402 248.357938 
L 725.401287 254.783738 
L 724.724471 261.412184 
L 723.825671 267.961801 
L 722.707071 274.460754 
L 721.369893 280.937853 
L 719.738483 287.717682 
L 717.867564 294.538851 
L 715.65773 301.735908 
L 713.181271 309.048442 
L 710.312882 316.82202 
L 707.010119 325.10546 
L 703.373055 333.610486 
L 699.392775 342.338047 
L 695.234004 350.917935 
L 690.929878 359.282563 
L 686.713218 366.998518 
L 682.654477 373.984855 
L 678.601665 380.524067 
L 674.815978 386.226359 
L 671.119584 391.40169 
L 667.541552 396.0271 
L 664.108804 400.095053 
L 660.845705 403.613292 
L 657.773801 406.60355 
L 654.911689 409.099408 
L 652.009675 411.335495 
L 649.340699 413.122833 
L 646.646248 414.658701 
L 644.202742 415.812676 
L 641.744883 416.739134 
L 639.275877 417.428295 
L 636.799054 417.871561 
L 634.593653 418.053209 
L 632.387274 418.0306 
L 630.182441 417.800501 
L 627.981711 417.360669 
L 625.787663 416.709881 
L 623.602885 415.847958 
L 621.159305 414.627036 
L 618.734378 413.142812 
L 616.331705 411.399696 
L 613.954815 409.403647 
L 611.607148 407.162075 
L 609.036941 404.394172 
L 606.511289 401.347735 
L 603.789477 397.693292 
L 601.131775 393.742643 
L 598.311201 389.122916 
L 595.578285 384.21106 
L 592.722411 378.598376 
L 589.980993 372.723363 
L 587.1622 366.150234 
L 584.301171 358.878997 
L 581.609407 351.42689 
L 578.928735 343.337154 
L 576.447563 335.156899 
L 574.03169 326.420135 
L 571.843431 317.683802 
L 569.773939 308.476257 
L 567.957345 299.345472 
L 566.391195 290.314027 
L 565.072555 281.394557 
L 563.998265 272.590959 
L 563.165164 263.899629 
L 562.570279 255.310657 
L 562.210985 246.808985 
L 562.085131 238.375484 
L 562.191137 229.987982 
L 562.528064 221.622226 
L 563.095662 213.252819 
L 563.894385 204.854144 
L 564.925387 196.401291 
L 566.190486 187.871049 
L 567.692106 179.242933 
L 569.433186 170.500323 
L 571.417054 161.631692 
L 573.647273 152.631956 
L 576.127438 143.503923 
L 578.860942 134.259827 
L 581.850692 124.922887 
L 585.098786 115.528823 
L 588.404497 106.648682 
L 591.726598 98.332749 
L 595.251465 90.113223 
L 598.73742 82.552099 
L 602.145853 75.67555 
L 605.440879 69.494376 
L 608.856651 63.55719 
L 612.112241 58.335095 
L 615.46124 53.401141 
L 618.608394 49.164946 
L 621.529333 45.577557 
L 624.50316 42.263639 
L 627.525526 39.243688 
L 630.283319 36.792833 
L 633.07308 34.608133 
L 635.891063 32.700768 
L 638.416485 31.245936 
L 640.958318 30.023368 
L 643.513688 29.037406 
L 646.079674 28.291128 
L 648.653329 27.786293 
L 651.231687 27.523312 
L 653.811791 27.501227 
L 656.390701 27.71772 
L 658.965513 28.169136 
L 661.533379 28.850523 
L 664.091515 29.755693 
L 666.637224 30.877294 
L 669.483057 32.387269 
L 672.306334 34.147015 
L 675.103712 36.141711 
L 678.177734 38.614139 
L 681.211957 41.333653 
L 684.499351 44.5815 
L 688.020723 48.39299 
L 691.753805 52.788821 
L 695.673435 57.771252 
L 699.751946 63.320966 
L 704.217803 69.777905 
L 709.254832 77.46394 
L 715.451931 87.36188 
L 734.965561 118.91617 
L 738.881197 124.646271 
L 742.282905 129.24338 
L 745.231359 132.86502 
L 747.93038 135.827363 
L 750.252286 138.066926 
L 752.52679 139.952818 
L 754.614081 141.392332 
L 756.527474 142.450972 
L 758.422454 143.241383 
L 760.159947 143.732682 
L 761.890513 143.99509 
L 763.618358 144.028574 
L 765.347692 143.833166 
L 767.082721 143.408959 
L 768.827651 142.756119 
L 770.734034 141.791171 
L 772.6623 140.558699 
L 774.769467 138.933086 
L 776.914804 136.999408 
L 779.26322 134.587964 
L 781.833884 131.632255 
L 784.818682 127.841089 
L 788.090223 123.316695 
L 792.053296 117.433097 
L 797.00856 109.645563 
L 805.06325 96.498709 
L 814.423363 81.329459 
L 820.098774 72.552939 
L 825.020088 65.350669 
L 829.325291 59.431137 
L 833.209405 54.438557 
L 836.909843 50.019351 
L 840.401613 46.17372 
L 843.662517 42.883615 
L 846.976727 39.852447 
L 850.032011 37.348708 
L 853.123657 35.108879 
L 855.933753 33.336818 
L 858.766599 31.811108 
L 861.618704 30.54524 
L 864.167115 29.647876 
L 866.725169 28.972587 
L 869.290107 28.525513 
L 871.859099 28.311574 
L 874.429266 28.334409 
L 876.997689 28.596341 
L 879.561431 29.098343 
L 882.117552 29.840047 
L 884.663121 30.819747 
L 887.195241 32.034436 
L 889.711056 33.479858 
L 892.20777 35.150567 
L 894.990357 37.291215 
L 897.741583 39.697836 
L 900.457865 42.358162 
L 903.430837 45.595183 
L 906.352075 49.10878 
L 909.500831 53.267946 
L 912.577101 57.706997 
L 915.845128 62.833805 
L 919.016471 68.219554 
L 922.33789 74.302264 
L 925.776764 81.089558 
L 929.067918 88.069024 
L 932.426192 95.703342 
L 935.813465 103.96418 
L 939.189573 112.810966 
L 942.33498 121.67291 
L 945.414229 131.021719 
L 948.236651 140.295181 
L 950.804738 149.465382 
L 953.243002 159.015043 
L 955.405354 168.424217 
L 957.203071 177.211317 
L 958.760087 185.884799 
L 960.079335 194.459844 
L 961.163271 202.955826 
L 962.013772 211.395156 
L 962.632067 219.802215 
L 963.018698 228.202347 
L 963.173505 236.620909 
L 963.09564 245.082327 
L 962.783606 253.609151 
L 962.235318 262.221074 
L 961.448203 270.933903 
L 960.419316 279.758461 
L 959.145496 288.699431 
L 957.623552 297.754126 
L 955.850483 306.911243 
L 953.823732 316.149612 
L 951.67499 324.920482 
L 949.297653 333.698269 
L 946.692131 342.435947 
L 944.032992 350.571795 
L 941.360341 358.071154 
L 938.517294 365.393497 
L 935.71419 372.01761 
L 932.77165 378.388028 
L 929.919662 384.030886 
L 927.189813 388.969083 
L 924.371839 393.613224 
L 921.716144 397.584159 
L 918.996017 401.2565 
L 916.471653 404.316827 
L 913.902541 407.096077 
L 911.293097 409.580257 
L 908.913925 411.553664 
L 906.509304 413.270808 
L 904.08281 414.725774 
L 901.638089 415.914232 
L 899.452689 416.744695 
L 897.258419 417.361677 
L 895.057895 417.765477 
L 892.853723 417.957455 
L 890.648484 417.940007 
L 888.444725 417.716536 
L 886.244945 417.291404 
L 883.777985 416.578668 
L 881.322516 415.626137 
L 878.881775 414.443759 
L 876.190874 412.873827 
L 873.525989 411.05006 
L 870.890877 408.989865 
L 868.030788 406.472283 
L 864.96155 403.453878 
L 861.950165 400.183433 
L 858.75813 396.393629 
L 855.407573 392.070115 
L 851.92322 387.212122 
L 848.3321 381.833278 
L 844.452087 375.612242 
L 840.544454 368.929887 
L 836.452785 361.492516 
L 832.245724 353.373863 
L 828.158959 345.010561 
L 824.075136 336.137522 
L 820.340222 327.49383 
L 816.944843 319.087478 
L 813.879749 310.905257 
L 811.236182 303.222824 
L 808.972465 295.986441 
L 806.972838 288.850564 
L 805.301546 282.071514 
L 803.868589 275.316027 
L 802.720732 268.844625 
L 801.791558 262.333643 
L 801.082891 255.754055 
L 800.61469 249.38371 
L 800.353157 242.901752 
L 800.302245 236.285779 
L 800.466609 229.514685 
L 800.851558 222.568915 
L 801.463001 215.430842 
L 802.307377 208.085265 
L 803.449296 200.154195 
L 804.862705 191.972902 
L 806.556108 183.5383 
L 808.441528 175.25505 
L 810.596909 166.7577 
L 813.028807 158.068662 
L 815.742872 149.222291 
L 818.594003 140.69495 
L 821.545326 132.552336 
L 824.559833 124.855232 
L 827.785657 117.23624 
L 831.023526 110.175932 
L 834.236753 103.712773 
L 837.390594 97.870165 
L 840.452777 92.655946 
L 843.393894 88.06293 
L 846.423762 83.749393 
L 849.294197 80.049788 
L 851.982911 76.923454 
L 854.722002 74.074446 
L 857.251716 71.743848 
L 859.815134 69.676676 
L 862.408107 67.887643 
L 864.763448 66.526411 
L 867.135879 65.410017 
L 869.521969 64.546022 
L 871.651557 63.995062 
L 873.786627 63.652124 
L 875.92461 63.519917 
L 878.062913 63.60027 
L 880.198923 63.894106 
L 882.330023 64.401432 
L 884.453602 65.121349 
L 886.567064 66.052065 
L 888.929421 67.34775 
L 891.272126 68.9018 
L 893.591659 70.707931 
L 895.884596 72.758707 
L 898.39708 75.313939 
L 900.86827 78.147787 
L 903.533922 81.569961 
L 906.139352 85.292118 
L 908.679679 89.293206 
L 911.371397 93.950673 
L 913.974902 98.885812 
L 916.690215 104.512682 
L 919.290849 110.396897 
L 921.957811 116.982699 
L 924.481109 123.787732 
L 927.020351 131.280184 
L 929.385423 138.940679 
L 931.712339 147.255938 
L 933.834011 155.682258 
L 935.748129 164.186989 
L 937.453113 172.743016 
L 938.947986 181.328237 
L 940.30553 190.462268 
L 941.425219 199.59257 
L 942.307327 208.706094 
L 942.95243 217.792443 
L 943.361354 226.842836 
L 943.535142 235.849104 
L 943.475051 244.802721 
L 943.182576 253.693891 
L 942.659495 262.510704 
L 941.907927 271.238378 
L 940.930426 279.858602 
L 939.806786 287.853622 
L 938.488817 295.711447 
L 936.980191 303.406207 
L 935.285258 310.908395 
L 933.409138 318.185023 
L 931.491011 324.769922 
L 929.424519 331.092982 
L 927.216058 337.120836 
L 925.033061 342.450308 
L 922.739091 347.46489 
L 920.515763 351.815365 
L 918.20891 355.849628 
L 916.010987 359.275801 
L 913.752821 362.401502 
L 911.440056 365.214109 
L 909.277057 367.508052 
L 907.077744 369.52307 
L 904.846864 371.254 
L 902.795452 372.578106 
L 900.725586 373.663214 
L 898.640928 374.509229 
L 896.545136 375.117287 
L 894.441837 375.489743 
L 892.334614 375.630138 
L 890.22699 375.543136 
L 888.122404 375.234463 
L 886.024203 374.710813 
L 883.727414 373.895555 
L 881.4464 372.84048 
L 879.185101 371.557657 
L 876.745093 369.913526 
L 874.337528 368.030955 
L 871.770829 365.743106 
L 869.060448 363.015974 
L 866.224481 359.822544 
L 863.464803 356.381515 
L 860.611207 352.47477 
L 857.687161 348.096925 
L 854.71833 343.250647 
L 851.732348 337.945818 
L 848.758592 332.198051 
L 845.827939 326.026637 
L 843.097554 319.752937 
L 840.570246 313.405425 
L 838.142608 306.698204 
L 835.941796 299.946429 
L 833.96917 293.157493 
L 832.225938 286.333199 
L 830.777056 279.783992 
L 829.539471 273.195993 
L 828.514523 266.563365 
L 827.703749 259.879748 
L 827.10889 253.139048 
L 826.731867 246.336142 
L 826.574744 239.467557 
L 826.639658 232.532108 
L 826.928743 225.531529 
L 827.444018 218.471111 
L 828.187267 211.360339 
L 829.159895 204.213541 
L 830.362757 197.050537 
L 831.795974 189.897261 
L 833.374368 183.123423 
L 835.159284 176.422129 
L 837.147895 169.833684 
L 839.221984 163.721468 
L 841.471344 157.797927 
L 843.758392 152.404998 
L 846.05187 147.548827 
L 848.468368 142.964214 
L 850.848291 138.934844 
L 853.165895 135.441033 
L 855.398462 132.454212 
L 857.692034 129.755856 
L 859.870792 127.52816 
L 862.091102 125.585555 
L 864.172457 124.059102 
L 866.279429 122.800347 
L 868.229042 121.890265 
L 870.191977 121.220299 
L 872.164138 120.796075 
L 873.961502 120.627445 
L 875.759849 120.668099 
L 877.555959 120.919662 
L 879.346594 121.382877 
L 881.128512 122.057618 
L 883.074696 123.042925 
L 885.002147 124.280416 
L 886.906645 125.76635 
L 888.953233 127.664947 
L 890.962313 129.845581 
L 892.928785 132.299075 
L 895.005341 135.25285 
L 897.020128 138.500003 
L 899.114302 142.306855 
L 901.123567 146.41459 
L 903.175071 151.124723 
L 905.114929 156.127441 
L 907.053849 161.754633 
L 908.851502 167.648978 
L 910.59987 174.167059 
L 912.175482 180.909855 
L 913.572982 187.839464 
L 914.853694 195.339714 
L 915.925751 202.966656 
L 916.786219 210.680002 
L 917.433255 218.440642 
L 917.866087 226.210259 
L 918.08499 233.950897 
L 918.091287 241.624522 
L 917.887355 249.192625 
L 917.476643 256.615893 
L 916.8637 263.853992 
L 916.054199 270.865493 
L 915.054972 277.607963 
L 913.87403 284.038238 
L 912.600128 289.785477 
L 911.181079 295.179232 
L 909.72156 299.901125 
L 908.150815 304.250422 
L 906.58563 307.966098 
L 904.939282 311.311501 
L 903.337145 314.084486 
L 901.679266 316.507885 
L 900.09654 318.436768 
L 898.478532 320.050305 
L 896.959136 321.256674 
L 895.420073 322.190018 
L 893.996274 322.80601 
L 892.564015 323.194298 
L 891.127116 323.35742 
L 889.68934 323.298983 
L 888.254383 323.023623 
L 886.696431 322.482435 
L 885.150674 321.698251 
L 883.621493 320.680693 
L 881.988446 319.327319 
L 880.262837 317.594276 
L 878.458576 315.441961 
L 876.707052 313.008516 
L 874.90382 310.132073 
L 873.068822 306.79301 
L 871.224499 302.981052 
L 869.395593 298.696217 
L 867.608858 293.949292 
L 865.892679 288.761792 
L 864.276619 283.165416 
L 862.790913 277.201092 
L 861.516517 271.179991 
L 860.413122 264.893462 
L 859.540132 258.654273 
L 858.87297 252.253668 
L 858.448313 245.996875 
L 858.259899 239.922446 
L 858.300072 234.065029 
L 858.5599 228.456637 
L 859.02926 223.127691 
L 859.696882 218.107805 
L 860.512825 213.606695 
L 861.488125 209.443322 
L 862.560402 205.794234 
L 863.755038 202.501517 
L 865.000297 199.705667 
L 866.271345 197.376692 
L 867.546534 195.48113 
L 868.807305 193.982755 
L 870.038032 192.843347 
L 871.225844 192.023498 
L 872.431714 191.457165 
L 873.577193 191.158765 
L 874.727178 191.089769 
L 875.876032 191.251018 
L 877.018114 191.642292 
L 878.147799 192.262282 
L 879.328267 193.168887 
L 880.548725 194.402423 
L 881.795808 196.002262 
L 883.05338 198.005527 
L 884.24474 200.321814 
L 885.414203 203.07196 
L 886.538998 206.277928 
L 887.593676 209.953263 
L 888.550354 214.100832 
L 889.379112 218.710316 
L 890.026594 223.557508 
L 890.49919 228.783409 
L 890.761113 234.123323 
L 890.8094 239.497245 
L 890.633791 245.02361 
L 890.251215 250.202606 
L 889.666664 255.150429 
L 888.924351 259.605239 
L 888.057603 263.527209 
L 887.098457 266.895226 
L 886.076862 269.705594 
L 885.020069 271.970194 
L 884.006835 273.63703 
L 883.007134 274.859967 
L 882.094059 275.642931 
L 881.223757 276.108846 
L 880.404432 276.304816 
L 879.583404 276.267326 
L 878.765696 275.995189 
L 877.956338 275.488766 
L 877.104124 274.688384 
L 876.218848 273.545499 
L 875.313025 272.012589 
L 874.353164 269.925608 
L 873.414552 267.32504 
L 872.52141 264.180208 
L 871.701235 260.471912 
L 870.984515 256.19493 
L 870.404238 251.360301 
L 870.007605 246.217144 
L 869.800462 240.611586 
L 869.811515 234.836492 
L 870.045638 228.976303 
L 870.504492 223.114129 
L 871.155071 217.559777 
L 872.007456 212.147503 
L 873.055192 206.943727 
L 874.23443 202.210855 
L 875.513751 197.965417 
L 876.930896 194.038637 
L 878.401728 190.623548 
L 879.899571 187.702218 
L 881.400722 185.247944 
L 882.884515 183.227413 
L 884.419789 181.515878 
L 885.909235 180.19217 
L 887.339244 179.211953 
L 888.790082 178.493047 
L 890.163439 178.058207 
L 891.544124 177.855196 
L 892.926817 177.883174 
L 894.306232 178.14013 
L 895.677141 178.622934 
L 897.124274 179.382144 
L 898.54977 180.387304 
L 900.034011 181.716521 
L 901.563983 183.406355 
L 903.043499 185.373819 
L 904.542233 187.736242 
L 906.041021 190.521217 
L 907.517999 193.752309 
L 908.886293 197.274056 
L 910.193413 201.249482 
L 911.411667 205.690545 
L 912.468724 210.395172 
L 913.35576 215.337432 
L 914.091502 220.722526 
L 914.625341 226.316933 
L 914.949977 232.099555 
L 915.058842 238.051639 
L 914.946022 244.156151 
L 914.606211 250.396932 
L 914.034698 256.757635 
L 913.227394 263.220467 
L 912.180913 269.764737 
L 910.892707 276.365272 
L 909.429938 282.71463 
L 907.743547 289.052523 
L 905.92225 295.065118 
L 903.899767 300.983555 
L 901.785236 306.496245 
L 899.609094 311.572408 
L 897.400629 316.188974 
L 895.18758 320.331877 
L 892.995781 323.996814 
L 890.712119 327.37987 
L 888.485919 330.269092 
L 886.337905 332.68613 
L 884.286016 334.661464 
L 882.34541 336.232741 
L 880.376184 337.532897 
L 878.537841 338.478221 
L 876.83937 339.119417 
L 875.131971 339.536522 
L 873.419484 339.722211 
L 871.705863 339.670209 
L 869.995157 339.375376 
L 868.291494 338.833785 
L 866.599056 338.042772 
L 864.922059 337.000972 
L 863.264731 335.708337 
L 861.631292 334.166121 
L 859.881519 332.202071 
L 858.170516 329.948998 
L 856.366772 327.189695 
L 854.621195 324.109328 
L 852.813585 320.446996 
L 851.088207 316.443795 
L 849.33891 311.798047 
L 847.70037 306.807949 
L 846.083241 301.135234 
L 844.609254 295.13328 
L 843.286078 288.834923 
L 842.053112 281.85443 
L 841.005402 274.613823 
L 840.149244 267.14949 
L 839.490011 259.496086 
L 839.032194 251.686467 
L 838.779451 243.751784 
L 838.734652 235.72172 
L 838.899906 227.624854 
L 839.276587 219.489117 
L 839.865346 211.342314 
L 840.666106 203.212697 
L 841.678041 195.129535 
L 842.899542 187.123678 
L 844.328174 179.22806 
L 845.960608 171.478116 
L 847.679367 164.35133 
L 849.570462 157.421689 
L 851.628618 150.725734 
L 853.704369 144.694852 
L 855.915632 138.936566 
L 858.255754 133.48513 
L 860.549565 128.704632 
L 862.942458 124.249931 
L 865.246791 120.429347 
L 867.623996 116.934877 
L 869.877235 114.016104 
L 872.181303 111.407021 
L 874.333056 109.29873 
L 876.517984 107.470736 
L 878.529045 106.058587 
L 880.559886 104.88906 
L 882.60676 103.965743 
L 884.665877 103.291087 
L 886.733415 102.866368 
L 888.598234 102.697898 
L 890.463983 102.73116 
L 892.534759 103.002769 
L 894.599503 103.51817 
L 896.654511 104.272928 
L 898.696158 105.261522 
L 900.720911 106.477411 
L 902.924542 108.068468 
L 905.099198 109.914372 
L 907.433583 112.204395 
L 909.723346 114.766169 
L 912.147974 117.827187 
L 914.508873 121.162182 
L 916.974142 125.03215 
L 919.520116 129.464942 
L 921.961175 134.157501 
L 924.443097 139.408277 
L 926.936071 145.218603 
L 929.275134 151.220847 
L 931.579133 157.736931 
L 933.814247 164.743952 
L 935.844066 171.83609 
L 937.756905 179.34805 
L 939.439373 186.868182 
L 940.891741 194.363798 
L 942.115169 201.80923 
L 943.111507 209.18512 
L 943.88311 216.477678 
L 944.454381 224.035449 
L 944.77395 231.133753 
L 944.877547 238.133742 
L 944.768166 245.037214 
L 944.448703 251.848346 
L 943.890162 258.907302 
L 943.105951 265.87983 
L 942.098694 272.775753 
L 940.870689 279.605431 
L 939.4239 286.379122 
L 937.759974 293.106262 
L 935.880278 299.794664 
L 933.785964 306.449588 
L 931.478072 313.072701 
L 928.83236 319.97362 
L 926.090659 326.51529 
L 923.139447 332.99531 
L 919.981098 339.387876 
L 916.783633 345.36197 
L 913.578482 350.897026 
L 910.395639 355.975293 
L 907.075484 360.848707 
L 903.819376 365.218751 
L 900.653864 369.082969 
L 897.603122 372.448562 
L 894.688754 375.332412 
L 891.929681 377.76037 
L 889.124864 379.92226 
L 886.499988 381.660415 
L 884.067788 383.020039 
L 881.614663 384.141782 
L 879.144732 385.012531 
L 876.888399 385.576129 
L 874.62515 385.914107 
L 872.358499 386.019251 
L 870.092061 385.885436 
L 867.829535 385.507724 
L 865.574687 384.882447 
L 863.331331 384.007267 
L 861.103302 382.881221 
L 858.894443 381.50473 
L 856.708579 379.879602 
L 854.549494 378.008999 
L 852.20988 375.67318 
L 849.912031 373.053426 
L 847.660654 370.159049 
L 845.262939 366.701056 
L 842.931557 362.944835 
L 840.486919 358.559039 
L 838.132714 353.866797 
L 835.705265 348.498861 
L 833.39617 342.834847 
L 831.211446 336.905786 
L 829.014758 330.293572 
L 826.97276 323.447696 
L 824.970728 315.925575 
L 823.155475 308.212848 
L 821.531257 300.342631 
L 820.101573 292.343701 
L 818.86927 284.240415 
L 817.836653 276.052779 
L 816.960373 267.278679 
L 816.313438 258.441582 
L 815.897349 249.551575 
L 815.713391 240.615174 
L 815.762719 231.636102 
L 816.046418 222.616135 
L 816.565542 213.556017 
L 817.321129 204.456423 
L 818.314189 195.318972 
L 819.545666 186.147284 
L 821.016373 176.94807 
L 822.726894 167.732247 
L 824.556081 159.05781 
L 826.597702 150.401667 
L 828.851021 141.788255 
L 831.314628 133.248424 
L 833.986269 124.819941 
L 836.676983 117.059271 
L 839.544042 109.478817 
L 842.37495 102.608856 
L 845.350679 95.981097 
L 848.238575 90.084163 
L 851.241105 84.475223 
L 854.109124 79.588256 
L 857.064162 75.013197 
L 859.844253 71.120622 
L 862.687335 67.540824 
L 865.322025 64.577103 
L 867.999889 61.906814 
L 870.443074 59.766651 
L 872.913989 57.885772 
L 875.408999 56.272631 
L 877.924363 54.934351 
L 880.174233 53.980137 
L 882.434423 53.250563 
L 884.702168 52.747584 
L 886.974682 52.472112 
L 889.249179 52.424008 
L 891.522878 52.602071 
L 893.79302 53.004053 
L 896.056879 53.626681 
L 898.311777 54.46569 
L 900.834565 55.661703 
L 903.339071 57.116226 
L 905.821799 58.819229 
L 908.279397 60.759539 
L 910.976717 63.178926 
L 913.634959 65.858343 
L 916.509316 69.083469 
L 919.327052 72.574238 
L 922.331384 76.653897 
L 925.498662 81.353861 
L 928.569793 86.302536 
L 931.764467 91.86098 
L 935.052614 98.023631 
L 938.401699 104.768911 
L 941.777227 112.059222 
L 945.143355 119.842025 
L 948.631711 128.48264 
L 952.010817 137.463384 
L 955.243734 146.69309 
L 958.295393 156.080675 
L 961.133071 165.539548 
L 963.629843 174.621447 
L 965.883449 183.664292 
L 967.798935 192.279874 
L 969.392487 200.479168 
L 970.679689 208.282263 
L 971.675221 215.71583 
L 972.369131 222.53353 
L 972.817643 229.070422 
L 973.030481 235.359615 
L 973.016111 241.436135 
L 972.781683 247.336774 
L 972.332959 253.100089 
L 971.674251 258.766493 
L 970.767797 264.611685 
L 969.637819 270.44811 
L 968.224786 276.56559 
L 966.497348 283.035732 
L 964.419242 289.94849 
L 961.856775 297.677413 
L 958.720914 306.400932 
L 954.903943 316.338538 
L 950.412216 327.408108 
L 945.302277 339.406153 
L 940.046724 351.185161 
L 934.961434 362.052282 
L 930.225172 371.676944 
L 925.788238 380.221783 
L 921.536841 387.944331 
L 917.543599 394.750666 
L 913.874713 400.595721 
L 910.331354 405.847214 
L 906.942542 410.48906 
L 903.734636 414.52465 
L 900.730993 417.974776 
L 897.671473 421.151036 
L 894.845715 423.772184 
L 891.981913 426.113948 
L 889.375644 427.963054 
L 886.745668 429.550476 
L 884.391005 430.729789 
L 882.023276 431.681172 
L 879.645328 432.396323 
L 877.2601 432.868162 
L 874.87061 433.09093 
L 872.778732 433.078082 
L 870.68804 432.869198 
L 868.600646 432.463175 
L 866.221802 431.757538 
L 863.85318 430.795326 
L 861.49791 429.579212 
L 859.159079 428.113353 
L 856.839715 426.403336 
L 854.542769 424.456093 
L 851.989056 421.99212 
L 849.471236 419.251655 
L 846.720262 415.900635 
L 844.022954 412.249176 
L 841.123162 407.914288 
L 838.298999 403.278562 
L 835.30995 397.918953 
L 832.421991 392.2878 
L 829.412736 385.932922 
L 826.316092 378.854908 
L 823.169063 371.073934 
L 820.011188 362.630351 
L 817.061282 354.116461 
L 814.155807 345.070653 
L 811.335325 335.568046 
L 808.640359 325.691914 
L 806.229844 316.030167 
L 804.631735 309.071397 
L 804.631735 309.071397 
" clip-path="url(#p0d713c1583)" style="fill: none; stroke: #2ca02c; stroke-width: 1.5; stroke-linecap: square"/>
   </g>
   <g id="line2d_59">
    <path d="M 625.404979 41.325889 
" clip-path="url(#p0d713c1583)" style="fill: none; stroke: #1f77b4; stroke-width: 1.5; stroke-linecap: square"/>
    <defs>
     <path id="md9da279476" d="M 0 4 
C 1.060812 4 2.078319 3.578535 2.828427 2.828427 
C 3.578535 2.078319 4 1.060812 4 0 
C 4 -1.060812 3.578535 -2.078319 2.828427 -2.828427 
C 2.078319 -3.578535 1.060812 -4 0 -4 
C -1.060812 -4 -2.078319 -3.578535 -2.828427 -2.828427 
C -3.578535 -2.078319 -4 -1.060812 -4 0 
C -4 1.060812 -3.578535 2.078319 -2.828427 2.828427 
C -2.078319 3.578535 -1.060812 4 0 4 
z
" style="stroke: #1f77b4"/>
    </defs>
    <g clip-path="url(#p0d713c1583)">
     <use xlink:href="#md9da279476" x="625.404979" y="41.325889" style="fill: #1f77b4; stroke: #1f77b4"/>
    </g>
   </g>
   <g id="patch_10">
    <path d="M 541.536614 453.390717 
L 541.536614 7.2 
" style="fill: none; stroke: #000000; stroke-width: 0.8; stroke-linejoin: miter; stroke-linecap: square"/>
   </g>
   <g id="patch_11">
    <path d="M 993.6 453.390717 
L 993.6 7.2 
" style="fill: none; stroke: #000000; stroke-width: 0.8; stroke-linejoin: miter; stroke-linecap: square"/>
   </g>
   <g id="patch_12">
    <path d="M 541.536614 453.390717 
L 993.6 453.390717 
" style="fill: none; stroke: #000000; stroke-width: 0.8; stroke-linejoin: miter; stroke-linecap: square"/>
   </g>
   <g id="patch_13">
    <path d="M 541.536614 7.2 
L 993.6 7.2 
" style="fill: none; stroke: #000000; stroke-width: 0.8; stroke-linejoin: miter; stroke-linecap: square"/>
   </g>
  </g>
 </g>
 <defs>
  <clipPath id="p4a319df537">
   <rect x="34.678823" y="9.286592" width="452.063386" height="442.017533"/>
  </clipPath>
  <clipPath id="p0d713c1583">
   <rect x="541.536614" y="7.2" width="452.063386" height="446.190717"/>
  </clipPath>
 </defs>
</svg>
